<?xml version="1.0" encoding="utf-8"?><svg xmlns="http://www.w3.org/2000/svg" xmlns:xlink="http://www.w3.org/1999/xlink"><symbol viewBox="0 0 16 16" id="ajuda-" xmlns="http://www.w3.org/2000/svg"><path d="M8 1.2c3.7 0 6.8 3 6.8 6.8s-3 6.8-6.8 6.8-6.8-3-6.8-6.8S4.3 1.2 8 1.2M8 0C3.6 0 0 3.6 0 8s3.6 8 8 8 8-3.6 8-8-3.6-8-8-8z"/><path d="M8 3.5c-1 0-1.9.3-2.5.9-.6.5-.9 1.3-.9 2.3h1.9c0-.6.1-1 .4-1.3.2-.2.6-.3 1.1-.3.4 0 .7.1 1 .3.2.2.3.6.3 1 0 .3-.2 1-.7 1.3-.6.4-1 .9-1.2 1.3s-.3 1-.3 1.6h1.8c0-.4 0-.7.1-.9s.3-.4.5-.6c.7-.5 1.1-1 1.4-1.4.3-.4.4-.9.4-1.3 0-.9-.3-1.6-.9-2.1-.5-.6-1.4-.8-2.4-.8z"/><circle cx="8" cy="11.9" r="1"/></symbol><symbol viewBox="0 0 16 16" id="alerta-notificacao" xmlns="http://www.w3.org/2000/svg"><path d="M14.5 9.7l-1.1-1.1V7c0-2.3-1.4-4.3-3.5-5.1-.1-1-1-1.8-2-1.8s-1.9.8-2 1.8c-2 .8-3.4 2.8-3.4 5.1v1.7l-1 1c-.2.2-.3.4-.3.7v.7c0 .6.4 1 1 1h2.1c0 2.1 1.7 3.7 3.7 3.7.3 0 .5 0 .8-.1 1.2-.2 2.2-1.1 2.7-2.2.2-.4.3-.9.3-1.4V12h2.1c.6 0 1-.4 1-1v-.7c-.1-.1-.2-.4-.4-.6zm-4.7 3.6c-.3.6-.8 1.1-1.4 1.2H8c-1.1 0-2-.9-2-2h4c0 .3-.1.5-.2.8zm3.5-2.6H2.7v-.6L4 8.8V6.9c0-1.9 1.3-3.5 3.1-4v-.4c0-.5.4-.9.9-.9s.9.4.9.9v.4c1.8.4 3.1 2 3.1 4v1.9l1.3 1.3v.6z"/></symbol><symbol viewBox="0 0 16 16" id="avatar-pessoa-usuario" xmlns="http://www.w3.org/2000/svg"><path d="M8.3 7.8c2.2 0 3.9-1.7 3.9-3.9S10.5 0 8.3 0 4.4 1.7 4.4 3.9s1.8 3.9 3.9 3.9zm0-6.5c1.4 0 2.6 1.2 2.6 2.6S9.8 6.5 8.3 6.5 5.7 5.3 5.7 3.9s1.2-2.6 2.6-2.6zM8.3 9.1c-3.8 0-6.9 3.1-6.9 6.9h13.9c0-3.8-3.1-6.9-7-6.9zm2.4 3.9c-.3 0-.5.2-.5.5V15H5.8v-1.5c0-.3-.2-.5-.5-.5s-.5.2-.5.5V15H2.5c.5-2.8 2.9-4.9 5.9-4.9 2.9 0 5.4 2.1 5.9 4.9h-3v-1.5c-.1-.3-.3-.5-.6-.5z"/></symbol><symbol viewBox="0 0 16 16" id="bandeira-chegada-finalizacao" xmlns="http://www.w3.org/2000/svg"><path d="M1.5 1.1C1.4.7 1 .5.6.6c-.5.1-.7.5-.6 1l4.3 13.9c.2.4.7.5 1.1.5.4-.1.6-.6.5-1L1.5 1.1zM5.5 1.3c1 0 1.8.2 2.3.5 1.1.8 2.5 1.3 3.8 1.3.5 0 1.1-.1 1.6-.2L15 8.6c-.1.1-.9.4-1.4.4-.8 0-1.6-.2-2.1-.5-1-.8-2.2-1.1-3.6-1.1-.5 0-2.4.2-2.4.2L3.7 1.7s1-.4 1.8-.4m0-1c-.9 0-3 .6-3 .6l2.4 7.8s2.5-.4 3.1-.4c1 0 2 .2 3 1 .8.5 1.8.7 2.7.7.6 0 1.1-.1 1.5-.2.3-.3.9-.8.8-1.4l-1.9-6.1c-.1-.3-.4-.5-.8-.5-.1 0-1.3.3-1.7.3-1.2 0-2.3-.4-3.2-1.1-.9-.5-2-.7-2.9-.7z"/></symbol><symbol viewBox="0 0 16 16" id="cadeado-restrito-bloqueado-senha" xmlns="http://www.w3.org/2000/svg"><path d="M14.3 7.2c-.1-.1-.3-.2-.5-.3V5.8c0-.8-.1-1.5-.4-2.2-.3-.7-.7-1.3-1.3-1.9-.5-.5-1.2-1-1.9-1.3C9.5.1 8.8 0 8 0c-.8 0-1.5.1-2.2.4-.7.3-1.4.8-1.9 1.3s-1 1.2-1.3 1.9c-.3.7-.4 1.4-.4 2.2v1.1c-.2.1-.3.2-.5.3-.3.3-.4.7-.4 1.1v6.2c0 .4.2.8.4 1.1.3.2.7.4 1.1.4h10.4c.4 0 .8-.2 1.1-.4s.4-.7.4-1.1V8.3c0-.4-.1-.8-.4-1.1zM2.2 8.3c0-.2.1-.3.2-.4.1-.1.2-.2.3-.2h10.6c.1 0 .2.1.3.2.1.1.2.3.2.4v6.2c0 .2-.1.3-.2.4-.1.1-.3.2-.4.2H2.8c-.2 0-.3-.1-.4-.2-.1-.1-.2-.3-.2-.4V8.3zm9.1-2.5v1H4.7v-1c0-.4.1-.9.3-1.3.2-.4.4-.8.7-1.1.3-.3.6-.5 1-.7.8-.3 1.7-.3 2.6 0 .4.2.8.4 1.1.7.3.3.6.7.7 1.1.2.4.2.9.2 1.3zm1.6 1h-.6v-1c0-.6-.1-1.1-.3-1.6-.2-.5-.5-1-.9-1.4-.4-.4-.9-.7-1.4-.9-1-.4-2.2-.4-3.2 0-.6.2-1.1.5-1.5.9-.4.4-.7.9-.9 1.4-.2.5-.4 1-.4 1.6v1h-.6v-1c0-.6.1-1.3.4-1.9.2-.6.6-1.1 1.1-1.6.5-.5 1-.8 1.6-1.1 1.2-.5 2.5-.5 3.7 0 .6.2 1.1.6 1.6 1.1.5.5.8 1 1.1 1.6.2.6.4 1.2.4 1.9v1z"/><path d="M6.8 11.4v1.7c0 .3.1.5.3.7.2.2.4.3.7.3h.4c.3 0 .5-.1.7-.3.2-.2.3-.4.3-.7v-1.7c.1-.1.3-.3.3-.5.1-.2.2-.5.2-.8 0-.5-.2-.9-.5-1.2-.3-.3-.7-.4-1.2-.4s-.9.1-1.2.5c-.3.3-.5.8-.5 1.2 0 .3.1.6.2.8 0 .2.2.3.3.4zm1.7-.5c-.1.1-.2.2-.2.4v1.9l-.1.1h-.4l-.1-.1v-1.9c0-.1-.1-.3-.2-.4l-.3-.3c-.1-.1-.1-.2-.1-.4s.1-.4.2-.6c.3-.2.5-.2.7-.2.2 0 .4.1.6.2.2.2.2.4.2.6 0 .1 0 .3-.1.4 0 .1-.1.2-.2.3z"/></symbol><symbol viewBox="0 0 16 16" id="calendario-data-dia" xmlns="http://www.w3.org/2000/svg"><path d="M1.1 5.4h13.7v8.9H1.1V5.4zm0-2.6h2.3v.3c0 .3.2.6.6.6.3 0 .6-.2.6-.6v-.3h6.9v.3c0 .3.2.6.6.6.3 0 .6-.2.6-.6v-.3h2.2v1.5H1.1V2.8zM.6 15.4h14.9c.3 0 .6-.2.6-.6V2.2c0-.3-.2-.6-.6-.6h-2.8v-.4c0-.3-.2-.6-.6-.6-.3 0-.6.2-.6.6v.5H4.6v-.5c0-.3-.2-.6-.6-.6-.3 0-.6.2-.6.6v.5H.6c-.4 0-.6.2-.6.5v12.6c0 .3.3.6.6.6z"/><path d="M12.1 8H3.9c-.3 0-.5.2-.5.5s.2.6.6.6h8.1c.3 0 .6-.2.6-.6s-.3-.5-.6-.5zM8 10.7H3.9c-.3 0-.6.2-.6.6 0 .3.2.6.6.6H8c.3 0 .6-.2.6-.6 0-.4-.3-.6-.6-.6z"/></symbol><symbol viewBox="0 0 16 16" id="camera-fotografica-foto" xmlns="http://www.w3.org/2000/svg"><path d="M14.1 13.9H1.9C.9 13.9 0 13 0 12V5.2c0-1 .9-1.9 1.9-1.9h.4c.1 0 .2-.1.2-.1v-.1l.1-.3c.2-.4.5-.7.9-.7h1.7c.4 0 .8.3 1 .7l.1.3c0 .1.1.2.3.2H14c1.1 0 1.9.9 1.9 1.9V12c.1 1.1-.8 1.9-1.8 1.9zM3.3 3.3c0 .1 0 .1 0 0-.2.5-.6.7-1 .7h-.4C1.3 4 .8 4.5.8 5.2V12c0 .6.5 1.1 1.1 1.1h12.2c.6 0 1.1-.5 1.1-1.1V5.2c0-.6-.5-1.1-1.1-1.1H6.6c-.4 0-.8-.3-1-.7V3c0-.1-.1-.2-.3-.2H3.7c-.1.1-.3.1-.3.2l-.1.3zm6 9c-1 0-1.9-.4-2.6-1.1-.7-.7-1.1-1.6-1.1-2.6S6 6.7 6.7 6c.7-.7 1.6-1.1 2.6-1.1 2 0 3.6 1.6 3.6 3.6 0 2.2-1.5 3.8-3.6 3.8.1 0 0 0 0 0zm0-6.5c-.8 0-1.5.3-2 .8s-.8 1.3-.8 2c0 .8.3 1.5.8 2s1.2.8 2 .8h.1c1.6 0 2.9-1.3 2.9-2.9-.1-1.4-1.4-2.7-3-2.7zm4.4.6c-.2 0-.5-.1-.7-.3-.2-.2-.3-.4-.3-.7 0-.2.1-.5.3-.7.2-.2.4-.3.7-.3.2 0 .5.1.7.3.2.2.3.4.3.7 0 .6-.4 1-1 1 .1 0 .1 0 0 0zm0-1.4c-.1 0-.2 0-.3.1-.1.1-.1.2-.1.3 0 .1 0 .2.1.3.1.1.2.1.3.1.2 0 .4-.2.4-.4 0-.1 0-.2-.1-.3 0 0-.1-.1-.3-.1z" opacity=".89"/></symbol><symbol viewBox="0 0 16 16" id="carregador" xmlns="http://www.w3.org/2000/svg"><path d="M15.3 7.3h-2.6c-.4 0-.7.4-.6.8 0 .4.3.6.7.6h2.5c.4 0 .7-.4.6-.8.1-.3-.2-.6-.6-.6zm-3.4-2.2l1.7-1.7.1-.1c.3-.3.2-.8-.1-1-.3-.2-.7-.2-.9 0l-.1.1L11 4.1l-.1.1c-.2.3-.2.7.1 1 .3.2.7.1.9-.1zm-4.6-2v.1c0 .4.4.7.8.7s.7-.3.7-.7V.6C8.7.3 8.4 0 8 0s-.7.3-.7.7v2.4zm-4.9.3L4.1 5l.1.1c.3.2.7.2 1 0 .3-.3.3-.7 0-1L3.4 2.4l-.1-.1c-.3-.2-.7-.2-1 0-.2.3-.2.7.1 1.1zm.8 5.3c.4 0 .7-.4.6-.8 0-.4-.3-.6-.7-.6H.7c-.4 0-.7.4-.7.8s.3.6.7.7h2.5zm.9 2.2l-1.7 1.7-.1.1c-.2.3-.2.7 0 1 .3.3.7.3 1 0l.1-.1 1.7-1.7.1-.1c.2-.3.2-.8-.1-1-.4-.1-.7-.1-1 .1zm4.6 2v-.1c0-.4-.4-.7-.8-.7s-.7.3-.7.7v2.5c0 .4.4.7.8.6.3 0 .6-.3.6-.7v-.1l.1-2.2zm4.9-.3L12 11l-.1-.1c-.3-.3-.7-.2-1 .1-.2.3-.2.7 0 1l1.7 1.7.1.1c.3.2.7.2 1 0 .2-.4.2-.8-.1-1.2z"/></symbol><symbol viewBox="0 0 16 16" id="comentario-mensagem-conversa-batepapo" xmlns="http://www.w3.org/2000/svg"><path d="M8 1.3c3.5.1 6.3 2.9 6.4 6.4.1 3.6-2.8 6.5-6.4 6.6-.9 0-1.7-.2-2.5-.5h-.1c-.1 0-.2-.1-.3-.1-.1 0-.3 0-.4.1h-.1l-1.9.9h-.1-.1-.1c-.2 0-.3-.2-.3-.4l.6-2.4c0-.2 0-.3-.1-.5 0 0 0-.1-.1-.1-.7-1-1-2.2-1-3.5.1-3.6 3-6.5 6.5-6.5M5 8.9c.6 0 1-.5 1-1.1 0-.6-.4-1-1-1s-1.1.5-1.1 1.1c0 .6.5 1 1.1 1m3 0c.6 0 1.1-.5 1.1-1.1 0-.6-.5-1.1-1.1-1.1-.6.1-1 .6-1 1.2s.4 1 1 1m3.1 0c.6 0 1.1-.5 1.1-1.1 0-.6-.5-1.1-1.1-1.1-.6 0-1.1.5-1.1 1.1 0 .6.5 1.1 1.1 1.1M8.1 0C6 0 4 .8 2.6 2.3 1.1 3.8.3 5.7.3 7.8c0 1.4.4 2.9 1.2 4.1-.1.4-.3 1.3-.5 2.1-.1.4 0 .9.2 1.2.2.4.6.6 1 .7h.4c.2 0 .4 0 .6-.1h.2l1.8-.9c.9.4 1.8.6 2.8.6 2.1 0 4-.9 5.5-2.4 1.4-1.5 2.2-3.5 2.2-5.5C15.6 3.4 12.3.1 8.1 0z"/></symbol><symbol viewBox="0 0 16 16" id="compra-carrinho-mercado" xmlns="http://www.w3.org/2000/svg"><path d="M5.8 13.1c-.7 0-1.2.5-1.2 1.2s.5 1.2 1.2 1.2S7 15 7 14.3s-.5-1.2-1.2-1.2zm0 1.8c-.3 0-.5-.2-.5-.5s.2-.5.5-.5.5.2.5.5c.1.2-.2.5-.5.5zM12.2 13.1c-.7 0-1.2.5-1.2 1.2s.5 1.2 1.2 1.2 1.2-.5 1.2-1.2-.5-1.2-1.2-1.2zm0 1.8c-.3 0-.5-.2-.5-.5s.2-.5.5-.5.5.2.5.5c0 .2-.2.5-.5.5zM12.5 5.4h-7c-.2 0-.3.2-.3.3 0 .2.2.3.3.3h7c.2 0 .3-.2.3-.3 0-.1-.1-.3-.3-.3zM12.2 7.6H5.8c-.2 0-.3.2-.3.4s.2.3.3.3h6.4c.2 0 .3-.2.3-.3.1-.2-.1-.4-.3-.4z"/><path d="M15.8 2.9c-.1-.2-.3-.3-.5-.2H2.6l-.2-1c0-.2-.2-.4-.4-.5L.5.5C.3.4.1.5 0 .6s0 .4.2.5l1.5.6 1.7 10.1c.1.3.3.5.7.5h10.2c.2 0 .3-.2.3-.3 0-.2-.2-.3-.3-.3H4l-.2-1h10.5c.3 0 .6-.2.7-.5l1-6.7c0-.3 0-.5-.2-.6zM14.3 10H3.7l-1-6.7h12.6l-1 6.7z"/></symbol><symbol viewBox="0 0 16 16" id="configuracao-boleto" xmlns="http://www.w3.org/2000/svg"><g fill-rule="evenodd" clip-rule="evenodd"><path d="M10.3 7.7H4.1c-.1 0-.2.1-.2.2s.1.2.2.2h6.2c.1 0 .2-.1.2-.2s-.1-.2-.2-.2zM10.3 6H4.1c-.1 0-.2.1-.2.2s.1.2.2.2h6.2c.1 0 .2-.1.2-.2s-.1-.2-.2-.2z"/><path d="M14 4.1L9.9.1c0-.1 0-.1-.1-.1H3.1c-.3 0-.6.1-.8.3-.3.3-.4.5-.4.9v13.7c0 .3.1.6.3.8.3.2.6.3.9.3h9.8c.3 0 .6-.1.8-.3.2-.2.3-.5.3-.8V4.4c.1-.2.1-.2 0-.3zM10 .7l3.4 3.4h-2.7c-.2 0-.4-.1-.5-.2-.1-.2-.2-.4-.2-.6V.7zm3.7 14.1c0 .2-.1.4-.2.5-.1.1-.3.2-.5.2H3.1c-.2 0-.4-.1-.5-.2-.1-.1-.2-.3-.2-.5V1.2c0-.2.1-.4.2-.5.1-.1.3-.2.5-.2h6.5v2.9c0 .3.1.6.3.8.2.2.5.3.8.3h2.9l.1 10.3z"/><path d="M3.8 9.9h.3v4h-.3zM6.4 9.9h.1v4h-.1zM6.8 9.9h.1v4h-.1zM7.1 9.9h.1v4h-.1zM7.4 9.9h.1v4h-.1zM7.7 9.9H8v4h-.3zM8.1 9.9h.1v4h-.1zM9.9 9.9h.2v4h-.2zM10.3 9.9h.1v4h-.1zM10.6 9.9h.2v4h-.2zM4.4 9.9h.1v4h-.1zM12.1 9.9h.1v4h-.1zM4.9 9.9h1.2v4H4.9zM8.4 9.9h.7v4h-.7zM9.2 9.9h.5v4h-.5zM11 9.9h.8v4H11z"/></g></symbol><symbol viewBox="0 0 16 16" id="coracao-favoritos" xmlns="http://www.w3.org/2000/svg"><path d="M4.5 2.7c.9 0 1.8.5 2.3 1.3l.4.5s.1.1.2.1c.1.1.4.2.6.2.3 0 .6-.1.8-.3l.3-.4.1-.1c.5-.8 1.4-1.3 2.3-1.3.4 0 .8.1 1.2.3 1.4.7 2 2.4 1.4 3.9-.4.9-2.8 3.4-6 6.4 0 0-.1.1-.2 0-3.3-3.1-5.6-5.5-6-6.4-.7-1.5-.1-3.2 1.4-3.9.3-.2.7-.3 1.2-.3m-.4-1.5c-.6 0-1.2.1-1.8.4-2.1 1-2.9 3.5-2 5.6.8 1.7 5.1 5.7 6.8 7.4.2.2.5.3.8.3.3 0 .6-.1.8-.3 1.8-1.6 6.1-5.7 6.8-7.4 1-2.1.1-4.6-2-5.6-.6-.3-1.2-.4-1.7-.4-1.4 0-2.8.7-3.5 2 0 .1-.2.2-.3.2-.1 0-.2 0-.2-.1-.1 0-.1-.1-.1-.2-.8-1.2-2.2-1.9-3.6-1.9z"/></symbol><symbol viewBox="0 0 16 16" id="eixo-configuracao" xmlns="http://www.w3.org/2000/svg"><path d="M9 16c-.3 0-.5-.2-.6-.4l-.7-1.8c-.2 0-.4 0-.5-.1l-1 1.6c-.2.3-.6.4-.9.2l-2-1.1c-.3-.2-.4-.5-.3-.8l.7-1.7c-.1-.1-.2-.3-.3-.4l-1.9.4c-.3.1-.7-.1-.8-.5L0 9.2c-.1-.3.1-.7.4-.8l1.8-.7c0-.2 0-.4.1-.5l-1.6-1c-.3-.3-.4-.6-.3-.9l1.1-2c.2-.4.5-.5.9-.4l1.7.7c.1-.1.3-.2.4-.3l-.4-1.8c0-.4.2-.7.5-.8L6.8 0c.3-.1.7.1.8.4l.7 1.8c.2 0 .4 0 .5.1l1-1.6c.2-.3.6-.4.9-.2l2 1.1c.3.2.4.5.3.8l-.7 1.7c.1.1.2.3.3.4l1.9-.4c.3-.1.7.1.8.5l.7 2.2c.1.3-.1.7-.4.8l-1.8.7c0 .2 0 .4-.1.5l1.6 1c.3.2.4.6.2.9l-1.1 2c-.2.3-.5.4-.8.3l-1.7-.7c-.1.1-.3.2-.4.3l.4 1.9c.1.3-.1.7-.5.8l-2.2.7H9zm-.9-3.5c.3 0 .5.2.6.4l.7 1.6 1.1-.3-.3-1.7c-.1-.3.1-.5.3-.7.3-.2.6-.4.9-.7.2-.2.5-.3.7-.2l1.6.7.5-1-1.4-1c-.2-.2-.3-.4-.3-.7.1-.4.1-.7.1-1.1 0-.3.2-.5.4-.6l1.6-.7-.3-1.1-1.7.3c-.3.1-.5-.1-.7-.3-.2-.3-.4-.6-.7-.9-.3 0-.4-.3-.2-.5l.7-1.6-1-.5-1 1.4c-.1.2-.4.4-.7.3-.4-.1-.7-.1-1.1-.1-.3 0-.5-.2-.6-.4l-.7-1.6-1.1.3.3 1.7c.1.3 0 .5-.2.7-.3.2-.6.4-.9.7-.2.2-.5.3-.7.1l-1.6-.6-.5 1 1.4 1c.2.1.4.3.3.6-.1.4-.1.7-.1 1.1 0 .3-.2.5-.4.6l-1.6.7.3 1.1 1.7-.3c.3-.1.5.1.7.3.2.3.4.6.7.9.2.1.3.4.1.6l-.7 1.6 1 .5 1-1.4c.2-.2.4-.3.7-.3.4.1.7.1 1.1.1z"/><path d="M8 11.4c-1.9 0-3.4-1.5-3.4-3.4S6.1 4.6 8 4.6s3.4 1.5 3.4 3.4-1.5 3.4-3.4 3.4zm0-5.5c-1.1 0-2.1 1-2.1 2.1s.9 2.1 2.1 2.1 2.1-.9 2.1-2.1-1-2.1-2.1-2.1z"/></symbol><symbol viewBox="0 0 16 16" id="eixo-gestao" xmlns="http://www.w3.org/2000/svg"><path d="M11.8 7.1V.6c0-.2-.2-.4-.4-.4H8.9c-.2 0-.4.2-.4.4v7.8c-.3.3-.5.6-.7.9V3.7c0-.2-.2-.4-.4-.4H4.9c-.2 0-.4.2-.4.4v8.9h-.6V8.3c0-.2-.2-.4-.4-.4H.9c-.2 0-.4.2-.4.4v4.3H.4c-.2 0-.4.2-.4.4s.2.4.4.4h7.3c.7 1.4 2.2 2.4 3.9 2.4 2.4 0 4.4-2 4.4-4.4 0-2.3-1.9-4.2-4.2-4.3zm-.9-6v6.1c-.6.1-1.1.3-1.6.6V1.1h1.6zm-5.6 3H7v8.5H5.3V4.1zM1.4 8.7H3v3.8H1.4V8.7zm10.2 6.2c-1.9 0-3.5-1.6-3.5-3.5s1.6-3.5 3.5-3.5 3.5 1.6 3.5 3.5-1.5 3.5-3.5 3.5z"/><path d="M13.4 9.4c-.1-.1-.3-.1-.3-.1h-2.8c-.2 0-.4.2-.4.4s.2.4.4.4H12c-.4.4-.8.9-1.5 1.6-.4.4-.8.8-.9 1-.2.2-.2.4 0 .6.1.1.2.1.3.1.1 0 .2 0 .3-.1l1-1 1.6-1.6v1.8c0 .2.2.4.4.4s.4-.2.4-.4V9.7s-.1-.2-.2-.3z"/></symbol><symbol viewBox="0 0 16 16" id="eixo-integracao" xmlns="http://www.w3.org/2000/svg"><path d="M12.2 4.4h-.4C11 2.8 9.3 1.7 7.5 1.7c-2.5 0-4.6 2-4.8 4.4-1.5.1-2.7 1.4-2.7 3s1.3 3 3 3h1.5l2.6 2.1c.1.1.2.1.3.1h.2c.2-.1.3-.2.3-.4V13h3.6c.3 0 .5-.2.5-.5V12h.3c2.1 0 3.8-1.7 3.8-3.8-.1-2.1-1.8-3.8-3.9-3.8zm-1.3 7.7H7.4c-.3 0-.5.2-.5.5v.3l-1.6-1.3 1.6-1.3v.3c0 .3.2.5.5.5H11v1zm1.3-.9h-.3v-.5c0-.3-.2-.5-.5-.5H7.8v-.8c0-.2-.1-.3-.3-.4-.1-.1-.3-.1-.4 0l-2.6 2.1H3C1.9 11.1.9 10.2.9 9c0-1.2 1-2.1 2.2-2.1.1 0 .3 0 .3-.1.1-.1.1-.2.1-.3v-.1c0-2.1 1.7-3.9 3.9-3.9 1.6 0 3 1 3.6 2.5.1.2.3.3.5.3s.4-.1.6-.1c1.6 0 2.9 1.3 2.9 2.9.1 1.7-1.2 3.1-2.8 3.1z"/><path d="M8.9 4.3c-.1-.1-.3-.1-.5 0-.1.1-.2.2-.2.4v.8H4.6c-.2 0-.4.2-.4.5v1.8c0 .3.2.5.5.5h3.6v.8c0 .2.1.3.3.4h.2c.1 0 .2 0 .3-.1l2.7-2.2c.1-.1.2-.2.2-.4s-.1-.3-.2-.4L8.9 4.3zm.2 3.9v-.4c0-.3-.2-.5-.5-.5H5.1v-.9h3.6c.3 0 .5-.2.5-.5v-.3l1.6 1.3-1.7 1.3z"/></symbol><symbol viewBox="0 0 16 16" id="eixo-monitoracao" xmlns="http://www.w3.org/2000/svg"><path d="M12.6 7.2c.1-1-.3-2.1-1.1-2.9-.9-1-2.2-1.5-3.6-1.5s-2.7.5-3.5 1.5c-.7.8-1.1 1.8-1 2.9.1 2 .9 2.6 1.5 3.1.5.4.8.6.9 1.6 0 .1 0 .1.1.2v.1c0 .2.2.3.4.3h.1l3.8-1h.1s.1 0 .1-.1l.1-.1c.2-.5.4-.7.8-1 .5-.6 1.2-1.1 1.3-3.1zm-2 2.3c-.3.3-.7.6-1 1.1l-3.1.8c-.1-1-.6-1.4-1.1-1.8-.6-.4-1.1-.8-1.2-2.5 0-.8.3-1.6.9-2.3.7-.7 1.8-1.2 2.9-1.2 1.1 0 2.2.5 2.9 1.2.6.6.9 1.4.8 2.2 0 1.7-.5 2.1-1.1 2.5zM9.9 13.5l-3.8 1c-.2.1-.4.3-.3.5 0 .2.2.3.4.3H6.5v.1c.4.3.9.6 1.5.6 1 0 1.8-.7 1.8-1.6l.3-.1c.2-.1.4-.3.3-.5 0-.3-.3-.4-.5-.3zM8 15.2c-.2 0-.4-.1-.6-.2l1.5-.4c-.1.3-.5.6-.9.6zM9.9 12l-3.8 1c-.2.1-.4.3-.3.5 0 .2.2.3.4.3h.1l3.8-1c.2-.1.4-.3.3-.5 0-.2-.3-.3-.5-.3zM8.1 2.1c.2 0 .4-.2.4-.4V.4c.1-.2-.1-.4-.4-.4-.2 0-.4.2-.4.4v1.3c0 .2.2.4.4.4zM13 1.9c-.2-.2-.4-.2-.6 0l-.9.9c-.2.2-.2.4 0 .6.1.1.2.1.3.1s.2 0 .3-.1l.9-.9c.2-.2.2-.5 0-.6zM14.8 6.7h-1.3c-.2 0-.4.2-.4.4s.2.4.4.4h1.3c.2 0 .4-.2.4-.4.1-.2-.1-.4-.4-.4zM12 10.7c-.2-.2-.4-.2-.6 0-.2.2-.2.4 0 .6l.9.9c.1.1.2.1.3.1s.2 0 .3-.1c.2-.2.2-.4 0-.6l-.9-.9zM4 3.4c.1.1.2.1.3.1.1 0 .2 0 .3-.1.2-.2.2-.4 0-.6l-.9-.9c-.2-.2-.4-.2-.6 0-.1.1-.1.4 0 .6l.9.9zM2.4 6.5H1.2c-.2 0-.4.2-.4.4s.2.4.4.4h1.3c.2 0 .4-.2.4-.4 0-.3-.2-.4-.5-.4zM3.9 10.7l-.9.9c-.2.2-.2.4 0 .6.1.1.2.1.3.1s.2 0 .3-.1l.9-.9c.2-.2.2-.4 0-.6-.2-.2-.5-.2-.6 0z"/><path d="M9.8 5.5c-.2-.1-.5 0-.6.2L7.8 8.1l-.8-1c-.2-.2-.4-.3-.6-.1-.2.1-.2.4-.1.6l1.2 1.6c.1.1.2.2.3.2.1 0 .3-.1.3-.2l1.8-3c.2-.3.1-.6-.1-.7z"/></symbol><symbol viewBox="0 0 16 16" id="eixo-operacao" xmlns="http://www.w3.org/2000/svg"><path d="M12.6 9.3c.8-1 1.2-2.2 1.2-3.5C13.8 2.6 11.2 0 8 0 4.8 0 2.2 2.6 2.2 5.8c0 1.3.4 2.5 1.2 3.5C1.5 10.8.3 13 .3 15.4c0 .3.3.6.6.6h14.3c.3 0 .6-.3.6-.6-.1-2.4-1.2-4.7-3.2-6.1zM8 1.1c2.6 0 4.6 2.1 4.6 4.6 0 1.2-.5 2.3-1.3 3.2-.9.9-2.1 1.5-3.4 1.5-1.3 0-2.5-.5-3.4-1.5-.7-.8-1.1-1.9-1.1-3.1 0-2.6 2-4.7 4.6-4.7zM1.5 14.9c.2-1.9 1.1-3.6 2.7-4.7.1 0 .1.1.2.1.1.1.2.2.3.2.1 0 .1.1.2.1.1.1.2.1.3.2.1 0 .1.1.2.1 0 .1.1.1.2.2.1 0 .1.1.2.1s.2.1.3.1c.1 0 .1.1.2.1s.2.1.3.1h.2c.1 0 .2 0 .4.1H8.8c.1 0 .3 0 .4-.1h.2c.1 0 .2-.1.3-.1.1 0 .1 0 .2-.1.1 0 .2-.1.3-.1.1 0 .1-.1.2-.1s.2-.1.3-.1c.1 0 .1-.1.2-.1.1-.1.2-.1.3-.2.1 0 .1-.1.2-.1.1-.1.2-.1.3-.2.1 0 .1-.1.2-.1 1.5 1.1 2.5 2.8 2.7 4.7H1.5z"/></symbol><symbol viewBox="0 0 16 16" id="favoritos-estrela" xmlns="http://www.w3.org/2000/svg"><path d="M9.4 6.8l3.1.4-2.2 2.2.5 3L8 11l-2.7 1.4.5-3-2.2-2.2 3.1-.4L8 4l1.4 2.8zM5.5 5.4L0 6.2l4 3.9-.9 5.5L8 13l4.9 2.6-.9-5.5 4-3.9-5.5-.8L8 .4l-2.5 5z"/></symbol><symbol viewBox="0 0 16 16" id="imagem-foto" xmlns="http://www.w3.org/2000/svg"><path d="M15.5 1.2H.5c-.3 0-.5.3-.5.5v12.5c0 .3.2.5.5.5h15c.3 0 .5-.2.5-.5V1.7c0-.2-.2-.5-.5-.5zM15 2.3V13l-4.1-4.4c-.1-.1-.2-.2-.4-.2-.1 0-.3.1-.4.2l-1.8 1.9L6 7.3c-.1-.1-.3-.2-.5-.2s-.3.1-.4.2L1 12.7V2.3h14zm-.7 11.4H1.6l4-5.3 2.3 3.1c.1.1.2.2.4.2s.3-.1.4-.2l1.8-1.9 3.8 4.1zm0 0"/><path d="M10.7 6.9c.9 0 1.7-.8 1.7-1.7 0-.9-.8-1.7-1.7-1.7-.9 0-1.7.7-1.7 1.7s.8 1.7 1.7 1.7zm0-2.4c.4 0 .7.3.7.7 0 .4-.3.7-.7.7-.4 0-.7-.3-.7-.7 0-.4.3-.7.7-.7zm0 0"/></symbol><symbol viewBox="0 0 16 16" id="indicador-dedo-biometria-clique" xmlns="http://www.w3.org/2000/svg"><path d="M4 5.6c.1 0 .2 0 .2-.1.2-.1.2-.4 0-.5-.4-.5-.6-1-.6-1.7C3.6 1.9 4.8.7 6.2.7c1.4 0 2.6 1.1 2.6 2.6 0 .4-.1.8-.3 1.1-.1.2 0 .4.2.5.2.1.4.1.5-.1.2-.5.3-.9.3-1.5C9.6 1.5 8.1 0 6.2 0 4.4 0 2.9 1.5 2.9 3.3c0 .8.3 1.5.8 2.1.1.1.2.2.3.2zm0 0"/><path d="M6.6 16c-.4 0-.8-.3-.8-.8l-.1-1.3c-.6-.8-1.9-3-1.5-4.3.1-.4.4-.8.9-1V3.7c0-.4.1-.7.4-1 .7-.7 2.3-.4 2.3 1V6c.6-.1 1.2.2 1.6.7.1-.1.3-.1.5-.1.6 0 1 .3 1.4.7.4 0 1.6.3 1.9 1.8.3 1.6-.1 3.3-1.1 4.8l-.2 1.3c-.1.4-.4.7-.8.7l-4.5.1zM6.3 3.3c-.1 0-.3 0-.3.1-.1.1-.1.2-.1.3v5c0 .3-.2.6-.5.8-.2 0-.3.1-.4.3-.2.8.5 2.4 1.4 3.6.1.1.1.3.1.4l.1 1.3 4.3-.1.1-1.3c0-.1.1-.2.1-.3.9-1.4 1.2-2.8 1-4.2-.1-.8-.7-1-1.1-1-.3 0-.5-.1-.6-.4-.2-.3-.5-.5-1-.3-.3.1-.7 0-.9-.3-.1-.3-.5-.4-.8-.3h-.1c-.4 0-.8-.4-.8-.9V3.7c0-.4-.4-.4-.5-.4z"/></symbol><symbol viewBox="0 0 16 16" id="ir-refazer" xmlns="http://www.w3.org/2000/svg"><path d="M.1 12c1.2-2.6 3.7-6.1 8.4-6.6.6-.1 1-.5 1-1.1V2.6c0-.3.2-.5.5-.5.1 0 .2 0 .3.1L15.6 7c.3.3.4.6.4.9 0 .3-.1.5-.3.7l-5.4 5.1c-.1.1-.2.1-.3.1-.3 0-.5-.2-.5-.5v-2c0-.6-.5-1.1-1.1-1.1-3 .1-5.5.5-7.5 2.3 0 0-.2.2-.4.2-.3 0-.5-.2-.5-.5 0-.1 0-.2.1-.2z"/></symbol><symbol viewBox="0 0 16 16" id="lapis-editar" xmlns="http://www.w3.org/2000/svg"><path fill-rule="evenodd" clip-rule="evenodd" d="M2.8 11.1l10-10-.4-.4c-.2-.2-.4-.2-.6-.2-.2 0-.4.1-.6.2L2.1 9.8l.7 1.3zm10.3-9.8l-10 10 2.2.9 9.4-9.4-1.6-1.5zM15 3.2l-9.4 9.4.7 1.2 9-9c.2-.2.2-.4.2-.6 0-.2-.1-.4-.2-.6l-.3-.4zm-8.5 11c-.1.1-.1.1 0 0-.1.1-.1.1-.2.1L.9 16H.5c-.1 0-.2-.1-.3-.2-.1-.1-.2-.2-.2-.3v-.4l1.6-5.4s0-.1.1-.1L10.9.4c.3-.3.6-.4.9-.4.3 0 .6.1.9.4l.5.5 1.9 1.9.5.5c.3.2.4.6.4.9 0 .3-.1.6-.4.9l-9.1 9.1zM6 14l-2.8.9-.5-1.1c0-.1-.1-.1-.2-.1l-1.1-.1-.3-.6.8-2.7.5 1c0 .1.1.2.2.2.1.1.1.1.2.1l2.3 1s.1 0 .1.1l.1.1L6 14zm-5.1-.4l-.5 1.6v.2c0 .1 0 .1.1.1l.1.1h.2l1.9-.6-.4-.9-1-.1c-.1 0-.2 0-.2-.1l-.2-.3z"/></symbol><symbol viewBox="0 0 16 16" id="lixo" xmlns="http://www.w3.org/2000/svg"><path d="M10.2 13.4V7.1c0-.2.2-.4.4-.4s.4.2.4.4v6.3c0 .2-.2.4-.4.4-.2-.1-.4-.2-.4-.4zm-2.6 0V7.1c0-.2.2-.4.4-.4s.4.2.4.4v6.3c0 .2-.2.4-.4.4-.2-.1-.4-.2-.4-.4zm-2.5 0V7.1c0-.2.2-.4.4-.4s.4.2.4.4v6.3c0 .2-.2.4-.4.4-.2-.1-.4-.2-.4-.4zM13.3 4c0 .1-.1.2-.2.2H2.9c-.2 0-.3-.1-.3-.2V3c0-.1.1-.2.2-.2H13c.1 0 .2.1.2.2v1zm-.8 10.7c0 .3-.2.6-.5.6H4c-.3 0-.6-.2-.6-.6V5h9l.1 9.7zM8 .7c.8 0 1.4.5 1.6 1.3H6.4C6.6 1.3 7.2.7 8 .7zM13.1 2h-2.8C10.1.9 9.1 0 8 0 6.8 0 5.8.9 5.7 2H2.9c-.5 0-1 .4-1 1v1c0 .5.4.9.8 1v9.7c0 .7.6 1.3 1.3 1.3h8c.7 0 1.3-.6 1.3-1.3V5c.5-.1.8-.5.8-1V3c0-.5-.5-1-1-1z"/></symbol><symbol viewBox="0 0 16 16" id="localizacao-mapa" xmlns="http://www.w3.org/2000/svg"><path d="M14 6.2C14.1 2.9 11.5.1 8.2 0 4.9-.1 2.1 2.5 2 5.8v.4c0 .4 0 .9.1 1.3C2.8 10.8 8 16 8 16s5.1-5.2 5.8-8.4c.1-.5.2-.9.2-1.4zM8 2.8c1.9-.1 3.4 1.4 3.5 3.3.1 1.9-1.4 3.4-3.3 3.5-1.9 0-3.4-1.4-3.5-3.3v-.1c0-1.8 1.4-3.3 3.3-3.4z"/></symbol><symbol viewBox="0 357.6 612 84.6" id="logo-full" xmlns="http://www.w3.org/2000/svg"><title>Logo GissOnline</title><path fill="#004F9F" d="M37.4 424.4v17.8h31v-66.9zM0 442.2h31v-49.1z"/><path fill="#0093D4" d="M74.7 406.6v35.5h31.1v-84.5z"/><path fill="#004F9F" d="M181.6 432.7c-6.4 6.6-14.1 9.5-23.5 9.5-8.9 0-16.4-3.1-22.4-9.1-3.4-3.4-5.8-7.8-6.8-12.5s-1.4-11.6-1.4-20.7.4-16 1.4-20.7c.9-4.8 3.3-9.1 6.8-12.5 6.1-6.1 13.5-9.1 22.4-9.1 18.9 0 29.1 12.2 31.3 26.6H173c-2-8.1-6.9-12.2-14.9-12.2-4.3 0-7.8 1.5-10.4 4.4-3.1 3.9-4 6.9-4 23.4 0 16.4.7 19.7 4 23.5 2.5 2.9 6 4.3 10.4 4.3 4.8 0 8.7-1.5 11.6-4.6 2.5-2.8 3.7-6.6 3.7-11.1v-3.1h-15.3v-13.5h31.5v12.2c-.1 12-2.2 19.1-8 25.2zM196.6 441.4v-45.6h15.3v45.6h-15.3zm0-53.2v-7.6h15.3v7.6h-15.3zM241.8 442.2c-9.6 0-18.3-1-26.1-8.7l10-9.9c5.1 5 11.7 5.8 16.4 5.8 5.3 0 10.8-1.7 10.8-6.3 0-3.1-1.6-5.2-6.4-5.6l-9.7-1c-11.1-1-17.9-5.8-17.9-17 0-12.6 11.1-19.4 23.6-19.4 9.5 0 17.5 1.6 23.4 7.1l-9.4 9.5c-3.5-3.1-8.9-4.1-14.2-4.1-6.1 0-8.7 2.8-8.7 5.8 0 2.2 1 4.8 6.4 5.2l9.6 1c12.1 1.2 18.2 7.6 18.2 17.9 0 13.3-11.5 19.7-26 19.7zm55.9 0c-9.6 0-18.3-1-26.1-8.7l10-9.9c5.1 5 11.7 5.8 16.4 5.8 5.3 0 10.8-1.7 10.8-6.3 0-3.1-1.6-5.2-6.4-5.6l-9.7-1c-11.1-1-17.9-5.8-17.9-17 0-12.6 11.1-19.4 23.6-19.4 9.5 0 17.5 1.6 23.4 7.1l-9.4 9.5c-3.5-3.1-8.9-4.1-14.2-4.1-6.1 0-8.7 2.8-8.7 5.8 0 2.2 1 4.8 6.4 5.2l9.6 1c12.1 1.2 18.2 7.6 18.2 17.9 0 13.3-11.5 19.7-26 19.7z"/><path fill="#0093D4" d="M479 441.4v-45.6h15.3v45.6H479zm0-53.2v-7.6h15.3v7.6H479zm-95.1 44.9c-5.8 5.8-12.9 9.1-22.4 9.1s-16.7-3.3-22.6-9.1c-8.4-8.4-8.1-18.8-8.1-33.2 0-14.4-.2-24.7 8.1-33.2 5.8-5.8 13.1-9.1 22.6-9.1s16.6 3.3 22.4 9.1c8.4 8.4 8.3 18.8 8.3 33.2 0 14.3.1 24.7-8.3 33.2zm-12.1-56.6c-2.7-2.9-6.4-4.6-10.4-4.4-4-.1-7.8 1.5-10.5 4.4-3.1 3.5-4 7.4-4 23.4s.8 19.9 4 23.4c2.7 2.9 6.6 4.6 10.5 4.4 4 .1 7.7-1.5 10.4-4.4 3.1-3.5 4.1-7.3 4.1-23.4s-.9-19.9-4.1-23.4zm62.8 64.9v-36.8c0-8.3-5.2-11.1-10-11.1s-10.2 2.8-10.2 11.1v36.8h-15.2v-61h14.9v5.6c4-4.1 9.5-6.4 15.2-6.3 6.1 0 11 2 14.4 5.4 4.9 4.9 6.2 10.6 6.2 17.3v38.9l-15.3.1zm22.2 0v-83.2H472v83.2h-15.2zm79.9 0v-36.8c0-8.3-5.2-11.1-10-11.1s-10.2 2.8-10.2 11.1v36.8h-15.2v-61h14.9v5.6c4-4.1 9.5-6.4 15.2-6.3 6.1 0 11 2 14.4 5.4 4.9 4.9 6.2 10.6 6.2 17.3v38.9l-15.3.1zm37.2-25.7c0 7.8 4.8 13.5 13.3 13.5 6.7 0 9.9-1.9 13.8-5.8l9.3 9c-6.2 6.2-12.2 9.6-23.2 9.6-14.4 0-28.2-6.6-28.2-31.2 0-19.9 10.8-31.1 26.5-31.1 17 0 26.5 12.4 26.5 29.1v6.8l-38 .1zm21.7-16.9c-1.6-3.6-5-6.3-10.2-6.3s-8.5 2.7-10.2 6.3c-.9 2.1-1.4 4.3-1.4 6.6H597c.1-2.3-.5-4.5-1.4-6.6z"/></symbol><symbol viewBox="0 357.6 612 84.6" id="logo-icon" xmlns="http://www.w3.org/2000/svg"><title>Logo GissOnline</title><path fill="#004F9F" d="M37.4 424.4v17.8h31v-66.9zM0 442.2h31v-49.1z"/><path fill="#0093D4" d="M74.7 406.6v35.5h31.1v-84.5z"/></symbol><symbol viewBox="0 357.6 612 84.6" id="logo-name" xmlns="http://www.w3.org/2000/svg"><title>Logo GissOnline</title><path fill="#004F9F" d="M181.6 432.7c-6.4 6.6-14.1 9.5-23.5 9.5-8.9 0-16.4-3.1-22.4-9.1-3.4-3.4-5.8-7.8-6.8-12.5s-1.4-11.6-1.4-20.7.4-16 1.4-20.7c.9-4.8 3.3-9.1 6.8-12.5 6.1-6.1 13.5-9.1 22.4-9.1 18.9 0 29.1 12.2 31.3 26.6H173c-2-8.1-6.9-12.2-14.9-12.2-4.3 0-7.8 1.5-10.4 4.4-3.1 3.9-4 6.9-4 23.4 0 16.4.7 19.7 4 23.5 2.5 2.9 6 4.3 10.4 4.3 4.8 0 8.7-1.5 11.6-4.6 2.5-2.8 3.7-6.6 3.7-11.1v-3.1h-15.3v-13.5h31.5v12.2c-.1 12-2.2 19.1-8 25.2zM196.6 441.4v-45.6h15.3v45.6h-15.3zm0-53.2v-7.6h15.3v7.6h-15.3zM241.8 442.2c-9.6 0-18.3-1-26.1-8.7l10-9.9c5.1 5 11.7 5.8 16.4 5.8 5.3 0 10.8-1.7 10.8-6.3 0-3.1-1.6-5.2-6.4-5.6l-9.7-1c-11.1-1-17.9-5.8-17.9-17 0-12.6 11.1-19.4 23.6-19.4 9.5 0 17.5 1.6 23.4 7.1l-9.4 9.5c-3.5-3.1-8.9-4.1-14.2-4.1-6.1 0-8.7 2.8-8.7 5.8 0 2.2 1 4.8 6.4 5.2l9.6 1c12.1 1.2 18.2 7.6 18.2 17.9 0 13.3-11.5 19.7-26 19.7zm55.9 0c-9.6 0-18.3-1-26.1-8.7l10-9.9c5.1 5 11.7 5.8 16.4 5.8 5.3 0 10.8-1.7 10.8-6.3 0-3.1-1.6-5.2-6.4-5.6l-9.7-1c-11.1-1-17.9-5.8-17.9-17 0-12.6 11.1-19.4 23.6-19.4 9.5 0 17.5 1.6 23.4 7.1l-9.4 9.5c-3.5-3.1-8.9-4.1-14.2-4.1-6.1 0-8.7 2.8-8.7 5.8 0 2.2 1 4.8 6.4 5.2l9.6 1c12.1 1.2 18.2 7.6 18.2 17.9 0 13.3-11.5 19.7-26 19.7z"/><path fill="#0093D4" d="M479 441.4v-45.6h15.3v45.6H479zm0-53.2v-7.6h15.3v7.6H479zm-95.1 44.9c-5.8 5.8-12.9 9.1-22.4 9.1s-16.7-3.3-22.6-9.1c-8.4-8.4-8.1-18.8-8.1-33.2 0-14.4-.2-24.7 8.1-33.2 5.8-5.8 13.1-9.1 22.6-9.1s16.6 3.3 22.4 9.1c8.4 8.4 8.3 18.8 8.3 33.2 0 14.3.1 24.7-8.3 33.2zm-12.1-56.6c-2.7-2.9-6.4-4.6-10.4-4.4-4-.1-7.8 1.5-10.5 4.4-3.1 3.5-4 7.4-4 23.4s.8 19.9 4 23.4c2.7 2.9 6.6 4.6 10.5 4.4 4 .1 7.7-1.5 10.4-4.4 3.1-3.5 4.1-7.3 4.1-23.4s-.9-19.9-4.1-23.4zm62.8 64.9v-36.8c0-8.3-5.2-11.1-10-11.1s-10.2 2.8-10.2 11.1v36.8h-15.2v-61h14.9v5.6c4-4.1 9.5-6.4 15.2-6.3 6.1 0 11 2 14.4 5.4 4.9 4.9 6.2 10.6 6.2 17.3v38.9l-15.3.1zm22.2 0v-83.2H472v83.2h-15.2zm79.9 0v-36.8c0-8.3-5.2-11.1-10-11.1s-10.2 2.8-10.2 11.1v36.8h-15.2v-61h14.9v5.6c4-4.1 9.5-6.4 15.2-6.3 6.1 0 11 2 14.4 5.4 4.9 4.9 6.2 10.6 6.2 17.3v38.9l-15.3.1zm37.2-25.7c0 7.8 4.8 13.5 13.3 13.5 6.7 0 9.9-1.9 13.8-5.8l9.3 9c-6.2 6.2-12.2 9.6-23.2 9.6-14.4 0-28.2-6.6-28.2-31.2 0-19.9 10.8-31.1 26.5-31.1 17 0 26.5 12.4 26.5 29.1v6.8l-38 .1zm21.7-16.9c-1.6-3.6-5-6.3-10.2-6.3s-8.5 2.7-10.2 6.3c-.9 2.1-1.4 4.3-1.4 6.6H597c.1-2.3-.5-4.5-1.4-6.6z"/></symbol><symbol viewBox="0 0 16 16" id="lupa-zoom-buscar-pesquisa" xmlns="http://www.w3.org/2000/svg"><path fill-rule="evenodd" clip-rule="evenodd" d="M12.3 10.2l3.4 3.4c.2.2.3.5.3.9 0 .3-.1.6-.4.9l-.4.4c-.2.1-.5.2-.8.2-.3 0-.6-.1-.9-.4l-3.4-3.3c-1 .6-2.2 1-3.5 1-1.8 0-3.5-.7-4.7-2C.7 10.2 0 8.5 0 6.7 0 4.9.7 3.2 1.9 2 3.2.7 4.8 0 6.7 0c1.8 0 3.5.7 4.7 1.9 1.2 1.2 2 2.9 2 4.7-.1 1.4-.5 2.6-1.1 3.6zM8.6 2.1c.6.3 1.2.6 1.6 1.1.5.5.8 1 1.1 1.6.2.6.4 1.2.4 1.9s-.1 1.3-.4 1.9c-.3.6-.6 1.2-1.1 1.6-.5.5-1 .8-1.6 1.1-.6.2-1.2.4-1.9.4s-1.3-.1-1.9-.4c-.6-.3-1.2-.6-1.6-1.1-.5-.5-.8-1-1.1-1.6-.3-.6-.4-1.3-.4-1.9 0-.7.1-1.3.4-1.9.3-.6.6-1.2 1.1-1.6.5-.5 1-.8 1.6-1.1.5-.3 1.2-.4 1.9-.4.6 0 1.3.1 1.9.4z"/></symbol><symbol viewBox="0 0 16 16" id="mail-carta-envelope-mensagem" xmlns="http://www.w3.org/2000/svg"><path d="M15.6 3c-.3-.3-.6-.4-1-.4H1.4c-.4 0-.7.2-1 .4-.3.3-.4.7-.4 1v8c0 .4.1.7.4 1h.1c.3.2.6.4.9.4h13.2c.4 0 .7-.1 1-.4.3-.3.4-.6.4-1V4c0-.3-.1-.7-.4-1zM8.1 9.8c-.1.1-.2.1-.3 0l-6.7-5V4c0-.1 0-.1.1-.2 0 0 .1-.1.2-.1h13.2c.1 0 .1 0 .2.1 0 0 .1.1.1.2v.7L8.1 9.8zM4.2 8.5l-3 2.3V6.2l3 2.3zm1 .7l2 1.5c.5.4 1.2.4 1.7 0l2-1.5 3.9 2.9H1.4l3.8-2.9zm9.6-3v4.6l-3-2.3 3-2.3z"/></symbol><symbol viewBox="0 0 16 16" id="mais-adicionar-+" xmlns="http://www.w3.org/2000/svg"><path d="M14.6 6.6H9.4V1.4C9.4.6 8.8 0 8 0c-.8 0-1.4.6-1.4 1.4v5.1H1.4C.6 6.6 0 7.2 0 8s.6 1.4 1.4 1.4h5.1v5.1c.1.9.7 1.5 1.5 1.5s1.4-.6 1.4-1.4V9.4h5.1c.9 0 1.5-.6 1.5-1.4 0-.8-.6-1.4-1.4-1.4z"/></symbol><symbol viewBox="0 0 16 16" id="mais-adicionar-+-2" xmlns="http://www.w3.org/2000/svg"><path d="M11.4 7.2H8.8V4.6c0-.4-.3-.8-.8-.8s-.8.4-.8.8v2.7H4.6c-.4-.1-.8.3-.8.7s.3.8.8.8h2.7v2.7c0 .4.3.8.8.8s.8-.3.8-.8V8.8h2.7c.4 0 .8-.3.8-.8s-.6-.8-1-.8z"/><path d="M13.2 0H2.8C1.3 0 0 1.3 0 2.8v10.4C0 14.7 1.3 16 2.8 16h10.4c1.6 0 2.8-1.3 2.8-2.8V2.8C16 1.3 14.7 0 13.2 0zm1.3 13.2c0 .7-.6 1.3-1.3 1.3H2.8c-.7 0-1.3-.6-1.3-1.3V2.8c0-.7.6-1.3 1.3-1.3h10.4c.7 0 1.3.6 1.3 1.3v10.4z"/></symbol><symbol viewBox="0 0 16 16" id="manutencao" xmlns="http://www.w3.org/2000/svg"><path d="M11.6 7.9l.2-.3L15.4 4l.6-.5-.6-.6L13.3.8l-.6-.6-.7.5-3.5 3.6-.3.3V5c0 .1-.1.3-.3.5l-.3-.3c.2-1.2-.2-2.4-1.1-3.3C5.8 1.2 4.9.8 3.8.8c-.3 0-.7 0-1 .1l-1.4.4 1.1 1.1 1.3 1.3-.2.7-.7.2-1.3-1.4-1.1-1-.4 1.4c-.4 1.3 0 2.7 1 3.7.7.7 1.7 1.1 2.7 1.1.2 0 .4 0 .7-.1l.7.7-1.8 1.8-1.6 1-1.6 2.8 1.2 1.2 2.8-1.6 1-1.6L7 10.9l4.1 4.1c.4.4 1 .7 1.6.7.6 0 1.2-.2 1.6-.7.4-.4.7-1 .7-1.6 0-.6-.2-1.2-.7-1.6l-3.6-3.6c.2-.1.5-.2.6-.3h.3zM4 12.7l.1.1-.5.8-2 1.1-.3-.3 1.1-2 .8-.4.1.1 2.4-2.4.6.6L4 12.7zm9.7 1.7c-.3.3-.6.4-1 .4s-.7-.1-1-.4L4.8 7.5c-.3.1-.7.1-1 .1-.8 0-1.5-.3-2.1-.9C1 6 .7 4.9 1 3.9l1.7 1.7 1.6-.4.4-1.6-1.6-1.8c.3-.1.5-.1.8-.1.8 0 1.5.3 2.1.9.8.8 1 1.9.8 2.9l.8.8 6.2 6.2c.4.4.4 1.3-.1 1.9zM10 7.5L8.6 6.1c.2-.3.5-.9.5-1.2l3.6-3.6 2.1 2.1L11.2 7h-.1c-.3 0-.8.3-1.1.5z"/><circle cx="12.8" cy="13.6" r=".5"/></symbol><symbol viewBox="0 0 16 16" id="mao-biometria-dedos" xmlns="http://www.w3.org/2000/svg"><path d="M9.5 16c-2.3 0-3.9-.8-4.9-2.4-.8-1.2-2.7-4.1-2.7-4.1-.3-.4-.3-.8-.3-1.2.1-.4.4-.7.7-.9.7-.5 1.6-.2 2.1.5l.4.6v-6c0-.7.6-1.3 1.3-1.3.4 0 .8.2 1 .5v-.4C7.1.6 7.7 0 8.4 0c.7 0 1.2.5 1.3 1.1.2-.3.6-.5 1.1-.5.7 0 1.3.6 1.3 1.3v1c.2-.3.6-.5 1-.5.7 0 1.3.6 1.3 1.3v7.9c0 .6-.2 4.4-4.9 4.4zM2.6 9s1.9 2.9 2.7 4.1c.9 1.4 2.2 2 4.2 2 3.7 0 4-2.8 4-3.7V3.6c0-.3-.2-.5-.5-.5s-.5.2-.5.5v3.8c0 .4-.3.7-.7.7-.4 0-.7-.3-.7-.7V1.9c0-.3-.2-.5-.5-.5s-.5.2-.5.5v5c0 .4-.3.7-.7.7-.4 0-.7-.3-.7-.7V1.3c0-.3-.2-.5-.5-.5 0 0-.2.2-.2.5v5.5c0 .4-.3.7-.7.7-.4 0-.7-.3-.7-.7V2.5c0-.3-.3-.5-.5-.5s-.5.2-.5.5v7.3c0 .2-.1.3-.3.4-.2.1-.4 0-.5-.2L3.7 8.4c-.2-.4-.7-.5-1-.3-.1.1-.2.2-.2.4-.1.1 0 .4.1.5z"/></symbol><symbol viewBox="0 0 16 16" id="menos-remover--" xmlns="http://www.w3.org/2000/svg"><path d="M14.6 9.4H1.4C.6 9.4 0 8.8 0 8s.6-1.4 1.4-1.4h13.1c.9 0 1.5.6 1.5 1.4s-.6 1.4-1.4 1.4z"/></symbol><symbol viewBox="0 0 16 16" id="menos-remover--2" xmlns="http://www.w3.org/2000/svg"><path d="M11.4 8.8H4.6c-.4 0-.8-.4-.8-.8s.3-.8.8-.8h6.9c.4 0 .8.3.8.8s-.5.8-.9.8z"/><path d="M13.2 1.5c.7 0 1.3.6 1.3 1.3v10.4c0 .7-.6 1.3-1.3 1.3H2.8c-.7 0-1.3-.6-1.3-1.3V2.8c0-.7.6-1.3 1.3-1.3h10.4m0-1.5H2.8C1.3 0 0 1.3 0 2.8v10.4C0 14.7 1.3 16 2.8 16h10.4c1.6 0 2.8-1.3 2.8-2.8V2.8C16 1.3 14.7 0 13.2 0z"/></symbol><symbol viewBox="0 0 16 16" id="menu-botoes" xmlns="http://www.w3.org/2000/svg"><path fill="#505050" d="M8 3l1.6-1.6c.3-.3.3-.8 0-1.2-.3-.3-.8-.3-1.2 0l-3.1 3c0 .2-.1.4-.1.6s.1.4.2.6l3.1 3c.2.2.4.2.6.2.2 0 .4-.1.6-.2.3-.3.3-.8 0-1.2L8.1 4.7c2.6 0 4.8 2.2 4.8 4.8 0 2.7-2.2 4.8-4.8 4.8s-4.8-2.2-4.8-4.8c0-.8.2-1.6.6-2.3.1-.4-.1-.9-.5-1.1-.4-.3-.9-.1-1.1.3-.5 1-.8 2-.8 3.1C1.5 13.1 4.4 16 8 16s6.5-2.9 6.5-6.5S11.6 3 8 3z"/></symbol><symbol viewBox="0 0 16 16" id="menu-eixos" xmlns="http://www.w3.org/2000/svg"><path d="M0 12.1h3.9V16H0zM0 6.1h3.9V10H0zM0 0h3.9v3.9H0zM6.1 12.1H10V16H6.1zM6.1 6.1H10V10H6.1zM6.1 0H10v3.9H6.1zM12.1 12.1H16V16h-3.9zM12.1 6.1H16V10h-3.9zM12.1 0H16v3.9h-3.9z"/></symbol><symbol viewBox="0 0 16 16" id="nuvem-carregar" xmlns="http://www.w3.org/2000/svg"><path d="M12.7 12.9H9.1v-3h.8L8 7.6 6.2 9.9H7V13H3.4c-.9 0-1.7-.3-2.3-1s-1-1.5-1-2.3c0-.8.3-1.6.8-2.2.4-.5.9-.8 1.5-1 .2-.9.6-1.7 1.3-2.3.8-.7 1.8-1.1 2.9-1.1.7 0 1.4.2 2 .5.5.3.9.6 1.3 1 .8-.1 1.7.1 2.4.6.5.3.8.8 1.1 1.2.7.2 1.3.5 1.7 1 .6.6.9 1.4.9 2.2 0 .9-.3 1.7-1 2.3-.6.7-1.4 1-2.3 1zm-2.6-1h2.6c.6 0 1.2-.2 1.6-.7.4-.4.7-1 .7-1.6 0-.6-.2-1.1-.6-1.5-.4-.4-.9-.7-1.4-.7h-.3l-.1-.4c-.2-.4-.4-.8-.8-1.1-.5-.3-1.1-.5-1.7-.4h-.2l-.3.2-.2-.3c-.3-.4-.7-.7-1.2-1-.5-.3-1-.4-1.6-.4-.8.1-1.6.4-2.2.9-.6.5-1 1.3-1.1 2l-.1.4-.3.1c-.5.1-1 .4-1.3.8-.4.3-.6.9-.6 1.4 0 .6.2 1.2.7 1.6.4.4 1 .7 1.6.7h2.6v-1.1h-.6c-.3 0-.6-.3-.6-.6V10l.1-.2 2.7-3.3s.2-.2.4-.2.4.2.4.2L11 9.8c.2.3.1.7-.1.9l-.2.1H10v1.1z"/></symbol><symbol viewBox="0 0 16 16" id="pasta" xmlns="http://www.w3.org/2000/svg"><path d="M15.9 6.4c-.1-.2-.3-.3-.5-.3h-2.2V4.7c0-.3-.2-.5-.5-.5H8.3v-1c0-.3-.2-.5-.5-.5H.5c-.3-.1-.5.2-.5.5v9.6c0 .3.2.5.5.5h12.1c.2 0 .4-.1.5-.3L16 6.9c0-.1 0-.3-.1-.5zM1.4 12.3l2.3-5h10.9l-2.3 5H1.4zm1.9-6.1c-.2 0-.4.1-.5.3l-1.7 3.8V3.7h6.1v.9c0 .3.2.5.5.5h4.4v1H3.3zm0 0"/></symbol><symbol viewBox="0 0 16 16" id="pessoa-cidadao" xmlns="http://www.w3.org/2000/svg"><path d="M10.2 6.1l-.3 3.7c-.6.1-1.1.5-1.2 1.1L8.4 15h-.8s-.3-4-.3-4.1c-.1-.6-.6-1.1-1.2-1.2l-.3-3.6h4.4m.1-1H5.7c-.5 0-.9.5-.9 1l.3 4.1c0 .3.3.5.6.5h.2c.2 0 .3.2.4.4l.3 4.4c0 .3.3.5.6.5h1.6c.3 0 .5-.2.6-.5l.3-4.4c0-.2.2-.4.4-.4h.2c.3 0 .5-.2.6-.5l.3-4.1c0-.5-.4-1-.9-1zM7.9 1c.7 0 1.2.5 1.2 1.2s-.6 1.2-1.2 1.2-1.2-.6-1.2-1.2S7.2 1 7.9 1m0-1C6.7 0 5.7 1 5.7 2.2s1 2.2 2.2 2.2c1.2 0 2.2-1 2.2-2.2S9.1 0 7.9 0z"/></symbol><symbol viewBox="0 0 16 16" id="pin-mapa" xmlns="http://www.w3.org/2000/svg"><path d="M14 6.2C14.1 2.9 11.5.1 8.2 0 4.9-.1 2.1 2.5 2 5.8v.4c0 .4 0 .9.1 1.3C2.8 10.8 8 16 8 16s5.1-5.2 5.8-8.4c.1-.5.2-.9.2-1.4zM8 2.8c1.9-.1 3.4 1.4 3.5 3.3.1 1.9-1.4 3.4-3.3 3.5-1.9 0-3.4-1.4-3.5-3.3v-.1c0-1.8 1.4-3.3 3.3-3.4z"/></symbol><symbol viewBox="0 0 16 16" id="raio-energia" xmlns="http://www.w3.org/2000/svg"><path d="M12.3 8.1L8.5.1C8.4 0 8.4 0 8.3 0s-.2.1-.2.2l.7 5.5c0 .4-.3.7-.7.7H4.5c-.5.1-.9.5-.9 1.1 0 .2 0 .3.1.5l3.8 8h.2c.1 0 .2-.1.2-.2l-.7-5.5c0-.4.3-.7.7-.7h3.5c.5-.1.9-.5.9-1 .1-.2.1-.3 0-.5z"/></symbol><symbol viewBox="0 0 16 16" id="recarregar-atualizar" xmlns="http://www.w3.org/2000/svg"><path d="M8 3l1.6-1.6c.3-.3.3-.8 0-1.2-.3-.3-.8-.3-1.2 0l-3.1 3c0 .2-.1.4-.1.6s.1.4.2.6l3.1 3c.2.2.4.2.6.2.2 0 .4-.1.6-.2.3-.3.3-.8 0-1.2L8.1 4.7c2.6 0 4.8 2.2 4.8 4.8 0 2.7-2.2 4.8-4.8 4.8s-4.8-2.2-4.8-4.8c0-.8.2-1.6.6-2.3.1-.4-.1-.9-.5-1.1-.4-.3-.9-.1-1.1.3-.5 1-.8 2-.8 3.1C1.5 13.1 4.4 16 8 16s6.5-2.9 6.5-6.5S11.6 3 8 3z"/></symbol><symbol viewBox="0 0 16 16" id="relogio-horario-tempo" xmlns="http://www.w3.org/2000/svg"><path d="M12.6 8.3c0 .4-.2.7-.6.7H7.3c-.2 0-.3-.2-.3-.3v-3c0-.4.3-.7.6-.7.4 0 .7.3.7.6v1.7c0 .2.2.3.3.3H12c.4.1.6.4.6.7zM8 0c4.4 0 8 3.6 8 8s-3.6 8-8 8-8-3.6-8-8 3.6-8 8-8zm5.9 8c0-3.3-2.7-5.9-5.9-5.9-3.3 0-5.9 2.6-5.9 5.9 0 3.3 2.6 5.9 5.9 5.9 3.3 0 5.9-2.6 5.9-5.9z"/></symbol><symbol viewBox="0 0 16 16" id="repetir" xmlns="http://www.w3.org/2000/svg"><path d="M2.2 8.8c-.1 0-.1-.1 0 0 0-.3-.1-.4-.1-.6 0-1.7 1.4-3.1 3.1-3.1h4.3c.2 0 .4.2.4.5v1.1c0 .1.1.3.3.3h.2l3.1-2.3h.1c.1-.1.2-.2.2-.4s-.1-.3-.2-.4l-3.2-2.4h-.1c-.1 0-.3.1-.3.3v1.1c-.1-.1-.3.1-.5.1H5.3C2.4 3 0 5.3 0 8.2c0 .3 0 .6.1.8v.1c.1.5.5.8 1 .8.6 0 1-.5 1.1-1v-.1zM15.9 7v-.1c-.1-.6-.7-.9-1.3-.8-.1 0-.3.1-.4.2-.3.2-.4.5-.4.8v.7c0 1.7-1.4 3.1-3.2 3.1H6.7h-.1-.1c-.2 0-.4-.2-.4-.5v-1c0-.2-.1-.3-.3-.3h-.2l-3.2 2.3h-.1c-.1.1-.2.2-.2.4s.1.3.2.4l3.2 2.4h.1c.1 0 .3-.1.3-.3v-1-.1c0-.3.2-.5.5-.5h4.1c2.9 0 5.2-2.3 5.3-5.2.2 0 .2-.3.1-.5z"/></symbol><symbol viewBox="0 0 16 16" id="salvar-gravar-disquete" xmlns="http://www.w3.org/2000/svg"><path d="M10.5 0H8v4.9h2.5V0z"/><path d="M3 1v6.3h10v-5l2 2v10.4c0 .2-.1.3-.3.3H1.3c-.2 0-.3-.1-.3-.3V1h2m9.1-1H12v6.3H4V0H0v14.7c0 .7.6 1.3 1.3 1.3h13.4c.7 0 1.3-.6 1.3-1.3V3.9L12.1 0z"/></symbol><symbol viewBox="0 0 16 16" id="seta-baixo-desce" xmlns="http://www.w3.org/2000/svg"><path d="M9 12.3l6.6-6.6c.6-.6.6-1.5 0-2s-1.5-.6-2 0L8 9.3 2.5 3.7c-.6-.6-1.5-.6-2 0s-.6 1.5 0 2L7 12.3c.3.3.6.4 1 .4s.7-.1 1-.4z"/></symbol><symbol viewBox="0 0 16 16" id="seta-baixo-desce-2" xmlns="http://www.w3.org/2000/svg"><path d="M8.5 10.2L12 6.8c.3-.3.3-.8 0-1.1s-.8-.3-1.1 0L8 8.7 5.1 5.8c-.3-.3-.8-.3-1.1 0s-.3.7 0 1l3.4 3.4c.1.1.3.2.5.2.3.1.5 0 .6-.2z"/><path d="M16 13.2V2.8C16 1.3 14.7 0 13.2 0H2.8C1.3 0 0 1.3 0 2.8v10.4C0 14.7 1.3 16 2.8 16h10.4c1.5 0 2.8-1.3 2.8-2.8zM2.8 14.5c-.7 0-1.3-.6-1.3-1.3V2.8c0-.7.6-1.3 1.3-1.3h10.4c.7 0 1.3.6 1.3 1.3v10.4c0 .7-.6 1.3-1.3 1.3H2.8z"/></symbol><symbol viewBox="0 0 16 16" id="seta-cima-sobe" xmlns="http://www.w3.org/2000/svg"><path d="M7 3.7L.4 10.3c-.6.6-.6 1.5 0 2s1.5.6 2 0L8 6.7l5.5 5.5c.6.6 1.5.6 2 0s.6-1.5 0-2L9 3.7c-.3-.3-.6-.4-1-.4s-.7.1-1 .4z"/></symbol><symbol viewBox="0 0 16 16" id="seta-cima-sobe-2" xmlns="http://www.w3.org/2000/svg"><path d="M7.5 5.8L4 9.2c-.3.3-.3.8 0 1s.8.3 1.1 0L8 7.3l2.9 2.9c.3.3.8.3 1.1 0s.3-.8 0-1.1L8.5 5.8c-.1-.2-.3-.3-.5-.3s-.4.1-.5.3z"/><path d="M0 2.8v10.4C0 14.7 1.3 16 2.8 16h10.4c1.6 0 2.8-1.3 2.8-2.8V2.8C16 1.3 14.7 0 13.2 0H2.8C1.3 0 0 1.3 0 2.8zm13.2-1.3c.7 0 1.3.6 1.3 1.3v10.4c0 .7-.6 1.3-1.3 1.3H2.8c-.7 0-1.3-.6-1.3-1.3V2.8c0-.7.6-1.3 1.3-1.3h10.4z"/></symbol><symbol viewBox="0 0 16 16" id="seta-direita-anterior-voltar" xmlns="http://www.w3.org/2000/svg"><path d="M3.7 9l6.6 6.6c.6.6 1.5.6 2 0s.6-1.5 0-2L6.7 8l5.5-5.5c.6-.6.6-1.5 0-2s-1.5-.6-2 0L3.7 7c-.3.3-.4.6-.4 1s.1.7.4 1z"/></symbol><symbol viewBox="0 0 16 16" id="seta-direita-anterior-voltar-2" xmlns="http://www.w3.org/2000/svg"><path d="M5.8 8.5L9.2 12c.3.3.8.3 1.1 0s.3-.8 0-1.1L7.3 8l2.9-2.9c.3-.3.3-.8 0-1.1s-.7-.3-1 0L5.8 7.5c-.2.1-.3.3-.3.5s.1.4.3.5z"/><path d="M2.8 16h10.4c1.6 0 2.8-1.3 2.8-2.8V2.8C16 1.3 14.7 0 13.2 0H2.8C1.3 0 0 1.3 0 2.8v10.4C0 14.7 1.3 16 2.8 16zM1.5 2.8c0-.7.6-1.3 1.3-1.3h10.4c.7 0 1.3.6 1.3 1.3v10.4c0 .7-.6 1.3-1.3 1.3H2.8c-.7 0-1.3-.6-1.3-1.3V2.8z"/></symbol><symbol viewBox="0 0 16 16" id="seta-esquerda-proximo-prosseguir" xmlns="http://www.w3.org/2000/svg"><path d="M12.3 7L5.7.4c-.6-.6-1.5-.6-2 0s-.6 1.5 0 2L9.3 8l-5.5 5.5c-.6.6-.6 1.5 0 2s1.5.6 2 0L12.3 9c.3-.3.4-.6.4-1s-.1-.7-.4-1z"/></symbol><symbol viewBox="0 0 16 16" id="seta-esquerda-proximo-prosseguir-2" xmlns="http://www.w3.org/2000/svg"><path d="M10.2 7.5L6.8 4c-.3-.3-.8-.3-1 0s-.3.8 0 1.1L8.7 8l-2.9 2.9c-.3.3-.3.8 0 1.1s.8.3 1.1 0l3.4-3.4c.1-.1.2-.3.2-.5 0-.3-.1-.5-.3-.6z"/><path d="M13.2 0H2.8C1.3 0 0 1.3 0 2.8v10.4C0 14.7 1.3 16 2.8 16h10.4c1.6 0 2.8-1.3 2.8-2.8V2.8C16 1.3 14.7 0 13.2 0zm1.3 13.2c0 .7-.6 1.3-1.3 1.3H2.8c-.7 0-1.3-.6-1.3-1.3V2.8c0-.7.6-1.3 1.3-1.3h10.4c.7 0 1.3.6 1.3 1.3v10.4z"/></symbol><symbol viewBox="0 0 16 16" id="setas-cima-baixo-expandir-listar-vertical" xmlns="http://www.w3.org/2000/svg"><path d="M7.2.3l-5 5c-.4.4-.4 1.1 0 1.5.4.4 1.1.4 1.5 0L8 2.6l4.2 4.2c.4.4 1.1.4 1.5 0 .4-.4.4-1.1 0-1.5l-5-5C8.6.1 8.3 0 8 0c-.3 0-.6.1-.8.3zM8.8 15.7l5-5c.4-.4.4-1.1 0-1.5-.4-.4-1.1-.4-1.5 0L8 13.4 3.8 9.2c-.4-.4-1.1-.4-1.5 0-.4.4-.4 1.1 0 1.5l5 5c.1.2.4.3.7.3.3 0 .6-.1.8-.3z"/></symbol><symbol viewBox="0 0 16 16" id="setas-cima-baixo-expandir-listar-vertical-2" xmlns="http://www.w3.org/2000/svg"><path d="M7.5 3L4 6.4c-.3.3-.3.8 0 1.1s.8.3 1.1 0L8 4.6l2.9 2.9c.3.3.8.3 1.1 0s.3-.8 0-1.1L8.5 3c-.1-.2-.3-.2-.5-.2s-.4 0-.5.2zM8.5 13.6l3.4-3.4c.3-.3.3-.8 0-1.1s-.8-.3-1.1 0L8 12 5.1 9.1c-.3-.3-.8-.3-1.1 0s-.3.8 0 1.1l3.4 3.4c.1.1.3.2.5.2.3 0 .5-.1.6-.2z"/><path d="M0 3.1v10.4c0 1.6 1.3 2.8 2.8 2.8h10.4c1.6 0 2.8-1.3 2.8-2.8V3.1C16 1.5 14.7.3 13.2.3H2.8C1.3.3 0 1.5 0 3.1zm13.2-1.3c.7 0 1.3.6 1.3 1.3v10.4c0 .7-.6 1.3-1.3 1.3H2.8c-.7 0-1.3-.6-1.3-1.3V3.1c0-.7.6-1.3 1.3-1.3h10.4z"/></symbol><symbol viewBox="0 0 16 16" id="setas-esquerda-direita-expandir-listar-horizontal" xmlns="http://www.w3.org/2000/svg"><path d="M15.6 7.2l-5-4.9c-.4-.4-1.1-.4-1.5 0-.4.4-.4 1.1 0 1.5L13.3 8l-4.2 4.2c-.4.4-.4 1.1 0 1.5.4.4 1.1.4 1.5 0l4.9-4.9c.2-.2.3-.5.3-.8.1-.3 0-.6-.2-.8zM.4 8.8l5 4.9c.4.4 1.1.4 1.5 0 .4-.4.4-1.1 0-1.5L2.7 8l4.2-4.2c.4-.4.4-1.1 0-1.5s-1.1-.4-1.5 0l-5 4.9c-.2.2-.3.5-.3.8 0 .3.1.6.3.8z"/></symbol><symbol viewBox="0 0 16 16" id="setas-esquerda-direita-expandir-listar-horizontal-2" xmlns="http://www.w3.org/2000/svg"><path d="M13.3 7.5L9.9 4c-.3-.3-.8-.3-1.1 0s-.3.8 0 1.1L11.7 8l-2.9 2.9c-.3.3-.3.8 0 1.1s.8.3 1.1 0l3.4-3.4c.1-.1.2-.3.2-.5 0-.3-.1-.5-.2-.6zM2.7 8.5L6.1 12c.3.3.8.3 1.1 0s.3-.8 0-1.1L4.3 8l2.9-2.9c.3-.3.3-.8 0-1.1s-.8-.3-1.1 0L2.7 7.5c-.1.1-.2.3-.2.5s.1.4.2.5z"/><path d="M13.2 0H2.8C1.3 0 0 1.3 0 2.8v10.4C0 14.7 1.3 16 2.8 16h10.4c1.6 0 2.8-1.3 2.8-2.8V2.8C16 1.3 14.7 0 13.2 0zm1.3 13.2c0 .7-.6 1.3-1.3 1.3H2.8c-.7 0-1.3-.6-1.3-1.3V2.8c0-.7.6-1.3 1.3-1.3h10.4c.7 0 1.3.6 1.3 1.3v10.4z"/></symbol><symbol viewBox="0 0 16 16" id="telefone" xmlns="http://www.w3.org/2000/svg"><path d="M13.9 2.2c-.3-.6-.7-1-1.3-1.3L10.2 0c-.3-.1-.7 0-.8.3l-1.6 4c-.1.3 0 .7.3.8l.9.4c-.3.8-.8 1.6-1.2 2.4-.5.8-.9 1.6-1.5 2.3l-.7-.6c-.2-.1-.3-.1-.5-.1s-.3.1-.4.2L2.1 13c-.1.1-.1.3-.1.5s.1.3.2.4l2 1.6c.4.3.9.5 1.4.5h.3c.6-.1 1.2-.4 1.6-.9 1.3-1.6 2.6-3.4 3.6-5.3C12.2 8 13.2 6 13.9 4c.2-.6.2-1.2 0-1.8zm-9 12.3l-1.5-1.2L5.3 11l.8.6c.1.1.3.1.5.1s.3-.1.4-.2c.7-.9 1.3-1.9 1.9-3 .6-1 1.1-2.1 1.6-3.2.1-.3 0-.7-.4-.8l-.9-.3 1.1-2.8 1.8.7c.3.1.5.3.6.6.1.3.1.6 0 .9-.7 1.9-1.6 3.8-2.7 5.6-1 1.8-2.2 3.5-3.5 5.1-.2.2-.5.4-.8.4-.2.1-.5 0-.8-.2z"/></symbol><symbol viewBox="0 0 16 16" id="texto-tipografia" xmlns="http://www.w3.org/2000/svg"><path d="M11.5 0h-.7l-.6.4h-9L.7 0H0v4.6h.5l1-1.8H4v11.7l-2.1.7v.8h7.8v-.7l-2.2-.7V2.9H10l.9 1.8h.7L11.5 0zM14.9 13.7V2.3H16L14.3.1l-1.7 2.2h1.1v11.4h-1.1l1.7 2.2 1.7-2.2h-1.1z"/></symbol><symbol viewBox="0 0 16 16" id="trocar-eixo" xmlns="http://www.w3.org/2000/svg"><path d="M14 11.1v2h-2v-2h2M8 3.3c-.4 0-.7.3-.7.7 0 .4.3.7.7.7 2.4 0 4.3 1.9 4.3 4.3H11c-.5 0-1 .4-1 1v4c0 .5.4 1 1 1h4c.5 0 1-.4 1-1v-4c0-.5-.4-1-1-1h-1.3c0-3.1-2.5-5.7-5.7-5.7zM4 3v2H2V3h2m1-2H1c-.5 0-1 .4-1 1v4c0 .5.4 1 1 1h1.3c0 3.2 2.6 5.7 5.7 5.7.4 0 .7-.3.7-.7 0-.4-.3-.7-.7-.7-2.4 0-4.3-1.9-4.3-4.3H5c.5 0 1-.4 1-1V2c0-.6-.5-1-1-1z"/></symbol><symbol viewBox="0 0 16 16" id="trocar-inverter-substituir" xmlns="http://www.w3.org/2000/svg"><path d="M15.8 11.3L14.2 10 13 9.1h-.1-.1c-.1 0-.1.1-.1.2v.9c0 .2-.2.4-.4.4h-.4c-.3 0-.5-.1-.7-.3l-1.3-1-.1-.1c-.3-.2-.7-.3-1-.1-.5.2-.7.8-.5 1.3 0 .1.1.2.2.2l.1.1.1.1 1 1c.5.5 1.3.9 2 .9h.5c.2 0 .4.2.4.4v.9c0 .1.1.2.2.2h.1l2.8-2.2h.1c.2-.1.3-.4 0-.7zM9 7.6l2-2c.2-.2.5-.3.7-.3h.5c.2 0 .4.2.4.4v.9c0 .1 0 .2.1.2h.2l1.3-.8 1.6-1.2h.1c.2-.2.2-.5 0-.7l-.1-.1-2.9-2.2h-.1c-.1 0-.2.1-.2.2v1c0 .2-.2.4-.4.4h-.3c-.8 0-1.5.3-2.1.9l-1 1-1.5 1.3L5.9 8l-.4.4-1.9 2s0 .1-.1.1c-.2.2-.4.3-.7.3H1c-.5 0-1 .4-1 1 0 .5.4 1 1 1h1.9c.8 0 1.5-.3 2-.8l.1-.3 1-1 1.3-1.4L8.6 8l.4-.4zM1 5.3h1.8c.3 0 .5.1.7.3l.1.1 1.1 1.1c.3.2.7.3 1 .1.5-.2.7-.8.5-1.3 0-.1-.1-.2-.1-.2L6 5.3l-1-1-.1-.1c-.5-.5-1.3-.8-2-.8H1c-.5 0-.9.5-.9 1s.4.8.9.9z"/></symbol><symbol viewBox="0 0 16 16" id="vinculo-link-elo" xmlns="http://www.w3.org/2000/svg"><path d="M4.8 8.8h6.4V7.2H4.8v1.6zM1.5 8c0-1.8 1.4-3.3 3.3-3.3h2.4V3.2H4.8C2.2 3.2 0 5.4 0 8c0 2.6 2.2 4.8 4.8 4.8h2.4v-1.5H4.8C3 11.3 1.5 9.8 1.5 8zm9.7-4.8H8.8v1.5h2.4c1.8 0 3.3 1.4 3.3 3.3s-1.4 3.3-3.3 3.3H8.8v1.5h2.4c2.6 0 4.8-2.2 4.8-4.8 0-2.6-2.2-4.8-4.8-4.8zm0 0"/></symbol><symbol viewBox="0 0 16 16" id="voltar-desfazer" xmlns="http://www.w3.org/2000/svg"><path d="M15.9 12c-1.2-2.6-3.7-6.1-8.4-6.6-.6-.1-1-.5-1-1.1V2.6c0-.3-.2-.5-.5-.5-.1 0-.2 0-.3.1L.4 7c-.3.3-.4.6-.4.9 0 .3.1.5.3.7l5.4 5.1c.1.1.2.1.3.1.3 0 .5-.2.5-.5v-2c0-.6.5-1.1 1.1-1.1 3 .1 5.5.5 7.5 2.3 0 0 .2.2.4.2.3 0 .5-.2.5-.5 0-.1 0-.2-.1-.2z"/></symbol></svg>