<svg id="area-do-desenvolvedor" xmlns="http://www.w3.org/2000/svg" width="12.17" height="16" viewBox="0 0 12.17 16">
  <title>area-do-desenvolvedor</title>
  <g>
    <path d="M14,4.14,9.94.07A.19.19,0,0,0,9.8,0H3.08A1.16,1.16,0,0,0,1.92,1.16h0V14.84h0A1.16,1.16,0,0,0,3.08,16h9.84a1.16,1.16,0,0,0,1.16-1.16V4.29A.19.19,0,0,0,14,4.14ZM10,.66,13.42,4.1H10.76A.77.77,0,0,1,10,3.32Zm3.7,14.18a.77.77,0,0,1-.77.77H3.08a.78.78,0,0,1-.77-.77h0V1.16h0A.77.77,0,0,1,3.08.39H9.6V3.32a1.16,1.16,0,0,0,1.16,1.16H13.7Z" transform="translate(-1.92 0)"/>
    <path d="M9.08,7.2a.32.32,0,0,0-.23.54L11,9.91,8.86,12.08a.32.32,0,0,0,.45.45l2.39-2.39a.31.31,0,0,0,.09-.23.32.32,0,0,0-.09-.23l-2.4-2.4A.32.32,0,0,0,9.08,7.2Z" transform="translate(-1.92 0)"/>
    <path d="M7.14,7.29a.32.32,0,0,0-.45,0l-2.4,2.4a.32.32,0,0,0,0,.45l2.4,2.39a.32.32,0,0,0,.22.09h0a.32.32,0,0,0,.23-.54L5,9.91,7.14,7.74A.32.32,0,0,0,7.14,7.29Z" transform="translate(-1.92 0)"/>
  </g>
</svg>
