<svg id="configuracao-cliente" xmlns="http://www.w3.org/2000/svg" viewBox="0 0 13.09 16"><defs><style>.cls-1{fill:#045ba7;fill-rule:evenodd;}</style></defs><title>configuracao-cliente</title><path class="cls-1" d="M13.56,11.08A6.84,6.84,0,0,0,10.89,10l-.55-.34a11.19,11.19,0,0,1-.12-1.22c0-.13,0-.24,0-.34l.27-.31a5.27,5.27,0,0,0,.8-1.43,4.65,4.65,0,0,0,.27-1.18h0c0-.12,0-.23,0-.35v0h0a.15.15,0,0,0,0,0V4.69c0-.05,0-.09,0-.11,0-.27,0-.49,0-.7C11.59,1.68,11.62,0,8,0S4.41,1.68,4.45,3.89c0,.21,0,.43,0,.7,0,.05,0,.12,0,.18a.16.16,0,0,0,0,0v0a4.5,4.5,0,0,0,.28,1.53,5.26,5.26,0,0,0,.8,1.43l.25.3,0,.34a10.63,10.63,0,0,1-.11,1.23L5.11,10a6.87,6.87,0,0,0-2.67,1.08,2.17,2.17,0,0,0-1,1.75V15a1,1,0,0,0,.28.69h0a1,1,0,0,0,.69.29H13.57a1,1,0,0,0,.69-.28h0a1,1,0,0,0,.28-.69V12.83A2.18,2.18,0,0,0,13.56,11.08ZM10.2,10l.37.23L8.73,12l-.13-.24h0l-.35-.64Zm.29.76a14.89,14.89,0,0,1-1.56,3.45l-.21.38-.07-.49c-.08-.55-.15-1.11-.23-1.75a.09.09,0,0,1,0,0l0-.05v0h0v0l.08.14,0,0a.16.16,0,0,0,.23,0ZM8,10.83,6,9.67a12.26,12.26,0,0,0,.1-1.23V8.39a3.79,3.79,0,0,0,.61.44A2.59,2.59,0,0,0,8,9.21a2.59,2.59,0,0,0,1.29-.38,3.72,3.72,0,0,0,.6-.44v.06A12,12,0,0,0,10,9.69ZM8,.32c3,0,3.25,1.3,3.23,3.08a2.83,2.83,0,0,0,0-.46A1.12,1.12,0,0,0,11,2.43h0a.89.89,0,0,0-.75-.34,3.75,3.75,0,0,0-.89.16h0A5.2,5.2,0,0,1,8,2.47a5.19,5.19,0,0,1-1.33-.22h0a3.7,3.7,0,0,0-.88-.16A.89.89,0,0,0,5,2.43a1.13,1.13,0,0,0-.22.51,3.11,3.11,0,0,0,0,.47C4.75,1.63,5,.32,8,.32ZM5,6.25A4.32,4.32,0,0,1,4.8,5.17L5,4.35a2.79,2.79,0,0,0,.08-.46c0-.14,0-.28,0-.42a3.09,3.09,0,0,1,0-.47.81.81,0,0,1,.15-.37.59.59,0,0,1,.5-.22,3.55,3.55,0,0,1,.79.15h0A5.41,5.41,0,0,0,8,2.8a5.46,5.46,0,0,0,1.41-.24h0a3.57,3.57,0,0,1,.8-.15.59.59,0,0,1,.5.21h0a.81.81,0,0,1,.15.37,3.08,3.08,0,0,1,0,.47c0,.14,0,.29,0,.42a2.62,2.62,0,0,0,.08.46l.19.81A4.35,4.35,0,0,1,11,6.25a5,5,0,0,1-.75,1.34,3.89,3.89,0,0,1-1.07,1A2.27,2.27,0,0,1,8,8.89a2.27,2.27,0,0,1-1.13-.33,3.63,3.63,0,0,1-.79-.63h0c-.1-.1-.19-.21-.28-.32A4.94,4.94,0,0,1,5,6.25Zm.76,3.69,2,1.14-.35.64h0L7.31,12,5.44,10.19ZM7.61,12.3h0c-.08.64-.15,1.2-.23,1.75l-.07.54-.25-.44h0A14.82,14.82,0,0,1,5.5,10.69l1.74,1.66a.16.16,0,0,0,.23,0l0,0,.07-.14v0l0,0A.09.09,0,0,1,7.61,12.3ZM2.43,15.68A.64.64,0,0,1,2,15.49H2A.64.64,0,0,1,1.78,15V12.83a1.87,1.87,0,0,1,.86-1.49,6.43,6.43,0,0,1,2.43-1,15,15,0,0,0,1.71,4h0l.48.85h0l.28.5Zm5.66,0H7.91l-.34-.61.13-1c.08-.57.16-1.14.23-1.76h0a.42.42,0,0,0,0-.16.53.53,0,0,0,0-.12l-.1-.25L8,11.35l.26.46-.1.25a.51.51,0,0,0,0,.12.41.41,0,0,0,0,.16c.07.61.15,1.19.23,1.76l.12.91ZM14.22,15a.65.65,0,0,1-.65.65H8.46l.31-.55h0l.45-.79h0a15,15,0,0,0,1.72-4,6.39,6.39,0,0,1,2.42,1,1.88,1.88,0,0,1,.86,1.5h0Z" transform="translate(-1.45)"/></svg>