<svg id="configuracao-declaracao-fiscal" xmlns="http://www.w3.org/2000/svg" viewBox="0 0 16 10.7"><defs><style>.cls-1{fill:#045ba7;fill-rule:evenodd;}</style></defs><title>configuracao-declaracao-fiscal</title><path class="cls-1" d="M15.73,12.54a.54.54,0,0,1-.16.38h0a.54.54,0,0,1-.38.16H8.13V2.92h7.06a.54.54,0,0,1,.54.54Zm-1.07-2.43a.13.13,0,1,1,0,.27H9.21a.13.13,0,1,1,0-.27Zm0-1.5a.13.13,0,0,1,0,.27H9.21a.13.13,0,0,1,0-.27ZM9.21,7.39a.13.13,0,1,1,0-.27h2a.13.13,0,0,1,0,.27Zm0-1.5a.13.13,0,1,1,0-.27h2a.13.13,0,1,1,0,.27ZM.81,13.08a.54.54,0,0,1-.54-.54V3.46a.54.54,0,0,1,.16-.38h0a.53.53,0,0,1,.38-.16H7.86V13.08ZM8,13.35H.81A.81.81,0,0,1,0,12.54V3.46a.81.81,0,0,1,.24-.57h0a.8.8,0,0,1,.57-.24H15.19a.81.81,0,0,1,.81.81V4.92A.12.12,0,0,1,16,5v7.57a.8.8,0,0,1-.24.57h0a.81.81,0,0,1-.57.24Z" transform="translate(0 -2.65)"/><path class="cls-1" d="M6.81,7.12a.13.13,0,0,1,0,.27H1.37a.13.13,0,1,1,0-.27Z" transform="translate(0 -2.65)"/><path class="cls-1" d="M6.81,5.62a.13.13,0,1,1,0,.27H1.37a.13.13,0,1,1,0-.27Z" transform="translate(0 -2.65)"/><path class="cls-1" d="M1.36,10.38a.13.13,0,1,1,0-.27H6.81a.13.13,0,1,1,0,.27Z" transform="translate(0 -2.65)"/><path class="cls-1" d="M1.36,8.88a.13.13,0,0,1,0-.27H6.81a.13.13,0,0,1,0,.27Z" transform="translate(0 -2.65)"/><path class="cls-1" d="M13.48,4.07a.12.12,0,0,1,.23,0v.49h.66a.12.12,0,0,1,0,.23h-.66V5.86h.52a.41.41,0,0,1,.41.41V7a.41.41,0,0,1-.12.29h0a.41.41,0,0,1-.29.12h-.52v.49a.12.12,0,0,1-.23,0V7.4h-.82a.12.12,0,0,1,0-.23h.82V6.1H13A.41.41,0,0,1,12.67,6h0a.41.41,0,0,1-.12-.29V5a.41.41,0,0,1,.12-.29h0A.41.41,0,0,1,13,4.56h.52V4.07Zm.23,2V7.16h.52a.18.18,0,0,0,.12-.05h0A.18.18,0,0,0,14.41,7V6.27a.17.17,0,0,0-.05-.12.18.18,0,0,0-.12-.05Zm-.23-.23V4.79H13a.18.18,0,0,0-.12.05h0a.18.18,0,0,0-.05.12v.72a.18.18,0,0,0,.18.18Z" transform="translate(0 -2.65)"/></svg>