<svg xmlns="http://www.w3.org/2000/svg" viewBox="0 357.6 612 84.6" preserveAspectRatio="xMidYMid meet">
    <title>Logo GissOnline</title>
    <polygon fill="#004F9F" points="37.4 424.4 37.4 442.2 68.4 442.2 68.4 375.3 "/>
    <polygon fill="#004F9F" points="0 442.2 0 442.2 31 442.2 31 393.1 "/>
    <polygon fill="#0093D4" points="74.7 406.6 74.7 442.1 105.8 442.1 105.8 357.6 "/>
    <path fill="#004F9F" d="M181.6 432.7c-6.4 6.6-14.1 9.5-23.5 9.5 -8.9 0-16.4-3.1-22.4-9.1 -3.4-3.4-5.8-7.8-6.8-12.5 -1-4.7-1.4-11.6-1.4-20.7s0.4-16 1.4-20.7c0.9-4.8 3.3-9.1 6.8-12.5 6.1-6.1 13.5-9.1 22.4-9.1 18.9 0 29.1 12.2 31.3 26.6h-16.4c-2-8.1-6.9-12.2-14.9-12.2 -4.3 0-7.8 1.5-10.4 4.4 -3.1 3.9-4 6.9-4 23.4 0 16.4 0.7 19.7 4 23.5 2.5 2.9 6 4.3 10.4 4.3 4.8 0 8.7-1.5 11.6-4.6 2.5-2.8 3.7-6.6 3.7-11.1v-3.1h-15.3v-13.5h31.5v12.2C189.5 419.5 187.4 426.6 181.6 432.7z"/>
    <path fill="#004F9F" d="M196.6 441.4v-45.6h15.3v45.6H196.6zM196.6 388.2v-7.6h15.3v7.6H196.6z"/>
    <path fill="#004F9F" d="M241.8 442.2c-9.6 0-18.3-1-26.1-8.7l10-9.9c5.1 5 11.7 5.8 16.4 5.8 5.3 0 10.8-1.7 10.8-6.3 0-3.1-1.6-5.2-6.4-5.6l-9.7-1c-11.1-1-17.9-5.8-17.9-17 0-12.6 11.1-19.4 23.6-19.4 9.5 0 17.5 1.6 23.4 7.1l-9.4 9.5c-3.5-3.1-8.9-4.1-14.2-4.1 -6.1 0-8.7 2.8-8.7 5.8 0 2.2 1 4.8 6.4 5.2l9.6 1c12.1 1.2 18.2 7.6 18.2 17.9C267.8 435.8 256.3 442.2 241.8 442.2zM297.7 442.2c-9.6 0-18.3-1-26.1-8.7l10-9.9c5.1 5 11.7 5.8 16.4 5.8 5.3 0 10.8-1.7 10.8-6.3 0-3.1-1.6-5.2-6.4-5.6l-9.7-1c-11.1-1-17.9-5.8-17.9-17 0-12.6 11.1-19.4 23.6-19.4 9.5 0 17.5 1.6 23.4 7.1l-9.4 9.5c-3.5-3.1-8.9-4.1-14.2-4.1 -6.1 0-8.7 2.8-8.7 5.8 0 2.2 1 4.8 6.4 5.2l9.6 1c12.1 1.2 18.2 7.6 18.2 17.9C323.7 435.8 312.2 442.2 297.7 442.2z"/>
    <path fill="#0093D4" d="M479 441.4v-45.6h15.3v45.6H479zM479 388.2v-7.6h15.3v7.6H479zM383.9 433.1c-5.8 5.8-12.9 9.1-22.4 9.1s-16.7-3.3-22.6-9.1c-8.4-8.4-8.1-18.8-8.1-33.2 0-14.4-0.2-24.7 8.1-33.2 5.8-5.8 13.1-9.1 22.6-9.1s16.6 3.3 22.4 9.1c8.4 8.4 8.3 18.8 8.3 33.2C392.2 414.2 392.3 424.6 383.9 433.1zM371.8 376.5c-2.7-2.9-6.4-4.6-10.4-4.4 -4-0.1-7.8 1.5-10.5 4.4 -3.1 3.5-4 7.4-4 23.4s0.8 19.9 4 23.4c2.7 2.9 6.6 4.6 10.5 4.4 4 0.1 7.7-1.5 10.4-4.4 3.1-3.5 4.1-7.3 4.1-23.4S375 380 371.8 376.5zM434.6 441.4v-36.8c0-8.3-5.2-11.1-10-11.1s-10.2 2.8-10.2 11.1v36.8h-15.2v-61h14.9v5.6c4-4.1 9.5-6.4 15.2-6.3 6.1 0 11 2 14.4 5.4 4.9 4.9 6.2 10.6 6.2 17.3v38.9L434.6 441.4zM456.8 441.4v-83.2H472v83.2C472 441.4 456.8 441.4 456.8 441.4zM536.7 441.4v-36.8c0-8.3-5.2-11.1-10-11.1 -4.8 0-10.2 2.8-10.2 11.1v36.8h-15.2v-61h14.9v5.6c4-4.1 9.5-6.4 15.2-6.3 6.1 0 11 2 14.4 5.4 4.9 4.9 6.2 10.6 6.2 17.3v38.9L536.7 441.4zM573.9 415.7c0 7.8 4.8 13.5 13.3 13.5 6.7 0 9.9-1.9 13.8-5.8l9.3 9c-6.2 6.2-12.2 9.6-23.2 9.6 -14.4 0-28.2-6.6-28.2-31.2 0-19.9 10.8-31.1 26.5-31.1 17 0 26.5 12.4 26.5 29.1v6.8L573.9 415.7zM595.6 398.8c-1.6-3.6-5-6.3-10.2-6.3s-8.5 2.7-10.2 6.3c-0.9 2.1-1.4 4.3-1.4 6.6h23.2C597.1 403.1 596.5 400.9 595.6 398.8z"/>
</svg>