<?xml version="1.0" encoding="utf-8"?>
<!-- Generator: Adobe Illustrator 21.1.0, SVG Export Plug-In . SVG Version: 6.00 Build 0)  -->
<svg version="1.1" id="Camada_1" xmlns="http://www.w3.org/2000/svg" xmlns:xlink="http://www.w3.org/1999/xlink" x="0px" y="0px"
	 viewBox="0 0 300 102.9" style="enable-background:new 0 0 300 102.9;" xml:space="preserve">
<style type="text/css">
	.st0{fill:#E63211;stroke:#E63211;stroke-width:0.25;stroke-miterlimit:10;}
	.st1{fill:#E63211;}
</style>
<g>
	<g id="XMLID_2_">
		<path id="XMLID_58_" class="st0" d="M101,86.9v1.7h-0.9v-1.7H101z M101,90.4v8.7h-0.9v-8.7H101z"/>
		<path id="XMLID_56_" class="st0" d="M104.6,90.4l0.3,0.9c0.6-0.6,1.4-0.9,2.6-0.9h0.9c1.7,0,2.6,0.9,2.6,2.6v6.1H110V93
			c0-1.2-0.6-1.7-1.7-1.7h-0.9c-1.2,0-2,0.3-2.6,0.9v6.9H104v-8.7H104.6z"/>
		<path id="XMLID_54_" class="st0" d="M116.1,90.4h3v0.9h-3v5.2c0,1.2,0.6,1.7,1.7,1.7h1.3v0.9h-1.3c-1.7,0-2.6-0.9-2.6-2.6v-5.2
			h-1.3v-0.9h1.3v-2.6l0.9-0.9V90.4z"/>
		<path id="XMLID_51_" class="st0" d="M123,95.2v1.3c0,1.2,0.6,1.7,1.7,1.7h3.9v0.9h-3.9c-1.7,0-2.6-0.9-2.6-2.6V93
			c0-1.7,0.9-2.6,2.6-2.6h1.7c1.7,0,2.6,0.9,2.6,2.6v2.2H123z M123,94.3h5.2V93c0-1.2-0.6-1.7-1.7-1.7h-1.7c-1.2,0-1.7,0.6-1.7,1.7
			V94.3z"/>
		<path id="XMLID_49_" class="st0" d="M133,86.9v12.2h-0.9V86.9H133z"/>
		<path id="XMLID_46_" class="st0" d="M136.8,86.9v1.7H136v-1.7H136.8z M136.8,90.4v8.7H136v-8.7H136.8z"/>
		<path id="XMLID_43_" class="st0" d="M140.7,102.6v-0.9h2.6c1.7,0,2.6-0.9,2.6-2.6v-0.9c-0.6,0.6-1.4,0.9-2.6,0.9h-0.9
			c-1.7,0-2.6-0.9-2.6-2.6V93c0-1.7,0.9-2.6,2.6-2.6h0.9c1.2,0,2,0.3,2.6,0.9l0.3-0.9h0.6v8.7c0,2.3-1.2,3.5-3.5,3.5H140.7z
			 M143.3,98.2c1.2,0,2-0.3,2.6-0.9v-5.2c-0.6-0.6-1.4-0.9-2.6-0.9h-0.9c-1.2,0-1.7,0.6-1.7,1.7v3.5c0,1.2,0.6,1.7,1.7,1.7H143.3z"
			/>
		<path id="XMLID_39_" class="st0" d="M150.6,95.2v1.3c0,1.2,0.6,1.7,1.7,1.7h3.9v0.9h-3.9c-1.7,0-2.6-0.9-2.6-2.6V93
			c0-1.7,0.9-2.6,2.6-2.6h1.7c1.7,0,2.6,0.9,2.6,2.6v2.2H150.6z M150.6,94.3h5.2V93c0-1.2-0.6-1.7-1.7-1.7h-1.7
			c-1.2,0-1.7,0.6-1.7,1.7V94.3z M152.6,86.9h1.2l1.6,2.6h-1l-1.1-1.7l-1.1,1.7h-1L152.6,86.9z"/>
		<path id="XMLID_37_" class="st0" d="M160.3,90.4l0.3,0.9c0.6-0.6,1.4-0.9,2.6-0.9h0.9c1.7,0,2.6,0.9,2.6,2.6v6.1h-0.9V93
			c0-1.2-0.6-1.7-1.7-1.7h-0.9c-1.2,0-2,0.3-2.6,0.9v6.9h-0.9v-8.7H160.3z"/>
		<path id="XMLID_35_" class="st0" d="M170.5,96.5c0,1.2,0.6,1.7,1.7,1.7h3.5v0.9h-3.5c-1.7,0-2.6-0.9-2.6-2.6V93
			c0-1.7,0.9-2.6,2.6-2.6h3.5v0.9h-3.5c-1.2,0-1.7,0.6-1.7,1.7V96.5z"/>
		<path id="XMLID_32_" class="st0" d="M179.6,86.9v1.7h-0.9v-1.7H179.6z M179.6,90.4v8.7h-0.9v-8.7H179.6z"/>
		<path id="XMLID_29_" class="st0" d="M188.7,93.9c0-1.7-0.9-2.6-2.6-2.6h-2.6v-0.9h2.6c2.3,0,3.5,1.2,3.5,3.5v5.2h-0.6l-0.3-0.9
			c-0.6,0.6-1.4,0.9-2.6,0.9h-0.9c-1.7,0-2.6-0.9-2.6-2.6s0.9-2.6,2.6-2.6h0.9c1.2,0,2,0.3,2.6,0.9V93.9z M186.1,98.2
			c1.2,0,2-0.3,2.6-0.9v-1.7c-0.6-0.6-1.4-0.9-2.6-0.9h-0.9c-1.2,0-1.7,0.6-1.7,1.7s0.6,1.7,1.7,1.7H186.1z"/>
		<path id="XMLID_26_" class="st0" d="M198.1,95.2v1.3c0,1.2,0.6,1.7,1.7,1.7h3.9v0.9h-3.9c-1.7,0-2.6-0.9-2.6-2.6V93
			c0-1.7,0.9-2.6,2.6-2.6h1.7c1.7,0,2.6,0.9,2.6,2.6v2.2H198.1z M198.1,94.3h5.2V93c0-1.2-0.6-1.7-1.7-1.7h-1.7
			c-1.2,0-1.7,0.6-1.7,1.7V94.3z"/>
		<path id="XMLID_24_" class="st0" d="M207.8,90.4l0.3,0.9c0.6-0.6,1.4-0.9,2.6-0.9c1,0,1.7,0.3,2.1,0.9c0.7-0.6,1.6-0.9,2.6-0.9
			c2,0,3,0.9,3,2.6v6.1h-0.9V93c0-1.2-0.6-1.7-1.9-1.7c-1.3,0-2.1,0.3-2.4,0.9v6.9h-0.9v-6.2c0-1.1-0.6-1.6-1.7-1.6
			c-1.2,0-2,0.3-2.6,0.9v6.9h-0.9v-8.7H207.8z"/>
		<path id="XMLID_22_" class="st0" d="M227.1,96.5c0,1.2,0.6,1.7,1.7,1.7h3.5v0.9h-3.5c-1.7,0-2.6-0.9-2.6-2.6V93
			c0-1.7,0.9-2.6,2.6-2.6h3.5v0.9h-3.5c-1.2,0-1.7,0.6-1.7,1.7V96.5z"/>
		<path id="XMLID_19_" class="st0" d="M242.3,96.5c0,1.7-0.9,2.6-2.6,2.6h-1.7c-1.7,0-2.6-0.9-2.6-2.6V93c0-1.7,0.9-2.6,2.6-2.6h1.7
			c1.7,0,2.6,0.9,2.6,2.6V96.5z M236.2,96.5c0,1.2,0.6,1.7,1.7,1.7h1.7c1.2,0,1.7-0.6,1.7-1.7V93c0-1.2-0.6-1.7-1.7-1.7h-1.7
			c-1.2,0-1.7,0.6-1.7,1.7V96.5z"/>
		<path id="XMLID_17_" class="st0" d="M245.9,90.4l0.3,0.9c0.6-0.6,1.4-0.9,2.6-0.9h0.9c1.7,0,2.6,0.9,2.6,2.6v6.1h-0.9V93
			c0-1.2-0.6-1.7-1.7-1.7h-0.9c-1.2,0-2,0.3-2.6,0.9v6.9h-0.9v-8.7H245.9z"/>
		<path id="XMLID_15_" class="st0" d="M257.4,90.4h3v0.9h-3v5.2c0,1.2,0.6,1.7,1.7,1.7h1.3v0.9h-1.3c-1.7,0-2.6-0.9-2.6-2.6v-5.2
			h-1.3v-0.9h1.3v-2.6l0.9-0.9V90.4z"/>
		<path id="XMLID_13_" class="st0" d="M263.4,99.1v-8.7h0.6l0.3,0.9c0.6-0.6,1.4-0.9,2.6-0.9v0.9c-1.2,0-2,0.3-2.6,0.9v6.9H263.4z"
			/>
		<path id="XMLID_10_" class="st0" d="M276.4,96.5c0,1.7-0.9,2.6-2.6,2.6h-1.7c-1.7,0-2.6-0.9-2.6-2.6V93c0-1.7,0.9-2.6,2.6-2.6h1.7
			c1.7,0,2.6,0.9,2.6,2.6V96.5z M270.4,96.5c0,1.2,0.6,1.7,1.7,1.7h1.7c1.2,0,1.7-0.6,1.7-1.7V93c0-1.2-0.6-1.7-1.7-1.7h-1.7
			c-1.2,0-1.7,0.6-1.7,1.7V96.5z"/>
		<path id="XMLID_8_" class="st0" d="M280.3,86.9v12.2h-0.9V86.9H280.3z"/>
		<path id="XMLID_5_" class="st0" d="M284.2,95.2v1.3c0,1.2,0.6,1.7,1.7,1.7h3.9v0.9h-3.9c-1.7,0-2.6-0.9-2.6-2.6V93
			c0-1.7,0.9-2.6,2.6-2.6h1.7c1.7,0,2.6,0.9,2.6,2.6v2.2H284.2z M284.2,94.3h5.2V93c0-1.2-0.6-1.7-1.7-1.7h-1.7
			c-1.2,0-1.7,0.6-1.7,1.7V94.3z"/>
		<path id="XMLID_3_" class="st0" d="M293.2,99.1v-0.9h3.9c1.2,0,1.7-0.5,1.7-1.4v-0.3c0-0.9-0.6-1.4-1.7-1.4h-1.3
			c-1.7,0-2.6-0.7-2.6-2.1v-0.3c0-1.5,0.9-2.3,2.6-2.3h3.9v0.9h-3.9c-1.2,0-1.7,0.5-1.7,1.4V93c0,0.8,0.6,1.2,1.7,1.2h1.3
			c1.7,0,2.6,0.8,2.6,2.3v0.3c0,1.5-0.9,2.3-2.6,2.3H293.2z"/>
	</g>
	<path class="st1" d="M240.1,10.2h-18.6c-6.5,0-11.7,6.9-11.7,15.3V57c0,0.1,0,0.2,0,0.2c-0.1,5-3.1,10-8,10h-28.1
		c-5.1,0-7-5.2-7-10.1V25.5c0-6,2.9-10.3,7.1-10.3h18.7c4.1,0,7,4.3,7,10.4c0,1.6,1.3,2.5,2.4,2.5c1.2,0,2.4-0.9,2.4-2.5
		c0-8.5-5.3-15.5-11.8-15.5h-18.7c-6.6,0-12,6.9-12,15.3v31.5c0,7.6,4.1,15.2,11.8,15.2h28.1c3.2,0,6.2-1.4,8.5-3.9
		c0.6-0.7,1.2-1.4,1.7-2.2c1.9,3.6,5.1,6.1,9.5,6.1h18.6c7.7,0,11.7-7.7,11.7-15.3V25.5C251.8,17.1,246.6,10.2,240.1,10.2z M247,57
		c0,5-1.8,10.3-6.9,10.3h-18.6c-4.7,0-6.6-4.6-6.8-9.3c0-0.3,0-0.6,0-1V25.5c0-6,2.8-10.3,6.9-10.3h18.6c4,0,6.9,4.2,6.9,10.3V57z"
		/>
	<path id="XMLID_1_" class="st1" d="M287.9,10.2h-18.6c-6.5,0-11.8,6.9-11.8,15.5v44.1c0,1.6,1.2,2.5,2.4,2.5c1.2,0,2.4-0.9,2.4-2.5
		V25.7c0-6.1,2.8-10.4,6.9-10.4h18.6c4,0,6.9,4.2,6.9,10.3v44.2c0,1.6,1.2,2.5,2.4,2.5c1.2,0,2.4-0.9,2.4-2.5V25.6
		C299.7,17.1,294.4,10.2,287.9,10.2z"/>
	<g>
		<path class="st1" d="M153.5,4.8h0.1c0.8,0,1.5-0.3,1.9-0.9c0.4-0.5,0.6-1.1,0.6-1.7c0-1.3-1-2.6-2.6-2.6h-0.1
			c-0.8,0-1.5,0.3-2,0.8c-0.4,0.5-0.7,1.1-0.7,1.7C150.9,3.5,151.9,4.8,153.5,4.8z"/>
		<path class="st1" d="M153.6,10.6c-1.3,0-2.6,0.9-2.6,2.5l0,43.9c0,4.9-2,10.1-7.6,10.1l0,0l-32.9,0c-5.7,0-7.7-5.2-7.7-10.1V44.1
			H143c1.4,0,2.5-1.1,2.5-2.5V25.9c0-8.5-5.7-15.3-12.7-15.3h-22.3c-7.2,0-12.8,6.7-12.8,15.2v31.3c0,7.3,4,15.1,12.8,15.1l0.5,0
			l0,0h32.4c7.1,0,12.3-5.9,12.7-14.3c0-0.1,0-0.2,0-0.3V13.1C156.2,11.6,154.9,10.6,153.6,10.6z M102.9,25.8c0-6,3.2-10.2,7.7-10.2
			h22.3c4.5,0,7.6,4.2,7.6,10.3V39h-37.6V25.8z"/>
	</g>
	<g>
		<path class="st1" d="M38.1,6.6l12.7,20.1c0.2-0.1,0.5-0.1,0.7-0.1c0.6,0,1.1,0.2,1.5,0.6l16.1-7.7c0-0.7,0.4-1.3,1-1.7L37.8,5.3
			C38,5.6,38.1,6,38.1,6.4C38.1,6.5,38.1,6.5,38.1,6.6z"/>
		<g>
			<path class="st1" d="M3.1,19.3L19.2,27c0.4-0.4,1-0.7,1.6-0.7c0.2,0,0.4,0,0.5,0.1L33.9,6.5c0,0,0-0.1,0-0.1c0-0.5,0.2-1,0.5-1.4
				L2.2,17.7C2.7,18.1,3,18.7,3.1,19.3z"/>
			<path class="st1" d="M69.6,20.9l-15.7,7.5c0,0.1,0,0.2,0,0.3c0,0.6-0.2,1.2-0.6,1.6L71.4,59c0.4,0.1,0.8,0.3,1.1,0.6V21.5
				c-0.3,0.2-0.7,0.3-1.1,0.3C70.6,21.8,70,21.4,69.6,20.9z"/>
			<path class="st1" d="M37.8,34.2l11.6-5.5c0,0,0-0.1,0-0.1c0-0.4,0.1-0.8,0.3-1.1L37.5,8.2c-0.2,0.2-0.4,0.3-0.7,0.4l0.1,25.1
				C37.2,33.8,37.5,34,37.8,34.2z"/>
			<path class="st1" d="M35.2,8.5c-0.2-0.1-0.4-0.2-0.5-0.3l-12,19.2c0.3,0.4,0.4,0.8,0.4,1.3c0,0.1,0,0.1,0,0.2l11.4,5.4
				c0.2-0.3,0.5-0.5,0.9-0.6L35.2,8.5z"/>
			<path class="st1" d="M38.4,36.1l31.2,23.2c0,0,0,0,0.1,0L51.8,30.9c-0.1,0-0.1,0-0.2,0c-0.6,0-1.2-0.3-1.6-0.7l-11.6,5.5
				c0,0,0,0,0,0.1c0,0.1,0,0.3,0,0.4L38.4,36.1z"/>
			<path class="st1" d="M1,59l18.1-28.9c-0.3-0.4-0.5-0.9-0.5-1.4c0-0.1,0-0.1,0-0.1l-16-7.6c-0.4,0.5-1.1,0.9-1.8,0.9
				c-0.4,0-0.8-0.1-1.1-0.3v38.2C0.1,59.3,0.5,59.1,1,59z"/>
			<path class="st1" d="M38.3,48.3l28.5,11L37.6,37.5c-0.2,0.2-0.4,0.3-0.7,0.4l0,8.9C37.6,47.1,38.1,47.6,38.3,48.3L38.3,48.3z"/>
			<path class="st1" d="M34.6,37.5L5.2,59.3l28.8-11c0.2-0.7,0.7-1.2,1.4-1.4l0-8.9C35.1,37.8,34.8,37.7,34.6,37.5z"/>
			<path class="st1" d="M35.4,75.9L35.4,51c-0.6-0.2-1-0.6-1.3-1.1L3.6,61.6c-0.2,1-1,1.8-2,1.9L34,78.6c-0.1-0.2-0.1-0.4-0.1-0.6
				C33.9,77,34.5,76.2,35.4,75.9z"/>
			<path class="st1" d="M33.9,35.8C33.9,35.8,33.9,35.8,33.9,35.8l-11.5-5.5c-0.4,0.4-0.9,0.6-1.5,0.6c-0.1,0-0.2,0-0.4,0L2.8,59.1
				L33.9,36C33.9,36,33.9,35.9,33.9,35.8z"/>
			<path class="st1" d="M68.6,61.7L38.2,49.9c-0.2,0.5-0.7,0.9-1.2,1.1L37,75.9c0.8,0.3,1.4,1.2,1.4,2.1c0,0.2,0,0.5-0.1,0.7
				l32.2-15.2C69.6,63.3,68.8,62.6,68.6,61.7z"/>
		</g>
	</g>
</g>
</svg>
