<svg id="manuais-gissonline" xmlns="http://www.w3.org/2000/svg" width="10.34" height="16" viewBox="0 0 10.34 16">
  <defs>
    <style>
      .cls-1 {
        fill-rule: evenodd;
      }
    </style>
  </defs>
  <title>manuais-gissonline</title>
  <path class="cls-1" d="M4.82,13.1V.5H3.32V13.42a1.56,1.56,0,0,1,.92-.32h.58ZM5.32.5h0V13.1h7.35V.5ZM12.88,16H4.28a1.49,1.49,0,0,1-1-.41,1.56,1.56,0,0,1-.41-1V0H13.17V13.59h-.24a1,1,0,0,0-.67.29,1,1,0,0,0,0,1.33.91.91,0,0,0,.67.3Zm-8.6-.49h7.6a1.35,1.35,0,0,1-.37-1,1.34,1.34,0,0,1,.37-1H4.28a1,1,0,0,0-.7.25,1,1,0,0,0-.26.71.9.9,0,0,0,.26.66,1.07,1.07,0,0,0,.7.3Z" transform="translate(-2.83)"/>
  <rect x="4.39" y="3.92" width="3.84" height="0.66"/>
  <rect x="4.39" y="6.8" width="3.84" height="0.66"/>
  <rect x="4.39" y="9.67" width="3.84" height="0.66"/>
</svg>
