<?xml version="1.0" encoding="utf-8"?>
<!-- Generator: Adobe Illustrator 21.1.0, SVG Export Plug-In . SVG Version: 6.00 Build 0)  -->
<svg version="1.1" xmlns="http://www.w3.org/2000/svg" xmlns:xlink="http://www.w3.org/1999/xlink" x="0px" y="0px" width="16px"
	 height="16px" viewBox="0 0 16 16" enable-background="new 0 0 16 16" xml:space="preserve">
<g id="eixo-gestao" display="none">
	<g display="inline">
		<path d="M11.8,7.1V0.6c0-0.2-0.2-0.4-0.4-0.4H8.9c-0.2,0-0.4,0.2-0.4,0.4v7.8C8.2,8.7,8,9,7.8,9.3V3.7c0-0.2-0.2-0.4-0.4-0.4H4.9
			c-0.2,0-0.4,0.2-0.4,0.4v8.9H3.9V8.3c0-0.2-0.2-0.4-0.4-0.4H0.9c-0.2,0-0.4,0.2-0.4,0.4v4.3H0.4C0.2,12.6,0,12.8,0,13
			s0.2,0.4,0.4,0.4h7.3c0.7,1.4,2.2,2.4,3.9,2.4c2.4,0,4.4-2,4.4-4.4C16,9.1,14.1,7.2,11.8,7.1z M10.9,1.1v6.1
			c-0.6,0.1-1.1,0.3-1.6,0.6V1.1H10.9z M5.3,4.1H7v8.5H5.3V4.1z M1.4,8.7H3v3.8H1.4V8.7z M11.6,14.9c-1.9,0-3.5-1.6-3.5-3.5
			s1.6-3.5,3.5-3.5c1.9,0,3.5,1.6,3.5,3.5S13.6,14.9,11.6,14.9z"/>
		<path d="M13.5,9.6C13.5,9.6,13.5,9.6,13.5,9.6c0-0.1-0.1-0.1-0.1-0.1c0,0,0,0,0,0c-0.1,0-0.1-0.1-0.2-0.1c0,0-0.1,0-0.1,0
			c0,0,0,0,0,0h-2.8c-0.2,0-0.4,0.2-0.4,0.4s0.2,0.4,0.4,0.4H12c-0.4,0.4-0.8,0.9-1.5,1.6c-0.4,0.4-0.8,0.8-0.9,1
			c-0.2,0.2-0.2,0.4,0,0.6c0.1,0.1,0.2,0.1,0.3,0.1c0.1,0,0.2,0,0.3-0.1c0.1-0.1,0.5-0.5,1-1c0.4-0.4,1.1-1.1,1.6-1.6v1.8
			c0,0.2,0.2,0.4,0.4,0.4s0.4-0.2,0.4-0.4V9.7c0,0,0,0,0,0C13.6,9.7,13.5,9.6,13.5,9.6z"/>
	</g>
</g>
<g id="eixo-integracao" display="none">
	<g display="inline">
		<path d="M12.2,4.4c-0.1,0-0.3,0-0.4,0C11,2.8,9.3,1.7,7.5,1.7C5,1.7,2.9,3.7,2.7,6.1C1.2,6.2,0,7.5,0,9.1c0,1.6,1.3,3,3,3h1.5
			l2.6,2.1c0.1,0.1,0.2,0.1,0.3,0.1c0.1,0,0.1,0,0.2,0c0.2-0.1,0.3-0.2,0.3-0.4V13h3.6c0.3,0,0.5-0.2,0.5-0.5v-0.5h0.3
			c2.1,0,3.8-1.7,3.8-3.8C16,6.1,14.3,4.4,12.2,4.4z M10.9,12.1H7.4c-0.3,0-0.5,0.2-0.5,0.5v0.3l-1.6-1.3l1.6-1.3v0.3
			c0,0.3,0.2,0.5,0.5,0.5h3.6V12.1z M12.2,11.2h-0.3v-0.5c0-0.3-0.2-0.5-0.5-0.5H7.8V9.4c0-0.2-0.1-0.3-0.3-0.4
			C7.4,8.9,7.2,8.9,7.1,9l-2.6,2.1H3c-1.1,0-2.1-0.9-2.1-2.1c0-1.2,1-2.1,2.2-2.1c0.1,0,0.3,0,0.3-0.1c0.1-0.1,0.1-0.2,0.1-0.3
			l0-0.1c0-2.1,1.7-3.9,3.9-3.9c1.6,0,3,1,3.6,2.5c0.1,0.2,0.3,0.3,0.5,0.3c0.2,0,0.4-0.1,0.6-0.1c1.6,0,2.9,1.3,2.9,2.9
			C15.1,9.8,13.8,11.2,12.2,11.2z"/>
		<path d="M8.9,4.3C8.8,4.2,8.6,4.2,8.4,4.3C8.3,4.4,8.2,4.5,8.2,4.7v0.8H4.6C4.4,5.5,4.2,5.7,4.2,6v1.8c0,0.3,0.2,0.5,0.5,0.5h3.6
			v0.8c0,0.2,0.1,0.3,0.3,0.4c0.1,0,0.1,0,0.2,0c0.1,0,0.2,0,0.3-0.1l2.7-2.2c0.1-0.1,0.2-0.2,0.2-0.4s-0.1-0.3-0.2-0.4L8.9,4.3z
			 M9.1,8.2V7.8c0-0.3-0.2-0.5-0.5-0.5H5.1V6.4h3.6c0.3,0,0.5-0.2,0.5-0.5V5.6l1.6,1.3L9.1,8.2z"/>
	</g>
</g>
<g id="eixo-monitoracao" display="none">
	<g display="inline">
		<path d="M12.6,7.2c0.1-1-0.3-2.1-1.1-2.9c-0.9-1-2.2-1.5-3.6-1.5c-1.4,0-2.7,0.5-3.5,1.5C3.7,5.1,3.3,6.1,3.4,7.2
			c0.1,2,0.9,2.6,1.5,3.1c0.5,0.4,0.8,0.6,0.9,1.6c0,0.1,0,0.1,0.1,0.2c0,0,0,0,0,0.1c0,0.2,0.2,0.3,0.4,0.3c0,0,0.1,0,0.1,0l3.8-1
			c0,0,0,0,0,0c0,0,0.1,0,0.1,0c0,0,0.1,0,0.1-0.1c0,0,0,0,0,0c0,0,0.1-0.1,0.1-0.1c0,0,0,0,0,0c0.2-0.5,0.4-0.7,0.8-1
			C11.8,9.7,12.5,9.2,12.6,7.2z M10.6,9.5c-0.3,0.3-0.7,0.6-1,1.1l-3.1,0.8C6.4,10.4,5.9,10,5.4,9.6C4.8,9.2,4.3,8.8,4.2,7.1
			C4.2,6.3,4.5,5.5,5.1,4.8C5.8,4.1,6.9,3.6,8,3.6c1.1,0,2.2,0.5,2.9,1.2c0.6,0.6,0.9,1.4,0.8,2.2C11.7,8.7,11.2,9.1,10.6,9.5z"/>
		<path d="M9.9,13.5l-3.8,1c-0.2,0.1-0.4,0.3-0.3,0.5c0,0.2,0.2,0.3,0.4,0.3c0,0,0.1,0,0.1,0l0.2,0c0,0,0,0.1,0,0.1
			C6.9,15.7,7.4,16,8,16c1,0,1.8-0.7,1.8-1.6c0,0,0,0,0,0l0.3-0.1c0.2-0.1,0.4-0.3,0.3-0.5C10.4,13.5,10.1,13.4,9.9,13.5z M8,15.2
			c-0.2,0-0.4-0.1-0.6-0.2l1.5-0.4C8.8,14.9,8.4,15.2,8,15.2z"/>
		<path d="M9.9,12l-3.8,1c-0.2,0.1-0.4,0.3-0.3,0.5c0,0.2,0.2,0.3,0.4,0.3c0,0,0.1,0,0.1,0l3.8-1c0.2-0.1,0.4-0.3,0.3-0.5
			C10.4,12.1,10.1,12,9.9,12z"/>
		<path d="M8.1,2.1c0.2,0,0.4-0.2,0.4-0.4V0.4C8.6,0.2,8.4,0,8.1,0C7.9,0,7.7,0.2,7.7,0.4v1.3C7.7,1.9,7.9,2.1,8.1,2.1z"/>
		<path d="M13,1.9c-0.2-0.2-0.4-0.2-0.6,0l-0.9,0.9c-0.2,0.2-0.2,0.4,0,0.6c0.1,0.1,0.2,0.1,0.3,0.1s0.2,0,0.3-0.1L13,2.5
			C13.2,2.3,13.2,2,13,1.9z"/>
		<path d="M14.8,6.7h-1.3c-0.2,0-0.4,0.2-0.4,0.4c0,0.2,0.2,0.4,0.4,0.4h1.3c0.2,0,0.4-0.2,0.4-0.4C15.3,6.9,15.1,6.7,14.8,6.7z"/>
		<path d="M12,10.7c-0.2-0.2-0.4-0.2-0.6,0c-0.2,0.2-0.2,0.4,0,0.6l0.9,0.9c0.1,0.1,0.2,0.1,0.3,0.1s0.2,0,0.3-0.1
			c0.2-0.2,0.2-0.4,0-0.6L12,10.7z"/>
		<path d="M4,3.4c0.1,0.1,0.2,0.1,0.3,0.1c0.1,0,0.2,0,0.3-0.1c0.2-0.2,0.2-0.4,0-0.6L3.7,1.9c-0.2-0.2-0.4-0.2-0.6,0
			C3,2,3,2.3,3.1,2.5L4,3.4z"/>
		<path d="M2.4,6.5H1.2c-0.2,0-0.4,0.2-0.4,0.4c0,0.2,0.2,0.4,0.4,0.4h1.3c0.2,0,0.4-0.2,0.4-0.4C2.9,6.6,2.7,6.5,2.4,6.5z"/>
		<path d="M3.9,10.7L3,11.6c-0.2,0.2-0.2,0.4,0,0.6c0.1,0.1,0.2,0.1,0.3,0.1s0.2,0,0.3-0.1l0.9-0.9c0.2-0.2,0.2-0.4,0-0.6
			C4.3,10.5,4,10.5,3.9,10.7z"/>
		<path d="M10.2,5.7c-0.2-0.1-0.5,0-0.6,0.2L7.8,8.9l-1-1.4C6.7,7.4,6.4,7.3,6.2,7.5C6,7.6,6,7.9,6.1,8L7.5,10
			c0.1,0.1,0.2,0.2,0.3,0.2c0,0,0,0,0,0c0.1,0,0.3-0.1,0.3-0.2l2.1-3.7C10.4,6,10.4,5.8,10.2,5.7z"/>
	</g>
</g>
<g id="eixo-configuracao" display="none">
	<g display="inline">
		<g>
			<path d="M9,16c-0.3,0-0.5-0.2-0.6-0.4l-0.7-1.8c-0.2,0-0.4,0-0.5-0.1l-1,1.6c-0.2,0.3-0.6,0.4-0.9,0.2l-2-1.1
				c-0.3-0.2-0.4-0.5-0.3-0.8l0.7-1.7c-0.1-0.1-0.2-0.3-0.3-0.4l-1.9,0.4c-0.3,0.1-0.7-0.1-0.8-0.5L0,9.2c-0.1-0.3,0.1-0.7,0.4-0.8
				l1.8-0.7c0-0.2,0-0.4,0.1-0.5l-1.6-1C0.4,5.9,0.3,5.6,0.4,5.3l1.1-2C1.7,2.9,2,2.8,2.4,2.9l1.7,0.7c0.1-0.1,0.3-0.2,0.4-0.3
				L4.1,1.5C4.1,1.1,4.3,0.8,4.6,0.7L6.8,0c0.3-0.1,0.7,0.1,0.8,0.4l0.7,1.8c0.2,0,0.4,0,0.5,0.1l1-1.6c0.2-0.3,0.6-0.4,0.9-0.2
				l2,1.1c0.3,0.2,0.4,0.5,0.3,0.8l-0.7,1.7c0.1,0.1,0.2,0.3,0.3,0.4l1.9-0.4c0.3-0.1,0.7,0.1,0.8,0.5L16,6.8
				c0.1,0.3-0.1,0.7-0.4,0.8l-1.8,0.7c0,0.2,0,0.4-0.1,0.5l1.6,1c0.3,0.2,0.4,0.6,0.2,0.9l-1.1,2c-0.2,0.3-0.5,0.4-0.8,0.3l-1.7-0.7
				c-0.1,0.1-0.3,0.2-0.4,0.3l0.4,1.9c0.1,0.3-0.1,0.7-0.5,0.8L9.2,16C9.1,16,9.1,16,9,16z M8.1,12.5c0.3,0,0.5,0.2,0.6,0.4l0.7,1.6
				l1.1-0.3l-0.3-1.7c-0.1-0.3,0.1-0.5,0.3-0.7c0.3-0.2,0.6-0.4,0.9-0.7c0.2-0.2,0.5-0.3,0.7-0.2l1.6,0.7l0.5-1l-1.4-1
				c-0.2-0.2-0.3-0.4-0.3-0.7c0.1-0.4,0.1-0.7,0.1-1.1c0-0.3,0.2-0.5,0.4-0.6l1.6-0.7l-0.3-1.1l-1.7,0.3c-0.3,0.1-0.5-0.1-0.7-0.3
				c-0.2-0.3-0.4-0.6-0.7-0.9C10.9,4.5,10.8,4.2,11,4l0.7-1.6l-1-0.5l-1,1.4C9.6,3.5,9.3,3.7,9,3.6C8.6,3.5,8.3,3.5,7.9,3.5
				c-0.3,0-0.5-0.2-0.6-0.4L6.6,1.5L5.5,1.8l0.3,1.7C5.9,3.8,5.8,4,5.6,4.2C5.3,4.4,5,4.6,4.7,4.9C4.5,5.1,4.2,5.2,4,5L2.4,4.4
				l-0.5,1l1.4,1C3.5,6.5,3.7,6.7,3.6,7C3.5,7.4,3.5,7.7,3.5,8.1c0,0.3-0.2,0.5-0.4,0.6L1.5,9.4l0.3,1.1l1.7-0.3
				c0.3-0.1,0.5,0.1,0.7,0.3c0.2,0.3,0.4,0.6,0.7,0.9C5.1,11.5,5.2,11.8,5,12l-0.7,1.6l1,0.5l1-1.4c0.2-0.2,0.4-0.3,0.7-0.3
				C7.4,12.5,7.7,12.5,8.1,12.5C8.1,12.5,8.1,12.5,8.1,12.5z"/>
		</g>
		<g>
			<path d="M8,11.4c-1.9,0-3.4-1.5-3.4-3.4c0-1.9,1.5-3.4,3.4-3.4s3.4,1.5,3.4,3.4C11.4,9.9,9.9,11.4,8,11.4z M8,5.9
				C6.9,5.9,5.9,6.9,5.9,8s0.9,2.1,2.1,2.1s2.1-0.9,2.1-2.1S9.1,5.9,8,5.9z"/>
		</g>
	</g>
</g>
<g id="eixo-operacao" display="none">
	<path display="inline" d="M12.6,9.3c0.8-1,1.2-2.2,1.2-3.5C13.8,2.6,11.2,0,8,0C4.8,0,2.2,2.6,2.2,5.8c0,1.3,0.4,2.5,1.2,3.5
		c-1.9,1.5-3.1,3.7-3.1,6.1c0,0.3,0.3,0.6,0.6,0.6h14.3c0.3,0,0.6-0.3,0.6-0.6C15.7,13,14.6,10.7,12.6,9.3z M8,1.1
		c2.6,0,4.6,2.1,4.6,4.6c0,1.2-0.5,2.3-1.3,3.2c-0.9,0.9-2.1,1.5-3.4,1.5c-1.3,0-2.5-0.5-3.4-1.5C3.8,8.1,3.4,7,3.4,5.8
		C3.4,3.2,5.4,1.1,8,1.1z M1.5,14.9c0.2-1.9,1.1-3.6,2.7-4.7c0,0,0,0,0,0c0.1,0,0.1,0.1,0.2,0.1c0.1,0.1,0.2,0.2,0.3,0.2
		c0.1,0,0.1,0.1,0.2,0.1c0.1,0.1,0.2,0.1,0.3,0.2c0.1,0,0.1,0.1,0.2,0.1C5.4,11,5.5,11,5.6,11.1c0.1,0,0.1,0.1,0.2,0.1
		c0.1,0,0.2,0.1,0.3,0.1c0.1,0,0.1,0.1,0.2,0.1c0.1,0,0.2,0.1,0.3,0.1c0.1,0,0.1,0,0.2,0c0.1,0,0.2,0,0.4,0.1c0.1,0,0.1,0,0.2,0
		c0.2,0,0.4,0,0.6,0c0.2,0,0.4,0,0.6,0c0.1,0,0.1,0,0.2,0c0.1,0,0.3,0,0.4-0.1c0.1,0,0.1,0,0.2,0c0.1,0,0.2-0.1,0.3-0.1
		c0.1,0,0.1,0,0.2-0.1c0.1,0,0.2-0.1,0.3-0.1c0.1,0,0.1-0.1,0.2-0.1c0.1,0,0.2-0.1,0.3-0.1c0.1,0,0.1-0.1,0.2-0.1
		c0.1-0.1,0.2-0.1,0.3-0.2c0.1,0,0.1-0.1,0.2-0.1c0.1-0.1,0.2-0.1,0.3-0.2c0.1,0,0.1-0.1,0.2-0.1c0,0,0,0,0,0
		c1.5,1.1,2.5,2.8,2.7,4.7H1.5z"/>
</g>
<g id="trocar-eixo" display="none">
	<g display="inline">
		<path d="M14,11.1v2h-2v-2H14 M8,3.3C7.6,3.3,7.3,3.6,7.3,4c0,0.4,0.3,0.7,0.7,0.7c2.4,0,4.3,1.9,4.3,4.3H11c-0.5,0-1,0.4-1,1v4
			c0,0.5,0.4,1,1,1h4c0.5,0,1-0.4,1-1v-4c0-0.5-0.4-1-1-1h-1.3C13.7,5.9,11.2,3.3,8,3.3L8,3.3z"/>
		<path d="M4,3v2H2V3H4 M5,1H1c-0.5,0-1,0.4-1,1v4c0,0.5,0.4,1,1,1h1.3v0c0,3.2,2.6,5.7,5.7,5.7c0.4,0,0.7-0.3,0.7-0.7
			c0-0.4-0.3-0.7-0.7-0.7c-2.4,0-4.3-1.9-4.3-4.3v0H5c0.5,0,1-0.4,1-1v-4C6,1.4,5.5,1,5,1L5,1z"/>
	</g>
</g>
<g id="menu-eixos" display="none">
	<g display="inline">
		<rect y="12.1" width="3.9" height="3.9"/>
		<rect y="6.1" width="3.9" height="3.9"/>
		<rect y="0" width="3.9" height="3.9"/>
		<rect x="6.1" y="12.1" width="3.9" height="3.9"/>
		<rect x="6.1" y="6.1" width="3.9" height="3.9"/>
		<rect x="6.1" y="0" width="3.9" height="3.9"/>
		<rect x="12.1" y="12.1" width="3.9" height="3.9"/>
		<rect x="12.1" y="6.1" width="3.9" height="3.9"/>
		<rect x="12.1" y="0" width="3.9" height="3.9"/>
	</g>
</g>
<g id="shuffle" display="none">
	<g display="inline">
		<path id="shuffle_icon" d="M15.8,11.3L14.2,10l-1.2-0.9l0,0c0,0-0.1,0-0.1,0c0,0-0.1,0-0.1,0c-0.1,0-0.1,0.1-0.1,0.2v0.9
			c0,0,0,0,0,0c0,0,0,0,0,0c0,0.2-0.2,0.4-0.4,0.4h0h0h-0.4c-0.3,0-0.5-0.1-0.7-0.3l0,0L9.9,9.3L9.8,9.2C9.5,9,9.1,8.9,8.8,9.1
			c-0.5,0.2-0.7,0.8-0.5,1.3c0,0.1,0.1,0.2,0.2,0.2l0.1,0.1c0,0,0,0,0.1,0.1h0l1,1l0,0c0.5,0.5,1.3,0.9,2,0.9H12c0,0,0.1,0,0.1,0
			c0,0,0.1,0,0.1,0c0.2,0,0.4,0.2,0.4,0.4c0,0,0,0,0,0c0,0,0,0,0,0v0.9c0,0.1,0.1,0.2,0.2,0.2c0,0,0.1,0,0.1,0l0,0l0,0l2.8-2.2
			l0.1,0C16,11.9,16.1,11.6,15.8,11.3C15.8,11.3,15.8,11.3,15.8,11.3z M9,7.6l2-2c0.2-0.2,0.5-0.3,0.7-0.3H12c0,0,0.1,0,0.1,0
			c0,0,0.1,0,0.1,0c0.2,0,0.4,0.2,0.4,0.4c0,0,0,0,0,0c0,0,0,0,0,0v0.9c0,0.1,0,0.2,0.1,0.2c0.1,0,0.2,0,0.2,0l0,0l0,0L14.2,6
			l1.6-1.2l0.1,0c0.2-0.2,0.2-0.5,0-0.7c0,0,0,0-0.1-0.1l-2.9-2.2l0,0c0,0-0.1,0-0.1,0c-0.1,0-0.2,0.1-0.2,0.2v0.9c0,0,0,0.1,0,0.1
			c0,0.2-0.2,0.4-0.4,0.4c0,0,0,0,0,0c0,0,0,0,0,0h-0.3c-0.8,0-1.5,0.3-2.1,0.9l0,0l-1,1L7.3,6.6L5.9,8L5.5,8.4l-1.9,2
			c0,0,0,0.1-0.1,0.1c-0.2,0.2-0.4,0.3-0.7,0.3H1l0,0c0,0,0,0,0,0c-0.5,0-1,0.4-1,1c0,0.5,0.4,1,1,1h1.9c0.8,0,1.5-0.3,2-0.8
			c0,0,0,0,0,0L5,11.7c0,0,0,0,0,0l1-1l1.3-1.4L8.6,8L9,7.6z M1,5.3L1,5.3L1,5.3h1.8c0.3,0,0.5,0.1,0.7,0.3c0,0,0,0,0.1,0.1l1.1,1.1
			l0,0C5,7,5.4,7.1,5.7,6.9c0.5-0.2,0.7-0.8,0.5-1.3c0-0.1-0.1-0.2-0.1-0.2L6,5.3c0,0,0,0,0,0h0l-1-1c0,0,0,0,0,0L4.9,4.2
			c0,0,0,0,0,0c-0.5-0.5-1.3-0.8-2-0.8H1c-0.5,0-0.9,0.5-0.9,1C0.1,4.9,0.5,5.2,1,5.3z"/>
	</g>
</g>
<g id="camera_1_" display="none">
	<g id="camera" display="inline" opacity="0.89" enable-background="new    ">
		<path d="M14.1,13.9H1.9c-1,0-1.9-0.9-1.9-1.9V5.2c0-1,0.9-1.9,1.9-1.9h0.4c0.1,0,0.2-0.1,0.2-0.1c0,0,0,0,0-0.1l0.1-0.3
			c0.2-0.4,0.5-0.7,0.9-0.7l1.7,0c0.4,0,0.8,0.3,1,0.7l0.1,0.3c0,0.1,0.1,0.2,0.3,0.2h7.4h0c1.1,0,1.9,0.9,1.9,1.9V12
			C16,13.1,15.1,13.9,14.1,13.9z M3.3,3.3C3.3,3.4,3.3,3.4,3.3,3.3C3.1,3.8,2.7,4,2.3,4H1.9C1.3,4,0.8,4.5,0.8,5.2V12
			c0,0.6,0.5,1.1,1.1,1.1h12.2c0.6,0,1.1-0.5,1.1-1.1V5.2c0-0.6-0.5-1.1-1.1-1.1h0l0,0H6.6c-0.4,0-0.8-0.3-1-0.7L5.6,3
			c0-0.1-0.1-0.2-0.3-0.2l-1.6,0C3.6,2.9,3.4,2.9,3.4,3L3.3,3.3C3.3,3.3,3.3,3.3,3.3,3.3z M9.3,12.3L9.3,12.3c-1,0-1.9-0.4-2.6-1.1
			c-0.7-0.7-1.1-1.6-1.1-2.6c0-1,0.4-1.9,1.1-2.6c0.7-0.7,1.6-1.1,2.6-1.1c0,0,0,0,0,0c2,0,3.6,1.6,3.6,3.6
			C12.9,10.7,11.4,12.3,9.3,12.3C9.4,12.3,9.3,12.3,9.3,12.3z M9.3,5.8c-0.8,0-1.5,0.3-2,0.8c-0.5,0.5-0.8,1.3-0.8,2
			c0,0.8,0.3,1.5,0.8,2c0.5,0.5,1.2,0.8,2,0.8c0,0,0,0,0.1,0h0c0,0,0,0,0,0c1.6,0,2.9-1.3,2.9-2.9C12.2,7.1,10.9,5.8,9.3,5.8
			C9.3,5.8,9.3,5.8,9.3,5.8z M9.3,11.1C8,11.1,6.9,10,6.9,8.7c0-1.3,1.1-2.4,2.4-2.4h0h0c1.3,0,2.4,1.1,2.4,2.4
			C11.8,10,10.7,11.1,9.3,11.1C9.3,11.1,9.3,11.1,9.3,11.1z M9.3,7C8.4,7,7.6,7.8,7.6,8.7c0,0.9,0.8,1.7,1.7,1.7c0,0,0,0,0,0
			c0.9,0,1.7-0.8,1.7-1.7C11,7.8,10.2,7,9.3,7L9.3,7z M13.7,6.4c-0.2,0-0.5-0.1-0.7-0.3c-0.2-0.2-0.3-0.4-0.3-0.7
			c0-0.2,0.1-0.5,0.3-0.7c0.2-0.2,0.4-0.3,0.7-0.3c0,0,0,0,0,0c0.2,0,0.5,0.1,0.7,0.3c0.2,0.2,0.3,0.4,0.3,0.7
			C14.7,6,14.3,6.4,13.7,6.4C13.8,6.4,13.8,6.4,13.7,6.4L13.7,6.4z M13.7,5C13.7,5,13.7,5,13.7,5c-0.1,0-0.2,0-0.3,0.1
			c-0.1,0.1-0.1,0.2-0.1,0.3c0,0.1,0,0.2,0.1,0.3c0.1,0.1,0.2,0.1,0.3,0.1c0,0,0,0,0,0c0.2,0,0.4-0.2,0.4-0.4c0-0.1,0-0.2-0.1-0.3
			C14,5.1,13.9,5,13.7,5z"/>
	</g>
</g>
<g id="relogio" display="none">
	<g display="inline">
		<path id="clock" d="M12.8,8c0,0.3-0.3,0.6-0.6,0.7H7.7c-0.2,0-0.3-0.2-0.3-0.4V4.8c0-0.4,0.3-0.7,0.7-0.7c0.4,0,0.7,0.3,0.7,0.7
			c0,0,0,0,0,0V7c0,0.2,0.2,0.3,0.3,0.3h3.2C12.5,7.3,12.8,7.6,12.8,8z M8,0c4.4,0,8,3.6,8,8c0,4.4-3.6,8-8,8c-4.4,0-8-3.6-8-8
			c0,0,0,0,0,0C0,3.6,3.6,0,8,0L8,0z M13.9,8c0-3.3-2.7-5.9-5.9-5.9C4.7,2.1,2.1,4.7,2.1,8c0,3.3,2.6,5.9,5.9,5.9
			C11.3,13.9,13.9,11.3,13.9,8C13.9,8,13.9,8,13.9,8L13.9,8z"/>
	</g>
</g>
<g id="nuvem" display="none">
	<g display="inline">
		<path id="cloud" d="M14.3,7.5c-0.1,0-0.1,0-0.2-0.1c-0.2-0.1-0.3-0.3-0.3-0.5v0c0,0,0,0,0-0.1v0c0-0.2,0-0.3,0-0.5
			c0-2.1-1.7-3.8-3.8-3.8C8.9,2.5,7.7,3.1,7,4.2l0,0c0,0,0,0,0,0h0C6.9,4.4,6.7,4.5,6.5,4.4c-0.1,0-0.2,0-0.3-0.1c0,0,0,0-0.1-0.1
			l0,0C5.7,4,5.2,3.9,4.6,3.9C3.1,3.9,1.9,5.1,2,6.6v0c0,0.1,0,0.2,0,0.3v0.1c0,0,0,0,0,0c0,0.2-0.1,0.4-0.3,0.5c0,0-0.1,0-0.1,0.1
			C0.6,8.1,0,9.2,0,10.3c0,1.8,1.4,3.2,3.1,3.2c0,0,0,0,0,0h2.9c0.5,0,0.9-0.4,0.9-0.9v-1.1c0-0.2-0.2-0.4-0.4-0.4h-1v0
			c-0.2,0-0.3-0.1-0.3-0.3c0,0,0,0,0,0c0-0.1,0-0.1,0-0.2l0,0l2.5-3C8,7.4,8.2,7.3,8.4,7.5c0,0,0.1,0,0.1,0.1l2.5,3l0,0
			c0,0.1,0.1,0.1,0,0.2c0,0.2-0.1,0.3-0.3,0.3h0v0h-1c-0.2,0-0.4,0.2-0.4,0.4v1.1c0,0.5,0.4,0.9,0.9,0.9h2.6c1.8,0,3.2-1.4,3.1-3.2
			c0,0,0,0,0,0C16,9.1,15.4,8.1,14.3,7.5z"/>
	</g>
</g>
<g id="feed_1_" display="none">
	<g display="inline">
		<path id="feed" d="M12.3,8.1L12.3,8.1L12.3,8L8.5,0.1l0,0C8.4,0,8.4,0,8.3,0C8.2,0,8.1,0.1,8.1,0.2v0l0,0l0.6,5.3v0c0,0,0,0,0,0.1
			c0,0.4-0.3,0.7-0.7,0.7l0,0H4.5C4,6.5,3.6,6.9,3.6,7.5c0,0.2,0,0.3,0.1,0.5l3.8,7.9l0,0.1l0,0C7.6,16,7.6,16,7.7,16
			c0.1,0,0.2-0.1,0.2-0.2c0,0,0,0,0,0v0l0,0l0,0l-0.6-5.3c0,0,0-0.1,0-0.1v0c0-0.4,0.3-0.7,0.7-0.7l0,0h3.5c0.5-0.1,0.9-0.5,0.9-1
			C12.4,8.4,12.4,8.3,12.3,8.1z"/>
	</g>
</g>
<g id="comentario" display="none">
	<path id="Comments_Icon" display="inline" d="M8.1,0C3.8,0,0.4,3.5,0.4,7.8c0,1.5,0.4,2.9,1.2,4.1c0,0,0.1,0.1,0.1,0.1l0,0
		c0.1,0.2,0.1,0.4,0.1,0.6c0,0.1-0.7,2.9-0.7,2.9l0,0c-0.1,0.2,0.1,0.4,0.3,0.5c0.1,0,0.2,0,0.2,0l0.1,0L4,14.9c0,0,0.1,0,0.1-0.1
		l0,0c0.3-0.1,0.6-0.1,0.9,0h0c0,0,0,0,0.1,0c0.9,0.4,2,0.6,3,0.6c4.3-0.1,7.7-3.6,7.6-7.9C15.6,3.4,12.2,0.1,8.1,0z M4.9,8.9
		c-0.6,0-1.1-0.5-1.1-1.1c0-0.6,0.5-1.1,1.1-1.1C5.5,6.7,6,7.2,6,7.8c0,0,0,0,0,0C6,8.4,5.5,8.9,4.9,8.9C4.9,8.9,4.9,8.9,4.9,8.9
		L4.9,8.9z M8.1,8.9c-0.6,0-1.1-0.5-1.1-1.1S7.4,6.7,8,6.7c0.6,0,1.1,0.5,1.1,1.1c0,0,0,0,0,0C9.2,8.4,8.7,8.9,8.1,8.9
		C8.1,8.9,8.1,8.9,8.1,8.9L8.1,8.9z M11.3,8.9c-0.6,0-1.1-0.5-1.1-1.1c0-0.6,0.5-1.1,1.1-1.1c0.6,0,1.1,0.5,1.1,1.1
		C12.4,8.4,11.9,8.9,11.3,8.9C11.3,8.9,11.3,8.9,11.3,8.9L11.3,8.9z"/>
</g>
<g id="mail" display="none">
	<path display="inline" d="M15.6,3c-0.3-0.3-0.6-0.4-1-0.4H1.4C1,2.6,0.7,2.8,0.4,3C0.1,3.3,0,3.7,0,4V12c0,0.4,0.1,0.7,0.4,1
		L0.5,13c0.3,0.2,0.6,0.4,0.9,0.4h13.2c0.4,0,0.7-0.1,1-0.4c0.3-0.3,0.4-0.6,0.4-1V4C16,3.7,15.9,3.3,15.6,3z M8.1,9.8
		c-0.1,0.1-0.2,0.1-0.3,0l-6.7-5V4c0-0.1,0-0.1,0.1-0.2c0,0,0.1-0.1,0.2-0.1h13.2c0.1,0,0.1,0,0.2,0.1c0,0,0.1,0.1,0.1,0.2v0.7
		L8.1,9.8z M4.2,8.5l-3,2.3V6.2L4.2,8.5z M5.2,9.2l2,1.5c0.5,0.4,1.2,0.4,1.7,0l2-1.5l3.9,2.9c0,0-13.4,0-13.4,0L5.2,9.2z M14.8,6.2
		v4.6l-3-2.3L14.8,6.2z"/>
</g>
<g id="bandeira" display="none">
	<path id="flag" display="inline" d="M1.5,1.1C1.4,0.7,1,0.5,0.6,0.6C0.1,0.7-0.1,1.1,0,1.6l4.3,13.9c0.1,0.4,0.6,0.6,1,0.5l0,0
		c0.4-0.1,0.6-0.6,0.5-1c0,0,0,0,0,0L1.5,1.1z"/>
	<path display="inline" d="M5.5,1.3c1,0,1.8,0.2,2.3,0.5c1.1,0.8,2.5,1.3,3.8,1.3c0.5,0,1.1-0.1,1.6-0.2L15,8.6
		c-0.1,0.1-0.9,0.4-1.4,0.4c-0.8,0-1.6-0.2-2.1-0.5c-1-0.8-2.2-1.1-3.6-1.1c-0.5,0-1.1,0.1-1.7,0.2c-0.1,0-0.8,0-1,0
		C4.6,5.3,3.8,2.6,3.4,1.6c0.1-0.1,0.2-0.1,0.4-0.1C4,1.4,4.7,1.3,5.5,1.3L5.5,1.3 M5.5,0.3c-0.9,0-1.7,0.1-1.9,0.2
		C3,0.7,2.3,1,2.3,1.4c0,0.1,2.1,6.9,2.1,6.9s0.7,0.2,1.4,0.2c0.2,0,0.4,0,0.6-0.1c0.4-0.1,1-0.2,1.5-0.2c1,0,2,0.2,3,1
		c0.8,0.5,1.8,0.7,2.7,0.7c0.6,0,1.1-0.1,1.5-0.2C15.5,9.5,16.1,9,16,8.4l-1.9-6.1C14,2,13.7,1.8,13.3,1.8c0,0,0,0,0,0c0,0,0,0,0,0
		c-0.1,0-0.2,0-0.3,0.1c-0.5,0.1-0.9,0.2-1.4,0.2c-1.2,0-2.3-0.4-3.2-1.1C7.5,0.5,6.4,0.3,5.5,0.3L5.5,0.3z"/>
</g>
<g id="coracao" display="none">
	<path id="heart" display="inline" d="M4.1,2.2L4.1,2.2c1,0,2,0.5,2.6,1.4l0.4,0.5c0.1,0,0.1,0.1,0.2,0.1C7.5,4.3,7.7,4.4,8,4.4
		c0.3,0,0.7-0.1,0.9-0.3c0,0,0.3-0.4,0.3-0.4l0.1-0.1c0.6-0.9,1.5-1.4,2.6-1.4c0.5,0,0.9,0.1,1.3,0.3c1.6,0.8,2.2,2.7,1.5,4.3
		c-0.5,1-3.1,3.8-6.6,7.1c0,0-0.1,0.1-0.2,0c-3.6-3.4-6.1-6.1-6.6-7.1C0.6,5.1,1.2,3.2,2.8,2.5C3.2,2.3,3.6,2.2,4.1,2.2 M4.1,1.2
		c-0.6,0-1.2,0.1-1.8,0.4c-2.1,1-2.9,3.5-2,5.6c0.8,1.7,5.1,5.7,6.8,7.4c0.2,0.2,0.5,0.3,0.8,0.3c0.3,0,0.6-0.1,0.8-0.3
		c1.8-1.6,6.1-5.7,6.8-7.4c1-2.1,0.1-4.6-2-5.6c-0.6-0.3-1.2-0.4-1.7-0.4c-1.4,0-2.8,0.7-3.5,2C8.3,3.3,8.1,3.4,8,3.4
		c-0.1,0-0.2,0-0.2-0.1c-0.1,0-0.1-0.1-0.1-0.2C6.9,1.9,5.5,1.2,4.1,1.2L4.1,1.2z"/>
</g>
<g id="inicio-home" display="none">
	<path id="home" display="inline" d="M8,1c0.1,0,0.1,0,0.2,0L15,6.3c0,0,0,0,0,0v8.5c0,0.1-0.1,0.1-0.1,0.1h-3.1
		c-0.1,0-0.1-0.1-0.1-0.1v-4.1v-0.1l0-0.1c-0.1-1.1-1.1-2-2.3-2c0,0,0,0,0,0H6.5c-1.2,0-2.1,1-2.1,2.1v4.1c0,0.1-0.1,0.1-0.1,0.1h-3
		C1.1,15,1,14.9,1,14.9V6.4c0,0,0-0.1,0-0.1l0.1-0.1C2,5.5,6,2.5,7.8,1C7.9,1,7.9,1,8,1 M8,0C7.7,0,7.5,0.1,7.3,0.2
		c0,0-6.7,5.2-6.9,5.3v0C0.1,5.7,0,6.1,0,6.4v8.5C0,15.5,0.5,16,1.1,16c0,0,0,0,0,0h3c0,0,0,0,0,0c0.6,0,1.1-0.5,1.1-1.1
		c0,0,0,0,0,0v-4.1c0-0.6,0.5-1.1,1.1-1.1c0,0,0,0,0,0c0,0,0,0,0,0h2.9c0,0,0,0,0,0c0.7,0,1.2,0.5,1.3,1.1v4.1
		c0,0.6,0.5,1.1,1.1,1.1c0,0,0,0,0,0h3.1c0,0,0,0,0,0c0.6,0,1.1-0.5,1.1-1.1V6.3c0-0.3-0.1-0.5-0.3-0.7L8.7,0.2C8.5,0.1,8.3,0,8,0
		L8,0z"/>
</g>
<g id="lista" display="none">
	<g display="inline">
		<path id="list" d="M15,0.8H6.4c-0.5,0-1,0.4-1,1v1.4c0,0.5,0.4,0.9,0.9,1h8.8c0.5-0.1,0.9-0.5,0.9-1V1.8C16,1.2,15.5,0.8,15,0.8z
			 M15.1,11.8H6.3c-0.5,0-0.9,0.4-0.9,1v1.5c0,0.5,0.5,1,1,1H15c0.5,0,1-0.4,1-0.9v-1.6C16,12.2,15.6,11.8,15.1,11.8L15.1,11.8z
			 M15,6.3H6.3c-0.5,0-1,0.5-1,1v1.4c0,0.5,0.4,1,1,1h8.8c0.5,0,0.9-0.5,0.9-1V7.3C16,6.8,15.6,6.3,15,6.3L15,6.3z M1.7,0.8
			C0.7,0.8,0,1.6,0,2.5c0,0.9,0.8,1.7,1.7,1.7c0.9,0,1.7-0.8,1.7-1.7C3.4,1.5,2.6,0.8,1.7,0.8L1.7,0.8L1.7,0.8z M1.7,6.3
			C0.7,6.3,0,7.1,0,8C0,9,0.8,9.7,1.7,9.7c0.9,0,1.7-0.8,1.7-1.7C3.4,7.1,2.6,6.3,1.7,6.3C1.7,6.3,1.7,6.3,1.7,6.3L1.7,6.3z
			 M1.7,11.8c-0.9,0-1.7,0.8-1.7,1.7c0,0.9,0.8,1.7,1.7,1.7c0.9,0,1.7-0.8,1.7-1.7C3.4,12.6,2.6,11.8,1.7,11.8L1.7,11.8L1.7,11.8z"
			/>
	</g>
</g>
<g id="carregador" display="none">
	<g display="inline">
		<path id="loader" d="M15.3,7.3L15.3,7.3l-2.5,0h-0.1c-0.4,0-0.7,0.4-0.6,0.8c0,0.4,0.3,0.6,0.7,0.6h2.5c0.4,0,0.7-0.4,0.6-0.8
			C16,7.6,15.7,7.3,15.3,7.3z M11.9,5.1L11.9,5.1l1.7-1.7l0.1-0.1c0.3-0.3,0.2-0.8-0.1-1c-0.3-0.2-0.7-0.2-0.9,0l-0.1,0.1L11,4.1
			l-0.1,0.1c-0.2,0.3-0.2,0.7,0.1,1C11.3,5.4,11.7,5.3,11.9,5.1L11.9,5.1z M7.3,3.1v0.1c0,0.4,0.4,0.7,0.8,0.7
			c0.4,0,0.7-0.3,0.7-0.7V0.6C8.7,0.3,8.4,0,8,0C7.6,0,7.3,0.3,7.3,0.7v0.1L7.3,3.1z M2.4,3.4L4.1,5l0.1,0.1c0.3,0.2,0.7,0.2,1,0
			c0.3-0.3,0.3-0.7,0-1h0L3.4,2.4L3.3,2.3c-0.3-0.2-0.7-0.2-1,0C2.1,2.6,2.1,3,2.4,3.4L2.4,3.4z M3.2,8.7c0.4,0,0.7-0.4,0.6-0.8
			c0-0.4-0.3-0.6-0.7-0.6H0.7C0.3,7.3,0,7.7,0,8.1c0,0.4,0.3,0.6,0.7,0.7h0.1l2.4,0H3.2z M4.1,10.9L4.1,10.9l-1.7,1.7l-0.1,0.1
			c-0.2,0.3-0.2,0.7,0,1c0.3,0.3,0.7,0.3,1,0l0.1-0.1l1.7-1.7l0.1-0.1c0.2-0.3,0.2-0.8-0.1-1C4.7,10.7,4.4,10.7,4.1,10.9L4.1,10.9z
			 M8.7,12.9v-0.1c0-0.4-0.4-0.7-0.8-0.7c-0.4,0-0.7,0.3-0.7,0.7v2.5c0,0.4,0.4,0.7,0.8,0.6c0.3,0,0.6-0.3,0.6-0.7v-0.1L8.7,12.9z
			 M13.6,12.6L12,11l-0.1-0.1c-0.3-0.3-0.7-0.2-1,0.1c-0.2,0.3-0.2,0.7,0,1l0,0l1.7,1.7l0.1,0.1c0.3,0.2,0.7,0.2,1,0
			C13.9,13.4,13.9,13,13.6,12.6L13.6,12.6z"/>
	</g>
</g>
<g id="editar" display="none">
	<path display="inline" fill-rule="evenodd" clip-rule="evenodd" d="M2.8,11.1l10-10l-0.4-0.4c-0.2-0.2-0.4-0.2-0.6-0.2
		c-0.2,0-0.4,0.1-0.6,0.2L2.1,9.8L2.8,11.1L2.8,11.1z M13.1,1.3l-10,10l2.2,0.9l0,0l9.4-9.4L13.1,1.3L13.1,1.3z M15,3.2l-9.4,9.4
		l0,0l0.7,1.2l9-9l0,0l0,0c0.2-0.2,0.2-0.4,0.2-0.6c0-0.2-0.1-0.4-0.2-0.6l0,0l0,0L15,3.2L15,3.2z M6.5,14.2
		C6.4,14.3,6.4,14.3,6.5,14.2c-0.1,0.1-0.1,0.1-0.2,0.1L0.9,16c-0.1,0-0.3,0-0.4,0s-0.2-0.1-0.3-0.2l0,0c-0.1-0.1-0.2-0.2-0.2-0.3
		c0-0.1,0-0.3,0-0.4l1.6-5.4c0,0,0-0.1,0.1-0.1l0,0l9.2-9.2C11.2,0.1,11.5,0,11.8,0c0.3,0,0.6,0.1,0.9,0.4l0.5,0.5l1.9,1.9l0.5,0.5
		l0,0l0,0C15.9,3.5,16,3.9,16,4.2c0,0.3-0.1,0.6-0.4,0.9l0,0l0,0L6.5,14.2L6.5,14.2z M6,14l-2.8,0.9l-0.5-1.1l0,0
		c0-0.1-0.1-0.1-0.2-0.1l-1.1-0.1L1.1,13l0.8-2.7l0.5,1c0,0.1,0.1,0.2,0.2,0.2c0.1,0.1,0.1,0.1,0.2,0.1l0,0l2.3,1c0,0,0.1,0,0.1,0.1
		c0,0,0,0,0.1,0.1L6,14L6,14z M0.9,13.6l-0.5,1.6c0,0.1,0,0.1,0,0.2c0,0.1,0,0.1,0.1,0.1l0,0c0,0,0.1,0.1,0.1,0.1c0.1,0,0.1,0,0.2,0
		L2.7,15l-0.4-0.9L1.3,14c-0.1,0-0.2,0-0.2-0.1L0.9,13.6z"/>
</g>
<g id="pin-mapa" display="none">
	<path id="map_pin" display="inline" d="M14,6.2c0.1-3.3-2.5-6.1-5.8-6.2C4.9-0.1,2.1,2.5,2,5.8c0,0.1,0,0.3,0,0.4
		c0,0.4,0,0.9,0.1,1.3l0,0c0.7,3.3,2.6,6.2,5.2,8.3c0.3,0.3,0.8,0.3,1.1,0.1c0.1,0,0.1-0.1,0.2-0.1c2.6-2,4.4-4.9,5.1-8.1l0,0
		C13.9,7.1,14,6.7,14,6.2z M8,3.4c1.6-0.1,2.9,1.2,2.9,2.7C11,7.7,9.7,9,8.2,9C6.6,9.1,5.3,7.8,5.3,6.3c0,0,0-0.1,0-0.1
		C5.2,4.7,6.5,3.4,8,3.4L8,3.4z"/>
</g>
<g id="repetir" display="none">
	<path id="repeat_icon" display="inline" d="M2.2,8.8C2.1,8.8,2.1,8.7,2.2,8.8c0-0.3-0.1-0.4-0.1-0.6c0-1.7,1.4-3.1,3.1-3.1h0h4.1
		c0.1,0,0.1,0,0.2,0c0.2,0,0.4,0.2,0.4,0.5v1.1c0,0.1,0.1,0.3,0.3,0.3c0,0,0,0,0,0c0,0,0.1,0,0.1,0c0,0,0,0,0,0l0.1,0l3.1-2.3l0.1,0
		c0.1-0.1,0.2-0.2,0.2-0.4c0-0.2-0.1-0.3-0.2-0.4l-3.2-2.4l0,0c0,0-0.1,0-0.1,0c-0.1,0-0.3,0.1-0.3,0.3v0v1.1C9.9,2.8,9.7,3,9.5,3
		c0,0,0,0,0,0s0,0,0,0H5.3C2.4,3,0,5.3,0,8.2v0C0,8.5,0,8.8,0.1,9c0,0,0,0.1,0,0.1c0.1,0.5,0.5,0.8,1,0.8c0.6,0,1-0.5,1.1-1
		C2.2,8.9,2.2,8.8,2.2,8.8L2.2,8.8L2.2,8.8z M15.9,7l0-0.1c-0.1-0.6-0.7-0.9-1.3-0.8c-0.1,0-0.3,0.1-0.4,0.2
		c-0.3,0.2-0.4,0.5-0.4,0.8c0,0,0,0.1,0,0.1l0,0c0,0,0,0.1,0,0.1c0,0.2,0,0.3,0,0.5c0,1.7-1.4,3.1-3.2,3.1c0,0,0,0,0,0H6.7
		c0,0-0.1,0-0.1,0c0,0-0.1,0-0.1,0c-0.2,0-0.4-0.2-0.4-0.5c0,0,0,0,0,0c0,0,0,0,0,0v-1c0-0.2-0.1-0.3-0.3-0.3c0,0-0.1,0-0.1,0l0,0
		l-0.1,0l-3.2,2.3l-0.1,0c-0.1,0.1-0.2,0.2-0.2,0.4c0,0.2,0.1,0.3,0.2,0.4l3.2,2.4l0,0c0,0,0.1,0,0.1,0c0.1,0,0.3-0.1,0.3-0.3v-1
		c0,0,0-0.1,0-0.1c0-0.3,0.2-0.5,0.5-0.5c0,0,0,0,0,0s0,0,0,0h4.1c2.9,0,5.2-2.3,5.3-5.2C16,7.5,16,7.2,15.9,7L15.9,7z"/>
</g>
<g id="voltar-desfazer" display="none">
	<path id="reply" display="inline" d="M15.9,12c-1.2-2.6-3.7-6.1-8.4-6.6c-0.6-0.1-1-0.5-1-1.1c0,0,0-0.1,0-0.1V2.7h0
		c0-0.3-0.2-0.5-0.5-0.5h0c-0.1,0-0.2,0-0.3,0.1c0,0,0,0,0,0L0.4,7v0L0.3,7.1C0.1,7.3,0,7.6,0,7.9c0,0.3,0.1,0.5,0.3,0.7l0.2,0.2
		l5.2,4.9c0,0,0,0,0,0c0.1,0.1,0.2,0.1,0.3,0.1c0.3,0,0.5-0.2,0.5-0.5v0h0v-2c0,0,0-0.1,0-0.1c0-0.6,0.5-1.1,1.1-1.1l0,0
		c3,0.1,5.5,0.5,7.5,2.3h0l0.1,0.1l0,0c0.1,0.1,0.2,0.1,0.3,0.1c0.3,0,0.5-0.2,0.5-0.5C16,12.1,16,12,15.9,12z"/>
</g>
<g id="ir-refazer" display="none">
	<path id="reply_1_" display="inline" d="M0.1,12c1.2-2.6,3.7-6.1,8.4-6.6c0.6-0.1,1-0.5,1-1.1c0,0,0-0.1,0-0.1V2.7h0
		c0-0.3,0.2-0.5,0.5-0.5h0c0.1,0,0.2,0,0.3,0.1c0,0,0,0,0,0L15.6,7v0l0.1,0.1C15.9,7.3,16,7.6,16,7.9c0,0.3-0.1,0.5-0.3,0.7
		l-0.2,0.2l-5.2,4.9c0,0,0,0,0,0c-0.1,0.1-0.2,0.1-0.3,0.1c-0.3,0-0.5-0.2-0.5-0.5v0h0v-2c0,0,0-0.1,0-0.1c0-0.6-0.5-1.1-1.1-1.1
		l0,0c-3,0.1-5.5,0.5-7.5,2.3h0l-0.1,0.1l0,0c-0.1,0.1-0.2,0.1-0.3,0.1c-0.3,0-0.5-0.2-0.5-0.5C0,12.1,0,12,0.1,12z"/>
</g>
<g id="salvar-gravar-disquete" display="none">
	<g display="inline">
		<path d="M10.5,0H8v4.9h2.5V0L10.5,0z"/>
		<g>
			<path d="M3,1v6.3H13v-5l2,2v10.4c0,0.2-0.1,0.3-0.3,0.3H1.3C1.1,15,1,14.9,1,14.7V1H3 M12.1,0H12v6.3H4V0H0v14.7
				C0,15.4,0.6,16,1.3,16h13.4c0.7,0,1.3-0.6,1.3-1.3V3.9L12.1,0L12.1,0z"/>
		</g>
	</g>
</g>
<g id="favoritos-estrela" display="none">
	<path display="inline" d="M8,3.2l1.6,3.3L13.3,7l-2.6,2.6l0.6,3.6L8,11.5l-3.3,1.7l0.6-3.6L2.7,7l3.6-0.5L8,3.2 M8,0.4l-2.5,5
		L0,6.2l4,3.9l-0.9,5.5L8,13l4.9,2.6L12,10.1l4-3.9l-5.5-0.8L8,0.4L8,0.4z"/>
</g>
<g id="pessoa-cidadao" display="none">
	<path id="user" display="inline" d="M10.2,6.1L9.9,9.8c-0.6,0.1-1.1,0.5-1.2,1.1L8.4,15l-0.8,0c0,0-0.3-4-0.3-4.1
		c-0.1-0.6-0.6-1.1-1.2-1.2L5.8,6.1H10.2 M10.3,5.1H5.7c-0.5,0-0.9,0.5-0.9,1l0.3,4.1c0,0.3,0.3,0.5,0.6,0.5h0.2
		c0.2,0,0.3,0.2,0.4,0.4c0,0,0.3,4.4,0.3,4.4c0,0.3,0.3,0.5,0.6,0.5h1.6c0.3,0,0.5-0.2,0.6-0.5c0,0,0.3-4.4,0.3-4.4
		c0-0.2,0.2-0.4,0.4-0.4h0.2c0.3,0,0.5-0.2,0.6-0.5l0.3-4.1C11.2,5.6,10.8,5.1,10.3,5.1L10.3,5.1z"/>
	<path display="inline" d="M7.9,1c0.7,0,1.2,0.5,1.2,1.2S8.5,3.4,7.9,3.4S6.7,2.8,6.7,2.2S7.2,1,7.9,1 M7.9,0C6.7,0,5.7,1,5.7,2.2
		s1,2.2,2.2,2.2c1.2,0,2.2-1,2.2-2.2S9.1,0,7.9,0L7.9,0z"/>
</g>
<g id="Texto" display="none">
	<g display="inline">
		<path d="M11.4,0c-0.1,0-0.6,0-0.6,0s-0.2,0.2-0.3,0.2c-0.1,0-9.2,0.1-9.3,0L0.7,0L0,0v3.4c0.1,0.1,0.2,0.2,0.5,0.4
			c0,0,1-2.3,1-2.3l3,0L4.4,14.5l-2.1,0.9l0,0.5h6.8l0-0.7l-2.2-0.7L6.9,1.5l3,0l0.9,2.7L11.4,4L11.4,0z M11.4,0.9"/>
		<path d="M14.9,13.7V2.3L16,2.1L14.3,0l-1.7,2.1l1.1,0.2v11.4l-1.1,0.2l1.7,2.1l1.7-2.1L14.9,13.7z"/>
	</g>
</g>
<g id="pasta-aberta" display="none">
	<g display="inline">
		<g>
			<path d="M15.9,6.4c-0.1-0.2-0.3-0.3-0.5-0.3h-2.2V4.7c0-0.3-0.2-0.5-0.5-0.5H8.3V3.2c0-0.3-0.2-0.5-0.5-0.5H0.5
				C0.2,2.6,0,2.9,0,3.2v9.6c0,0.3,0.2,0.5,0.5,0.5h12.1c0.2,0,0.4-0.1,0.5-0.3l2.8-6.1C16,6.8,16,6.6,15.9,6.4L15.9,6.4z M1.4,12.3
				l2.3-5h10.9l-2.3,5H1.4z M3.3,6.2c-0.2,0-0.4,0.1-0.5,0.3l-1.7,3.8V3.7h6.1v0.9c0,0.3,0.2,0.5,0.5,0.5h4.4v1H3.3z M3.3,6.2"/>
		</g>
	</g>
</g>
<g id="vinculo" display="none">
	<g display="inline">
		<g>
			<path d="M4.8,8.8h6.4V7.2H4.8V8.8z M1.5,8c0-1.8,1.4-3.3,3.3-3.3h2.4V3.2H4.8C2.2,3.2,0,5.4,0,8c0,2.6,2.2,4.8,4.8,4.8h2.4v-1.5
				H4.8C3,11.3,1.5,9.8,1.5,8L1.5,8z M11.2,3.2H8.8v1.5h2.4c1.8,0,3.3,1.4,3.3,3.3s-1.4,3.3-3.3,3.3H8.8v1.5h2.4
				c2.6,0,4.8-2.2,4.8-4.8C16,5.4,13.8,3.2,11.2,3.2L11.2,3.2z M11.2,3.2"/>
		</g>
	</g>
</g>
<g id="mao" display="none">
	<g display="inline">
		<g>
			<path d="M9.5,16c-2.3,0-3.9-0.8-4.9-2.4c-0.8-1.2-2.7-4.1-2.7-4.1C1.6,9.1,1.6,8.7,1.6,8.3C1.7,7.9,2,7.6,2.3,7.4
				C3,6.9,3.9,7.2,4.4,7.9l0.4,0.6v-6c0-0.7,0.6-1.3,1.3-1.3c0.4,0,0.8,0.2,1,0.5V1.3C7.1,0.6,7.7,0,8.4,0c0.7,0,1.2,0.5,1.3,1.1
				c0.2-0.3,0.6-0.5,1.1-0.5c0.7,0,1.3,0.6,1.3,1.3v1c0.2-0.3,0.6-0.5,1-0.5c0.7,0,1.3,0.6,1.3,1.3v7.9C14.4,12.2,14.2,16,9.5,16z
				 M2.6,9c0,0,1.9,2.9,2.7,4.1c0.9,1.4,2.2,2,4.2,2c3.7,0,4-2.8,4-3.7V3.6c0-0.3-0.2-0.5-0.5-0.5c-0.3,0-0.5,0.2-0.5,0.5v3.8
				c0,0.4-0.3,0.7-0.7,0.7c-0.4,0-0.7-0.3-0.7-0.7V1.9c0-0.3-0.2-0.5-0.5-0.5c-0.3,0-0.5,0.2-0.5,0.5v5c0,0.4-0.3,0.7-0.7,0.7
				c-0.4,0-0.7-0.3-0.7-0.7V1.3c0-0.3-0.2-0.5-0.5-0.5C8.2,0.8,8,1,8,1.3v5.5c0,0.4-0.3,0.7-0.7,0.7c-0.4,0-0.7-0.3-0.7-0.7V2.5
				C6.6,2.2,6.3,2,6.1,2S5.6,2.2,5.6,2.5v7.3c0,0.2-0.1,0.3-0.3,0.4c-0.2,0.1-0.4,0-0.5-0.2L3.7,8.4C3.5,8,3,7.9,2.7,8.1
				C2.6,8.2,2.5,8.3,2.5,8.5C2.4,8.6,2.5,8.9,2.6,9L2.6,9z"/>
		</g>
	</g>
</g>
<g id="imagem" display="none">
	<g display="inline">
		<path d="M15.5,1.6h-15C0.2,1.6,0,1.9,0,2.2v11.7c0,0.3,0.2,0.5,0.5,0.5h15c0.3,0,0.5-0.2,0.5-0.5V2.2C16,1.9,15.8,1.6,15.5,1.6
			L15.5,1.6z M15,2.7v9.9l-4.1-4.4C10.7,8,10.6,8,10.5,8c-0.1,0-0.3,0.1-0.4,0.2L8.3,10L6,6.9C5.9,6.8,5.7,6.7,5.5,6.7h0
			c-0.2,0-0.3,0.1-0.4,0.2L1,12.3V2.7H15z M14.3,13.3H1.6l4-5.3l2.3,3.1c0.1,0.1,0.2,0.2,0.4,0.2c0.2,0,0.3-0.1,0.4-0.2l1.8-1.9
			L14.3,13.3z M14.3,13.3"/>
		<path d="M10.7,7c0.9,0,1.7-0.8,1.7-1.7c0-0.9-0.8-1.7-1.7-1.7C9.8,3.6,9,4.4,9,5.3S9.8,7,10.7,7L10.7,7z M10.7,4.6
			c0.4,0,0.7,0.3,0.7,0.7c0,0.4-0.3,0.7-0.7,0.7C10.3,6,10,5.7,10,5.3C10,4.9,10.3,4.6,10.7,4.6L10.7,4.6z M10.7,4.6"/>
	</g>
</g>
<g id="indicador-dedo-biometria-clique" display="none">
	<g display="inline">
		<g>
			<path d="M3.9,5.5c0.1,0,0.2,0,0.2-0.1c0.2-0.1,0.2-0.4,0-0.5c-0.4-0.5-0.6-1-0.6-1.6c0-1.4,1.1-2.5,2.5-2.5
				c1.4,0,2.5,1.1,2.5,2.5c0,0.4-0.1,0.8-0.3,1.1c-0.1,0.2,0,0.4,0.2,0.5C8.7,5,9,4.9,9.1,4.7c0.2-0.5,0.3-0.9,0.3-1.4
				C9.4,1.5,7.9,0,6.1,0C4.3,0,2.8,1.5,2.8,3.3c0,0.8,0.3,1.5,0.8,2.1C3.7,5.5,3.8,5.5,3.9,5.5L3.9,5.5z M3.9,5.5"/>
		</g>
	</g>
	<g display="inline">
		<path d="M6.4,15.9c-0.4,0-0.8-0.3-0.8-0.8l-0.1-1.3C4.9,13,3.6,10.9,4,9.5c0.1-0.4,0.4-0.8,0.9-1l0-4.9C4.8,3.3,5,3,5.2,2.7
			c0.7-0.7,2.3-0.4,2.3,0.9l0,2.2c0.6-0.1,1.2,0.2,1.6,0.7c0.1-0.1,0.3-0.1,0.5-0.1c0.6,0,1,0.3,1.4,0.7c0.4,0,1.6,0.3,1.9,1.8v0
			c0.3,1.6-0.1,3.2-1.1,4.8l-0.2,1.3c-0.1,0.4-0.4,0.7-0.8,0.7L6.4,15.9z M6.2,3.2c-0.1,0-0.3,0-0.3,0.1C5.8,3.4,5.7,3.5,5.7,3.7
			l0,4.9c0,0.3-0.2,0.6-0.5,0.8C5,9.4,4.9,9.6,4.9,9.8c-0.2,0.8,0.5,2.4,1.4,3.6c0.1,0.1,0.1,0.3,0.1,0.4L6.5,15l4.2-0.1l0.1-1.3
			c0-0.1,0.1-0.2,0.1-0.3c0.9-1.4,1.2-2.8,1-4.2l0,0c-0.1-0.9-0.7-1-1.1-1.1c-0.3,0-0.5-0.1-0.6-0.4c-0.2-0.3-0.5-0.4-1-0.3
			c-0.3,0.1-0.7,0-0.9-0.3C8.2,6.8,7.9,6.8,7.6,6.8l-0.1,0C7,6.8,6.6,6.4,6.6,6l0-2.3C6.6,3.3,6.3,3.2,6.2,3.2z"/>
	</g>
</g>
<g id="calendar" display="none">
	<g display="inline">
		<g>
			<path d="M1.1,5.4h13.7v8.9H1.1V5.4z M1.1,2.8h2.3v0.3c0,0.3,0.2,0.6,0.6,0.6c0.3,0,0.6-0.2,0.6-0.6V2.8h6.9v0.3
				c0,0.3,0.2,0.6,0.6,0.6c0.3,0,0.6-0.2,0.6-0.6V2.8h2.2v1.5H1.1V2.8z M0.6,15.4h14.9c0.3,0,0.6-0.2,0.6-0.6V2.2
				c0-0.3-0.2-0.6-0.6-0.6h-2.8V1.2c0-0.3-0.2-0.6-0.6-0.6c-0.3,0-0.6,0.2-0.6,0.6v0.5H4.6V1.2c0-0.3-0.2-0.6-0.6-0.6
				c-0.3,0-0.6,0.2-0.6,0.6v0.5H0.6C0.2,1.7,0,1.9,0,2.2v12.6C0,15.1,0.3,15.4,0.6,15.4z"/>
		</g>
		<g>
			<path d="M12.1,8H3.9C3.6,8,3.4,8.2,3.4,8.5s0.2,0.6,0.6,0.6h8.1c0.3,0,0.6-0.2,0.6-0.6S12.4,8,12.1,8z"/>
			<path d="M8,10.7H3.9c-0.3,0-0.6,0.2-0.6,0.6c0,0.3,0.2,0.6,0.6,0.6H8c0.3,0,0.6-0.2,0.6-0.6C8.6,10.9,8.3,10.7,8,10.7z"/>
		</g>
	</g>
</g>
<g id="alerta" display="none">
	<path display="inline" d="M14.5,9.7l-1.1-1.1V7c0-2.3-1.4-4.3-3.5-5.1c-0.1-1-1-1.8-2-1.8c-1,0-1.9,0.8-2,1.8
		C3.9,2.7,2.5,4.7,2.5,7v1.7L1.5,9.7c-0.2,0.2-0.3,0.4-0.3,0.7v0.7c0,0.6,0.4,1,1,1h2.1c0,2.1,1.7,3.7,3.7,3.7c0.3,0,0.5,0,0.8-0.1
		c1.2-0.2,2.2-1.1,2.7-2.2c0.2-0.4,0.3-0.9,0.3-1.4c0,0,0,0,0-0.1h2.1c0.6,0,1-0.4,1-1v-0.7C14.8,10.2,14.7,9.9,14.5,9.7z
		 M10.5,13.2c-0.3,0.8-1.1,1.4-2,1.6c-0.2,0-0.4,0.1-0.5,0.1c-1.5,0-2.7-1.2-2.7-2.7h5.5C10.7,12.5,10.7,12.9,10.5,13.2z M13.8,11.1
		H2.2v-0.7l1.4-1.4V7C3.5,4.9,5,3.1,7,2.6V2.2c0-0.6,0.5-1,1-1c0.6,0,1,0.5,1,1v0.5c2,0.5,3.4,2.2,3.4,4.3v2.1l1.4,1.4V11.1z"/>
</g>
<g id="lixo" display="none">
	<g display="inline">
		<g>
			<path d="M10.2,13.4V7.1c0-0.2,0.2-0.4,0.4-0.4s0.4,0.2,0.4,0.4v6.3c0,0.2-0.2,0.4-0.4,0.4C10.4,13.7,10.2,13.6,10.2,13.4z
				 M7.6,13.4V7.1c0-0.2,0.2-0.4,0.4-0.4c0.2,0,0.4,0.2,0.4,0.4v6.3c0,0.2-0.2,0.4-0.4,0.4C7.8,13.7,7.6,13.6,7.6,13.4z M5.1,13.4
				V7.1c0-0.2,0.2-0.4,0.4-0.4s0.4,0.2,0.4,0.4v6.3c0,0.2-0.2,0.4-0.4,0.4C5.3,13.7,5.1,13.6,5.1,13.4z M13.3,4
				c0,0.1-0.1,0.2-0.2,0.2H2.9C2.7,4.2,2.6,4.1,2.6,4V3c0-0.1,0.1-0.2,0.2-0.2h10.2c0.1,0,0.2,0.1,0.2,0.2V4z M12.5,14.7
				c0,0.3-0.2,0.6-0.5,0.6H4c-0.3,0-0.6-0.2-0.6-0.6V5h9L12.5,14.7z M8,0.7c0.8,0,1.4,0.5,1.6,1.3H6.4C6.6,1.3,7.2,0.7,8,0.7z
				 M13.1,2h-2.8C10.1,0.9,9.1,0,8,0C6.8,0,5.8,0.9,5.7,2H2.9c-0.5,0-1,0.4-1,1v1c0,0.5,0.4,0.9,0.8,1v9.7C2.7,15.4,3.3,16,4,16H12
				c0.7,0,1.3-0.6,1.3-1.3V5c0.5-0.1,0.8-0.5,0.8-1V3C14.1,2.5,13.6,2,13.1,2z"/>
		</g>
	</g>
</g>
<g id="avatar" display="none">
	<g display="inline">
		<path d="M8.3,7.8c2.2,0,3.9-1.7,3.9-3.9S10.5,0,8.3,0S4.4,1.7,4.4,3.9S6.2,7.8,8.3,7.8z M8.3,1.3c1.4,0,2.6,1.2,2.6,2.6
			S9.8,6.5,8.3,6.5S5.7,5.3,5.7,3.9S6.9,1.3,8.3,1.3z"/>
		<path d="M8.3,9.1c-3.8,0-6.9,3.1-6.9,6.9h13.9C15.3,12.2,12.2,9.1,8.3,9.1z M10.7,13c-0.3,0-0.5,0.2-0.5,0.5V15H5.8v-1.5
			c0-0.3-0.2-0.5-0.5-0.5s-0.5,0.2-0.5,0.5V15H2.5c0.5-2.8,2.9-4.9,5.9-4.9c2.9,0,5.4,2.1,5.9,4.9h-3v-1.5C11.2,13.2,11,13,10.7,13z
			"/>
	</g>
</g>
<g id="manutencao" display="none">
	<g display="inline">
		<path d="M11.6,7.9l0.2-0.3l3.6-3.6L16,3.5l-0.6-0.6l-2.1-2.1l-0.6-0.6L12,0.7L8.5,4.3L8.2,4.6l0,0.4c0,0.1-0.1,0.3-0.3,0.5
			L7.6,5.2C7.8,4,7.4,2.8,6.5,1.9C5.8,1.2,4.9,0.8,3.8,0.8c-0.3,0-0.7,0-1,0.1L1.4,1.3l1.1,1.1l1.3,1.3L3.6,4.4L2.9,4.6L1.6,3.2
			L0.5,2.2L0.1,3.6c-0.4,1.3,0,2.7,1,3.7c0.7,0.7,1.7,1.1,2.7,1.1c0.2,0,0.4,0,0.7-0.1l0.7,0.7l0,0l-1.8,1.8l-1.6,1l-1.6,2.8
			l1.2,1.2l2.8-1.6l1-1.6L7,10.9l4.1,4.1c0.4,0.4,1,0.7,1.6,0.7c0.6,0,1.2-0.2,1.6-0.7c0.4-0.4,0.7-1,0.7-1.6c0-0.6-0.2-1.2-0.7-1.6
			l-3.6-3.6c0.2-0.1,0.5-0.2,0.6-0.3L11.6,7.9z M4,12.7l0.1,0.1l-0.5,0.8l-2,1.1l-0.3-0.3l1.1-2L3.2,12l0.1,0.1l2.4-2.4l0.6,0.6
			L4,12.7z M13.7,14.4c-0.3,0.3-0.6,0.4-1,0.4c-0.4,0-0.7-0.1-1-0.4L4.8,7.5l0,0C4.5,7.6,4.1,7.6,3.8,7.6c-0.8,0-1.5-0.3-2.1-0.9
			C1,6,0.7,4.9,1,3.9l1.7,1.7l1.6-0.4l0.4-1.6L3.1,1.8c0.3-0.1,0.5-0.1,0.8-0.1c0.8,0,1.5,0.3,2.1,0.9c0.8,0.8,1,1.9,0.8,2.9
			l0.8,0.8l6.2,6.2C14.2,12.9,14.2,13.8,13.7,14.4z M10,7.5L8.6,6.1c0.2-0.3,0.5-0.9,0.5-1.2l3.6-3.6l2.1,2.1L11.2,7c0,0,0,0-0.1,0
			C10.8,7,10.3,7.3,10,7.5z"/>
		<circle cx="12.8" cy="13.6" r="0.5"/>
	</g>
</g>
<g id="compra" display="none">
	<g display="inline">
		<path d="M5.8,13.1c-0.7,0-1.2,0.5-1.2,1.2c0,0.7,0.5,1.2,1.2,1.2s1.2-0.5,1.2-1.2S6.5,13.1,5.8,13.1L5.8,13.1z M5.8,14.9
			c-0.3,0-0.5-0.2-0.5-0.5s0.2-0.5,0.5-0.5s0.5,0.2,0.5,0.5l0,0C6.4,14.6,6.1,14.9,5.8,14.9z"/>
		<path d="M12.2,13.1c-0.7,0-1.2,0.5-1.2,1.2s0.5,1.2,1.2,1.2c0.7,0,1.2-0.5,1.2-1.2S12.9,13.1,12.2,13.1L12.2,13.1z M12.2,14.9
			c-0.3,0-0.5-0.2-0.5-0.5s0.2-0.5,0.5-0.5s0.5,0.2,0.5,0.5l0,0C12.7,14.6,12.5,14.9,12.2,14.9z"/>
		<path d="M12.5,5.4h-7c-0.2,0-0.3,0.2-0.3,0.3c0,0.2,0.2,0.3,0.3,0.3h7c0.2,0,0.3-0.2,0.3-0.3C12.8,5.6,12.7,5.4,12.5,5.4z"/>
		<path d="M12.2,7.6H5.8C5.6,7.6,5.5,7.8,5.5,8s0.2,0.3,0.3,0.3h6.4c0.2,0,0.3-0.2,0.3-0.3C12.6,7.8,12.4,7.6,12.2,7.6L12.2,7.6z"/>
		<path d="M15.8,2.9c-0.1-0.2-0.3-0.3-0.5-0.2H2.6l-0.2-1c0-0.2-0.2-0.4-0.4-0.5L0.5,0.5C0.3,0.4,0.1,0.5,0,0.6S0,1,0.2,1.1l1.5,0.6
			l1.7,10.1c0.1,0.3,0.3,0.5,0.7,0.5h10.2c0.2,0,0.3-0.2,0.3-0.3c0-0.2-0.2-0.3-0.3-0.3H4l-0.2-1h10.5c0.3,0,0.6-0.2,0.7-0.5l1-6.7
			C16,3.2,16,3,15.8,2.9z M14.3,10H3.7l-1-6.7h12.6L14.3,10z"/>
	</g>
</g>
<g id="lupa-zoom-busca-pesquisa" display="none">
	<g display="inline">
		<path fill-rule="evenodd" clip-rule="evenodd" d="M12.3,10.2l3.4,3.4l0,0c0.2,0.2,0.3,0.5,0.3,0.9h0c0,0.3-0.1,0.6-0.4,0.9
			l-0.4,0.4l0,0C15,15.9,14.7,16,14.4,16c-0.3,0-0.6-0.1-0.9-0.4l-3.4-3.3c-1,0.6-2.2,1-3.5,1c-1.8,0-3.5-0.7-4.7-2
			C0.7,10.2,0,8.5,0,6.7c0-1.8,0.7-3.5,1.9-4.7C3.2,0.7,4.8,0,6.7,0c1.8,0,3.5,0.7,4.7,1.9c1.2,1.2,2,2.9,2,4.7
			C13.3,8,12.9,9.2,12.3,10.2L12.3,10.2z M8.6,2.1c0.6,0.3,1.2,0.6,1.6,1.1l0,0c0.5,0.5,0.8,1,1.1,1.6c0.2,0.6,0.4,1.2,0.4,1.9
			c0,0.7-0.1,1.3-0.4,1.9c-0.3,0.6-0.6,1.2-1.1,1.6c-0.5,0.5-1,0.8-1.6,1.1c-0.6,0.2-1.2,0.4-1.9,0.4c-0.7,0-1.3-0.1-1.9-0.4
			c-0.6-0.3-1.2-0.6-1.6-1.1h0c-0.5-0.5-0.8-1-1.1-1.6C1.8,8,1.7,7.3,1.7,6.7c0-0.7,0.1-1.3,0.4-1.9c0.3-0.6,0.6-1.2,1.1-1.6
			c0.5-0.5,1-0.8,1.6-1.1C5.3,1.8,6,1.7,6.7,1.7C7.3,1.7,8,1.8,8.6,2.1z"/>
	</g>
</g>
<g id="cadeado-restrito-bloqueado-senha" display="none">
	<g display="inline">
		<path d="M14.3,7.2C14.2,7.1,14,7,13.8,6.9l0-1.1c0-0.8-0.1-1.5-0.4-2.2c-0.3-0.7-0.7-1.3-1.3-1.9c-0.5-0.5-1.2-1-1.9-1.3
			C9.5,0.1,8.8,0,8,0c0,0,0,0,0,0C7.2,0,6.5,0.1,5.8,0.4C5.1,0.7,4.4,1.2,3.9,1.7c-0.5,0.5-1,1.2-1.3,1.9C2.3,4.3,2.2,5,2.2,5.8v1.1
			C2,7,1.9,7.1,1.7,7.2C1.4,7.5,1.3,7.9,1.3,8.3v6.2c0,0.4,0.2,0.8,0.4,1.1C2,15.8,2.4,16,2.8,16h10.4c0.4,0,0.8-0.2,1.1-0.4
			s0.4-0.7,0.4-1.1V8.3C14.7,7.9,14.6,7.5,14.3,7.2z M2.2,8.3c0-0.2,0.1-0.3,0.2-0.4c0.1-0.1,0.2-0.2,0.3-0.2l0.6,0l8.4,0
			c0,0,0.1,0,0.1,0l1.5,0c0.1,0,0.2,0.1,0.3,0.2c0.1,0.1,0.2,0.3,0.2,0.4v6.2c0,0.2-0.1,0.3-0.2,0.4c-0.1,0.1-0.3,0.2-0.4,0.2H2.8
			c-0.2,0-0.3-0.1-0.4-0.2c-0.1-0.1-0.2-0.3-0.2-0.4V8.3z M11.3,5.8v1H4.7v-1c0-0.4,0.1-0.9,0.3-1.3c0.2-0.4,0.4-0.8,0.7-1.1
			C6,3.1,6.3,2.9,6.7,2.7c0.8-0.3,1.7-0.3,2.6,0c0.4,0.2,0.8,0.4,1.1,0.7c0.3,0.3,0.6,0.7,0.7,1.1C11.3,4.9,11.3,5.4,11.3,5.8z
			 M12.9,6.8h-0.6v-1c0-0.6-0.1-1.1-0.3-1.6c-0.2-0.5-0.5-1-0.9-1.4c-0.4-0.4-0.9-0.7-1.4-0.9c-1-0.4-2.2-0.4-3.2,0
			C5.9,2.1,5.4,2.4,5,2.8C4.6,3.2,4.3,3.7,4.1,4.2C3.9,4.7,3.7,5.2,3.7,5.8v1H3.1v-1c0-0.6,0.1-1.3,0.4-1.9c0.2-0.6,0.6-1.1,1.1-1.6
			c0.5-0.5,1-0.8,1.6-1.1c1.2-0.5,2.5-0.5,3.7,0c0.6,0.2,1.1,0.6,1.6,1.1c0.5,0.5,0.8,1,1.1,1.6c0.2,0.6,0.4,1.2,0.4,1.9V6.8z"/>
		<path d="M6.8,11.4v1.7c0,0.3,0.1,0.5,0.3,0.7c0.2,0.2,0.4,0.3,0.7,0.3c0,0,0,0,0,0h0.4c0.3,0,0.5-0.1,0.7-0.3
			c0.2-0.2,0.3-0.4,0.3-0.7v-1.7c0.1-0.1,0.3-0.3,0.3-0.5c0.1-0.2,0.2-0.5,0.2-0.8c0-0.5-0.2-0.9-0.5-1.2C8.9,8.6,8.5,8.5,8,8.5
			c0,0,0,0,0,0C7.5,8.5,7.1,8.6,6.8,9c-0.3,0.3-0.5,0.8-0.5,1.2c0,0.3,0.1,0.6,0.2,0.8C6.5,11.2,6.7,11.3,6.8,11.4z M8.5,10.9
			c-0.1,0.1-0.2,0.2-0.2,0.4l0,1.9l-0.1,0.1l-0.4,0l-0.1-0.1l0-1.9c0-0.1-0.1-0.3-0.2-0.4c-0.1-0.1-0.2-0.2-0.3-0.3
			c-0.1-0.1-0.1-0.2-0.1-0.4c0-0.2,0.1-0.4,0.2-0.6C7.6,9.4,7.8,9.4,8,9.4c0.2,0,0.4,0.1,0.6,0.2c0.2,0.2,0.2,0.4,0.2,0.6
			c0,0.1,0,0.3-0.1,0.4C8.7,10.7,8.6,10.8,8.5,10.9z"/>
	</g>
</g>
<g id="telefone" display="none">
	<path display="inline" d="M13.9,2.2c-0.3-0.6-0.7-1-1.3-1.3L10.2,0c-0.3-0.1-0.7,0-0.8,0.3L7.8,4.3C7.7,4.6,7.8,5,8.1,5.1L9,5.5
		C8.7,6.3,8.2,7.1,7.8,7.9c-0.5,0.8-0.9,1.6-1.5,2.3L5.6,9.6C5.4,9.5,5.3,9.5,5.1,9.5c-0.2,0-0.3,0.1-0.4,0.2L2.1,13
		c-0.1,0.1-0.1,0.3-0.1,0.5c0,0.2,0.1,0.3,0.2,0.4l2,1.6C4.6,15.8,5.1,16,5.6,16c0.1,0,0.2,0,0.3,0c0.6-0.1,1.2-0.4,1.6-0.9
		c1.3-1.6,2.6-3.4,3.6-5.3C12.2,8,13.2,6,13.9,4C14.1,3.4,14.1,2.8,13.9,2.2z M4.9,14.5l-1.5-1.2L5.3,11l0.8,0.6
		c0.1,0.1,0.3,0.1,0.5,0.1c0.2,0,0.3-0.1,0.4-0.2c0.7-0.9,1.3-1.9,1.9-3c0.6-1,1.1-2.1,1.6-3.2c0.1-0.3,0-0.7-0.4-0.8L9.2,4.2
		l1.1-2.8l1.8,0.7c0.3,0.1,0.5,0.3,0.6,0.6c0.1,0.3,0.1,0.6,0,0.9c-0.7,1.9-1.6,3.8-2.7,5.6c-1,1.8-2.2,3.5-3.5,5.1
		c-0.2,0.2-0.5,0.4-0.8,0.4C5.5,14.8,5.2,14.7,4.9,14.5z"/>
</g>
<g id="recarregar-atualizar" display="none">
	<path display="inline" d="M8,3l1.6-1.6c0.3-0.3,0.3-0.8,0-1.2c-0.3-0.3-0.8-0.3-1.2,0l-3.1,3C5.3,3.4,5.2,3.6,5.2,3.8
		s0.1,0.4,0.2,0.6l3.1,3c0.2,0.2,0.4,0.2,0.6,0.2c0.2,0,0.4-0.1,0.6-0.2c0.3-0.3,0.3-0.8,0-1.2L8.1,4.7c2.6,0,4.8,2.2,4.8,4.8
		c0,2.7-2.2,4.8-4.8,4.8s-4.8-2.2-4.8-4.8c0-0.8,0.2-1.6,0.6-2.3C4,6.8,3.8,6.3,3.4,6.1C3,5.8,2.5,6,2.3,6.4c-0.5,1-0.8,2-0.8,3.1
		C1.5,13.1,4.4,16,8,16s6.5-2.9,6.5-6.5C14.5,5.9,11.6,3,8,3z"/>
</g>
<g id="menos-remover--" display="none">
	<g display="inline">
		<path d="M11.4,8.8H4.6C4.2,8.8,3.8,8.4,3.8,8s0.3-0.8,0.8-0.8h6.9c0.4,0,0.8,0.3,0.8,0.8S11.8,8.8,11.4,8.8z"/>
	</g>
	<g display="inline">
		<g>
			<path d="M13.2,1.5c0.7,0,1.3,0.6,1.3,1.3v10.4c0,0.7-0.6,1.3-1.3,1.3H2.8c-0.7,0-1.3-0.6-1.3-1.3V2.8c0-0.7,0.6-1.3,1.3-1.3H13.2
				 M13.2,0H2.8C1.3,0,0,1.3,0,2.8v10.4C0,14.7,1.3,16,2.8,16h10.4c1.6,0,2.8-1.3,2.8-2.8V2.8C16,1.3,14.7,0,13.2,0L13.2,0z"/>
		</g>
	</g>
</g>
<g id="menos-remover--_1_">
	<g>
		<path d="M14.6,9.4H1.4C0.6,9.4,0,8.8,0,8s0.6-1.4,1.4-1.4h13.1C15.4,6.6,16,7.2,16,8S15.4,9.4,14.6,9.4z"/>
	</g>
</g>
<g id="mais-adicionar-_x2B_" display="none">
	<g display="inline">
		<path d="M11.4,7.2H8.8V4.6c0-0.4-0.3-0.8-0.8-0.8S7.2,4.2,7.2,4.6v2.7H4.6C4.2,7.2,3.8,7.6,3.8,8s0.3,0.8,0.8,0.8h2.7v2.7
			c0,0.4,0.3,0.8,0.8,0.8s0.8-0.3,0.8-0.8V8.8h2.7c0.4,0,0.8-0.3,0.8-0.8S11.8,7.2,11.4,7.2z"/>
		<path d="M13.2,0H2.8C1.3,0,0,1.3,0,2.8v10.4C0,14.7,1.3,16,2.8,16h10.4c1.6,0,2.8-1.3,2.8-2.8V2.8C16,1.3,14.7,0,13.2,0z
			 M14.5,13.2c0,0.7-0.6,1.3-1.3,1.3H2.8c-0.7,0-1.3-0.6-1.3-1.3V2.8c0-0.7,0.6-1.3,1.3-1.3h10.4c0.7,0,1.3,0.6,1.3,1.3V13.2z"/>
	</g>
</g>
<g id="mais-adicionar-_x2B__1_" display="none">
	<g display="inline">
		<path d="M14.6,6.6H9.4V1.4C9.4,0.6,8.8,0,8,0C7.2,0,6.6,0.6,6.6,1.4v5.1H1.4C0.6,6.6,0,7.2,0,8c0,0.8,0.6,1.4,1.4,1.4h5.1v5.1
			C6.6,15.4,7.2,16,8,16c0.8,0,1.4-0.6,1.4-1.4V9.4h5.1C15.4,9.4,16,8.8,16,8C16,7.2,15.4,6.6,14.6,6.6z"/>
	</g>
</g>
<g id="seta-esquerda-proximo-prosseguir_1_" display="none">
	<g display="inline">
		<path d="M10.2,7.5C10.2,7.5,10.2,7.5,10.2,7.5L6.8,4C6.5,3.7,6,3.7,5.8,4s-0.3,0.8,0,1.1L8.7,8l-2.9,2.9c-0.3,0.3-0.3,0.8,0,1.1
			s0.8,0.3,1.1,0l3.4-3.4c0,0,0,0,0,0c0.1-0.1,0.2-0.3,0.2-0.5C10.5,7.8,10.4,7.6,10.2,7.5z"/>
		<path d="M13.2,0H2.8C1.3,0,0,1.3,0,2.8v10.4C0,14.7,1.3,16,2.8,16h10.4c1.6,0,2.8-1.3,2.8-2.8V2.8C16,1.3,14.7,0,13.2,0z
			 M14.5,13.2c0,0.7-0.6,1.3-1.3,1.3H2.8c-0.7,0-1.3-0.6-1.3-1.3V2.8c0-0.7,0.6-1.3,1.3-1.3h10.4c0.7,0,1.3,0.6,1.3,1.3V13.2z"/>
	</g>
</g>
<g id="seta-esquerda-proximo-prosseguir" display="none">
	<g display="inline">
		<path d="M12.3,7C12.3,7,12.3,7,12.3,7L5.7,0.4c-0.6-0.6-1.5-0.6-2,0s-0.6,1.5,0,2L9.3,8l-5.5,5.5c-0.6,0.6-0.6,1.5,0,2
			s1.5,0.6,2,0L12.3,9c0,0,0,0,0,0c0.3-0.3,0.4-0.6,0.4-1C12.7,7.6,12.6,7.3,12.3,7z"/>
	</g>
</g>
<g id="seta-direita-anterior-voltar_1_" display="none">
	<g display="inline">
		<path d="M5.8,8.5C5.8,8.5,5.8,8.5,5.8,8.5L9.2,12c0.3,0.3,0.8,0.3,1.1,0s0.3-0.8,0-1.1L7.3,8l2.9-2.9c0.3-0.3,0.3-0.8,0-1.1
			S9.5,3.7,9.2,4L5.8,7.5c0,0,0,0,0,0C5.6,7.6,5.5,7.8,5.5,8C5.5,8.2,5.6,8.4,5.8,8.5z"/>
		<path d="M2.8,16h10.4c1.6,0,2.8-1.3,2.8-2.8V2.8C16,1.3,14.7,0,13.2,0H2.8C1.3,0,0,1.3,0,2.8v10.4C0,14.7,1.3,16,2.8,16z M1.5,2.8
			c0-0.7,0.6-1.3,1.3-1.3h10.4c0.7,0,1.3,0.6,1.3,1.3v10.4c0,0.7-0.6,1.3-1.3,1.3H2.8c-0.7,0-1.3-0.6-1.3-1.3V2.8z"/>
	</g>
</g>
<g id="seta-direita-anterior-voltar" display="none">
	<g display="inline">
		<path d="M3.7,9C3.7,9,3.7,9,3.7,9l6.6,6.6c0.6,0.6,1.5,0.6,2,0s0.6-1.5,0-2L6.7,8l5.5-5.5c0.6-0.6,0.6-1.5,0-2s-1.5-0.6-2,0L3.7,7
			c0,0,0,0,0,0C3.4,7.3,3.3,7.6,3.3,8C3.3,8.4,3.4,8.7,3.7,9z"/>
	</g>
</g>
<g id="seta-cima-sobe" display="none">
	<g display="inline">
		<path d="M7.5,5.8C7.5,5.8,7.5,5.8,7.5,5.8L4,9.2C3.7,9.5,3.7,10,4,10.2s0.8,0.3,1.1,0L8,7.3l2.9,2.9c0.3,0.3,0.8,0.3,1.1,0
			s0.3-0.8,0-1.1L8.5,5.8c0,0,0,0,0,0C8.4,5.6,8.2,5.5,8,5.5C7.8,5.5,7.6,5.6,7.5,5.8z"/>
		<path d="M0,2.8v10.4C0,14.7,1.3,16,2.8,16h10.4c1.6,0,2.8-1.3,2.8-2.8V2.8C16,1.3,14.7,0,13.2,0H2.8C1.3,0,0,1.3,0,2.8z M13.2,1.5
			c0.7,0,1.3,0.6,1.3,1.3v10.4c0,0.7-0.6,1.3-1.3,1.3H2.8c-0.7,0-1.3-0.6-1.3-1.3V2.8c0-0.7,0.6-1.3,1.3-1.3H13.2z"/>
	</g>
</g>
<g id="seta-cima-sobe_1_" display="none">
	<g display="inline">
		<path d="M7,3.7C7,3.7,7,3.7,7,3.7l-6.6,6.6c-0.6,0.6-0.6,1.5,0,2s1.5,0.6,2,0L8,6.7l5.5,5.5c0.6,0.6,1.5,0.6,2,0s0.6-1.5,0-2
			L9,3.7c0,0,0,0,0,0C8.7,3.4,8.4,3.3,8,3.3C7.6,3.3,7.3,3.4,7,3.7z"/>
	</g>
</g>
<g id="seta-baixo-desce" display="none">
	<g display="inline">
		<path d="M8.5,10.2C8.5,10.2,8.5,10.2,8.5,10.2L12,6.8c0.3-0.3,0.3-0.8,0-1.1s-0.8-0.3-1.1,0L8,8.7L5.1,5.8C4.8,5.5,4.3,5.5,4,5.8
			S3.7,6.5,4,6.8l3.4,3.4c0,0,0,0,0,0c0.1,0.1,0.3,0.2,0.5,0.2C8.2,10.5,8.4,10.4,8.5,10.2z"/>
		<path d="M16,13.2V2.8C16,1.3,14.7,0,13.2,0H2.8C1.3,0,0,1.3,0,2.8v10.4C0,14.7,1.3,16,2.8,16h10.4C14.7,16,16,14.7,16,13.2z
			 M2.8,14.5c-0.7,0-1.3-0.6-1.3-1.3V2.8c0-0.7,0.6-1.3,1.3-1.3h10.4c0.7,0,1.3,0.6,1.3,1.3v10.4c0,0.7-0.6,1.3-1.3,1.3H2.8z"/>
	</g>
</g>
<g id="seta-baixo-desce-2" display="none">
	<g display="inline">
		<path d="M9,12.3C9,12.3,9,12.3,9,12.3l6.6-6.6c0.6-0.6,0.6-1.5,0-2s-1.5-0.6-2,0L8,9.3L2.5,3.7c-0.6-0.6-1.5-0.6-2,0s-0.6,1.5,0,2
			L7,12.3c0,0,0,0,0,0c0.3,0.3,0.6,0.4,1,0.4C8.4,12.7,8.7,12.6,9,12.3z"/>
	</g>
</g>
<g id="setas-esquerda-direita-expandir-listar-horizontal" display="none">
	<g display="inline">
		<g>
			<path d="M13.3,7.5C13.3,7.5,13.3,7.5,13.3,7.5L9.9,4C9.6,3.7,9.1,3.7,8.8,4s-0.3,0.8,0,1.1L11.7,8l-2.9,2.9
				c-0.3,0.3-0.3,0.8,0,1.1s0.8,0.3,1.1,0l3.4-3.4c0,0,0,0,0,0c0.1-0.1,0.2-0.3,0.2-0.5C13.5,7.8,13.4,7.6,13.3,7.5z"/>
			<path d="M2.7,8.5C2.7,8.5,2.7,8.5,2.7,8.5L6.1,12c0.3,0.3,0.8,0.3,1.1,0s0.3-0.8,0-1.1L4.3,8l2.9-2.9c0.3-0.3,0.3-0.8,0-1.1
				S6.4,3.7,6.1,4L2.7,7.5c0,0,0,0,0,0C2.6,7.6,2.5,7.8,2.5,8C2.5,8.2,2.6,8.4,2.7,8.5z"/>
		</g>
		<path d="M13.2,0H2.8C1.3,0,0,1.3,0,2.8v10.4C0,14.7,1.3,16,2.8,16h10.4c1.6,0,2.8-1.3,2.8-2.8V2.8C16,1.3,14.7,0,13.2,0z
			 M14.5,13.2c0,0.7-0.6,1.3-1.3,1.3H2.8c-0.7,0-1.3-0.6-1.3-1.3V2.8c0-0.7,0.6-1.3,1.3-1.3h10.4c0.7,0,1.3,0.6,1.3,1.3V13.2z"/>
	</g>
</g>
<g id="setas-esquerda-direita-expandir-listar-horizontal_1_" display="none">
	<g display="inline">
		<g>
			<path d="M15.6,7.2C15.6,7.2,15.6,7.2,15.6,7.2l-5-4.9c-0.4-0.4-1.1-0.4-1.5,0c-0.4,0.4-0.4,1.1,0,1.5L13.3,8l-4.2,4.2
				c-0.4,0.4-0.4,1.1,0,1.5c0.4,0.4,1.1,0.4,1.5,0l4.9-4.9c0,0,0,0,0,0c0.2-0.2,0.3-0.5,0.3-0.8C15.9,7.7,15.8,7.4,15.6,7.2z"/>
			<path d="M0.4,8.8C0.4,8.8,0.4,8.8,0.4,8.8l5,4.9c0.4,0.4,1.1,0.4,1.5,0c0.4-0.4,0.4-1.1,0-1.5L2.7,8l4.2-4.2
				c0.4-0.4,0.4-1.1,0-1.5s-1.1-0.4-1.5,0L0.4,7.2c0,0,0,0,0,0C0.2,7.4,0.1,7.7,0.1,8C0.1,8.3,0.2,8.6,0.4,8.8z"/>
		</g>
	</g>
</g>
<g id="setas-cima-baixo-expandir-listar-vertical" display="none">
	<g display="inline">
		<g>
			<path d="M7.5,3C7.5,3,7.5,3,7.5,3L4,6.4C3.7,6.7,3.7,7.2,4,7.5s0.8,0.3,1.1,0L8,4.6l2.9,2.9c0.3,0.3,0.8,0.3,1.1,0s0.3-0.8,0-1.1
				L8.5,3c0,0,0,0,0,0C8.4,2.8,8.2,2.8,8,2.8C7.8,2.8,7.6,2.8,7.5,3z"/>
			<path d="M8.5,13.6C8.5,13.6,8.5,13.6,8.5,13.6l3.4-3.4c0.3-0.3,0.3-0.8,0-1.1s-0.8-0.3-1.1,0L8,12L5.1,9.1C4.8,8.8,4.3,8.8,4,9.1
				s-0.3,0.8,0,1.1l3.4,3.4c0,0,0,0,0,0c0.1,0.1,0.3,0.2,0.5,0.2C8.2,13.8,8.4,13.7,8.5,13.6z"/>
		</g>
		<path d="M0,3.1v10.4c0,1.6,1.3,2.8,2.8,2.8h10.4c1.6,0,2.8-1.3,2.8-2.8V3.1c0-1.6-1.3-2.8-2.8-2.8H2.8C1.3,0.3,0,1.5,0,3.1z
			 M13.2,1.8c0.7,0,1.3,0.6,1.3,1.3v10.4c0,0.7-0.6,1.3-1.3,1.3H2.8c-0.7,0-1.3-0.6-1.3-1.3V3.1c0-0.7,0.6-1.3,1.3-1.3H13.2z"/>
	</g>
</g>
<g id="setas-cima-baixo-expandir-listar-vertical_1_" display="none">
	<g display="inline">
		<g>
			<path d="M7.2,0.3C7.2,0.3,7.2,0.3,7.2,0.3l-5,5c-0.4,0.4-0.4,1.1,0,1.5c0.4,0.4,1.1,0.4,1.5,0L8,2.6l4.2,4.2
				c0.4,0.4,1.1,0.4,1.5,0c0.4-0.4,0.4-1.1,0-1.5l-5-5c0,0,0,0,0,0C8.6,0.1,8.3,0,8,0C7.7,0,7.4,0.1,7.2,0.3z"/>
			<path d="M8.8,15.7C8.8,15.7,8.8,15.7,8.8,15.7l5-5c0.4-0.4,0.4-1.1,0-1.5c-0.4-0.4-1.1-0.4-1.5,0L8,13.4L3.8,9.2
				c-0.4-0.4-1.1-0.4-1.5,0c-0.4,0.4-0.4,1.1,0,1.5l5,5c0,0,0,0,0,0C7.4,15.9,7.7,16,8,16C8.3,16,8.6,15.9,8.8,15.7z"/>
		</g>
	</g>
</g>
<g id="menu-botoes" display="none">
	<g display="inline">
		<g>
			<path d="M14.7,9.3H1.3C0.6,9.3,0,8.7,0,8s0.6-1.3,1.3-1.3h13.4C15.4,6.7,16,7.3,16,8S15.4,9.3,14.7,9.3z"/>
		</g>
		<g>
			<path d="M14.7,13.8H1.3c-0.7,0-1.3-0.6-1.3-1.3s0.6-1.3,1.3-1.3h13.4c0.7,0,1.3,0.6,1.3,1.3S15.4,13.8,14.7,13.8z"/>
		</g>
		<g>
			<path d="M14.7,4.8H1.3C0.6,4.8,0,4.2,0,3.5s0.6-1.3,1.3-1.3h13.4c0.7,0,1.3,0.6,1.3,1.3S15.4,4.8,14.7,4.8z"/>
		</g>
	</g>
</g>
</svg>
