<svg id="Layer_1" data-name="Layer 1" xmlns="http://www.w3.org/2000/svg" width="36.39" height="36.85" viewBox="0 0 36.39 36.85">
  <defs>
    <style>
      .cls-1 {
        fill: #ee4023;
      }
    </style>
  </defs>
  <title>simbolo_eicon</title>
  <g>
    <path class="cls-1" d="M19.16.78l6.34,10.06a1.16,1.16,0,0,1,.35-.06,1.14,1.14,0,0,1,.77.3l8.06-3.83a1.14,1.14,0,0,1,.48-.87L19,.15a1.13,1.13,0,0,1,.14.54s0,.06,0,.09"/>
    <path class="cls-1" d="M1.67,7.17,9.75,11a1.12,1.12,0,0,1,1.07-.3l6.25-10s0,0,0-.06A1.13,1.13,0,0,1,17.29,0L1.24,6.35a1.13,1.13,0,0,1,.44.82"/>
    <path class="cls-1" d="M34.93,8l-7.86,3.73a1.09,1.09,0,0,1,0,.13,1.13,1.13,0,0,1-.32.78L35.84,27a1.13,1.13,0,0,1,.55.31V8.23A1.12,1.12,0,0,1,34.93,8"/>
    <path class="cls-1" d="M19,14.62l5.79-2.75s0,0,0-.06a1.12,1.12,0,0,1,.16-.57L18.88,1.58a1.13,1.13,0,0,1-.33.18l0,12.58a1.14,1.14,0,0,1,.44.29"/>
    <path class="cls-1" d="M17.75,1.73a1.14,1.14,0,0,1-.26-.16l-6,9.59a1.12,1.12,0,0,1,.21.65s0,.07,0,.11l5.68,2.7a1.12,1.12,0,0,1,.43-.29Z"/>
    <path class="cls-1" d="M19.35,15.54l15.6,11.62,0,0L26,12.94h-.09a1.13,1.13,0,0,1-.81-.34l-5.81,2.76v0a1.16,1.16,0,0,1,0,.19Z"/>
    <path class="cls-1" d="M.62,27,9.68,12.53a1.13,1.13,0,0,1-.26-.72s0,0,0-.07l-8-3.8a1.13,1.13,0,0,1-.89.44A1.12,1.12,0,0,1,0,8.24V27.33A1.13,1.13,0,0,1,.62,27"/>
    <path class="cls-1" d="M19.3,21.63l14.26,5.49L18.95,16.24a1.13,1.13,0,0,1-.36.22V20.9a1.13,1.13,0,0,1,.69.76Z"/>
    <path class="cls-1" d="M17.44,16.24,2.74,27.15l14.38-5.52a1.13,1.13,0,0,1,.68-.72V16.45a1.13,1.13,0,0,1-.35-.21"/>
    <path class="cls-1" d="M17.85,35.44l0-12.41a1.13,1.13,0,0,1-.63-.57L1.94,28.31a1.13,1.13,0,0,1-1,.93l16.2,7.58a1.12,1.12,0,0,1,0-.31,1.13,1.13,0,0,1,.77-1.07"/>
    <path class="cls-1" d="M17.06,15.39v0l-5.74-2.73a1.13,1.13,0,0,1-.77.31l-.18,0L1.53,27.05,17.07,15.52a1,1,0,0,1,0-.12"/>
    <path class="cls-1" d="M34.46,28.33,19.22,22.46a1.13,1.13,0,0,1-.61.56l0,12.44a1.14,1.14,0,0,1,.7,1,1.12,1.12,0,0,1-.06.34l16.1-7.62a1.13,1.13,0,0,1-.93-.9"/>
  </g>
</svg>
