<svg id="Layer_1" data-name="Layer 1" xmlns="http://www.w3.org/2000/svg" width="100.13" height="36.42" viewBox="0 0 100.13 36.42">
  <defs>
    <style>
      .cls-1 {
        fill: #ee4023;
      }
    </style>
  </defs>
  <title>type_eicon</title>
  <g>
    <path class="cls-1" d="M74,28.73c0,2.49-.9,5.14-3.41,5.14H61.35c-2.35,0-3.28-2.32-3.39-4.66,0-.16,0-.3,0-.48V13c0-3,1.4-5.14,3.4-5.14h9.23C72.59,7.84,74,10,74,13ZM70.58,5.29H61.35c-3.21,0-5.82,3.45-5.82,7.69V28.73s0,.08,0,.12c0,2.49-1.52,5-4,5H37.61c-2.55,0-3.46-2.63-3.46-5.08V13c0-3,1.44-5.14,3.51-5.14h9.27c2,0,3.45,2.14,3.45,5.2A1.21,1.21,0,0,0,51.6,14.3,1.23,1.23,0,0,0,52.81,13c0-4.27-2.64-7.75-5.88-7.75H37.67c-3.27,0-5.93,3.45-5.93,7.69V28.78c0,3.79,2,7.63,5.88,7.63H51.56a5.67,5.67,0,0,0,4.23-1.94,8.74,8.74,0,0,0,.84-1.1,5.27,5.27,0,0,0,4.72,3h9.23c3.82,0,5.82-3.87,5.82-7.69V13c0-4.24-2.61-7.69-5.82-7.69"/>
    <path class="cls-1" d="M94.3,5.29H85.05c-3.22,0-5.83,3.48-5.83,7.75V35.15a1.21,1.21,0,1,0,2.42,0V13c0-3.06,1.4-5.2,3.41-5.2H94.3c2,0,3.41,2.11,3.41,5.14V35.15a1.21,1.21,0,1,0,2.42,0V13c0-4.24-2.62-7.69-5.83-7.69"/>
    <path class="cls-1" d="M27.65,2.59h.07a1.26,1.26,0,0,0,1-.43A1.32,1.32,0,0,0,29,1.29,1.28,1.28,0,0,0,27.71,0h-.07a1.27,1.27,0,0,0-1,.42,1.31,1.31,0,0,0-.32.87,1.28,1.28,0,0,0,1.29,1.29"/>
    <path class="cls-1" d="M2.52,13.12c0-3,1.57-5.1,3.83-5.1H17.4c2.22,0,3.77,2.12,3.77,5.16v6.55H2.52ZM27.68,5.5a1.25,1.25,0,0,0-1.27,1.25v22c0,2.47-1,5.09-3.75,5.09l-16.31,0c-2.82,0-3.83-2.61-3.83-5V22.26H22.43A1.23,1.23,0,0,0,23.69,21V13.18c0-4.24-2.82-7.68-6.28-7.68H6.34C2.79,5.5,0,8.85,0,13.12V28.8c0,3.65,2,7.57,6.35,7.57h16.3c3.52,0,6.12-3,6.31-7.17A1.63,1.63,0,0,0,29,29V6.75A1.25,1.25,0,0,0,27.68,5.5"/>
  </g>
</svg>
