<svg id="ilustras" xmlns="http://www.w3.org/2000/svg" width="644.8" height="99.23" viewBox="0 0 644.8 99.23">
  <defs>
    <style>
      .cls-1 {
        fill: #dadada;
      }

      .cls-2 {
        fill: none;
        stroke: #dadada;
        stroke-miterlimit: 10;
      }

      .cls-3 {
        fill: #939598;
      }
    </style>
  </defs>
  <title>header-eicon</title>
  <circle class="cls-1" cx="447.63" cy="79.56" r="2.2" transform="translate(333.14 524.04) rotate(-89.01)"/>
  <path class="cls-2" d="M28.8,59.9" transform="translate(-27.24 -1.71)"/>
  <g>
    <line class="cls-2" x1="420.36" y1="77.89" x2="334.06" y2="51.39"/>
    <path class="cls-2" d="M361.3,53.1" transform="translate(-27.24 -1.71)"/>
    <polyline class="cls-2" points="286.16 7.09 334.06 51.39 331.26 85.29"/>
    <line class="cls-2" x1="421.76" y1="78.29" x2="333.46" y2="85.39"/>
    <line class="cls-2" x1="285.36" y1="6.99" x2="330.96" y2="85.29"/>
    <circle class="cls-1" cx="313.46" cy="9.19" r="2.2" transform="translate(271.64 320.74) rotate(-89.01)"/>
    <circle class="cls-1" cx="358.48" cy="87.05" r="2.2" transform="translate(238.04 442.27) rotate(-89.01)"/>
    <polyline class="cls-2" points="257.26 50.09 286.16 7.49 155.46 32.59"/>
    <polygon class="cls-2" points="258.46 50.09 302.26 36.09 286.96 86.69 258.46 50.09"/>
    <circle class="cls-1" cx="285.65" cy="51.07" r="2.2" transform="translate(202.43 334.09) rotate(-89.01)"/>
    <circle class="cls-1" cx="314.21" cy="87.46" r="2.2" transform="translate(194.12 398.4) rotate(-89.01)"/>
    <path class="cls-1" d="M358.5,87" transform="translate(-27.24 -1.71)"/>
    <line class="cls-2" x1="331.26" y1="85.29" x2="286.96" y2="85.69"/>
    <polygon class="cls-2" points="155.36 33.59 258.46 49.39 201.06 82.09 155.36 33.59"/>
    <circle class="cls-1" cx="182.68" cy="35.28" r="2.2" transform="translate(117.03 215.61) rotate(-89.01)"/>
    <circle class="cls-1" cx="228.26" cy="83.76" r="2.2" transform="translate(113.35 308.83) rotate(-89.01)"/>
    <polyline class="cls-2" points="0.76 58.19 104.36 2.19 155.36 33.59 97.06 48.79 201.06 82.09"/>
    <circle class="cls-1" cx="131.63" cy="3.91" r="2.2" transform="translate(98.21 133.74) rotate(-89.01)"/>
    <circle class="cls-1" cx="125.31" cy="50.53" r="2.2" transform="translate(45.4 173.24) rotate(-89.01)"/>
    <path class="cls-2" d="M228.3,83.8" transform="translate(-27.24 -1.71)"/>
    <polyline class="cls-2" points="198.86 82.09 99.56 88.39 98.06 48.79"/>
    <line class="cls-2" x1="99.56" y1="88.39" x2="0.76" y2="58.19"/>
    <circle class="cls-1" cx="126.84" cy="90.05" r="2.2" transform="translate(7.39 213.6) rotate(-89.01)"/>
    <line class="cls-2" x1="97.06" y1="48.79" x2="0.76" y2="58.19"/>
  </g>
  <circle class="cls-1" cx="29.44" cy="59.9" r="2.2" transform="translate(-58.2 86.59) rotate(-89.01)"/>
  <path class="cls-2" d="M349.4,96" transform="translate(-27.24 -1.71)"/>
  <path class="cls-3" d="M315.6,9.2" transform="translate(-27.24 -1.71)"/>
  <polyline class="cls-2" points="285.36 6.99 378.86 8.59 334.06 51.39"/>
  <polyline class="cls-2" points="378.86 8.59 505.36 64.99 420.36 77.89 481.16 97.09 505.36 64.99"/>
  <circle class="cls-1" cx="406.04" cy="10.31" r="2.2" transform="translate(361.52 414.4) rotate(-89.01)"/>
  <circle class="cls-1" cx="532.58" cy="66.72" r="2.2" transform="translate(429.48 596.36) rotate(-89.01)"/>
  <circle class="cls-1" cx="361.27" cy="53.03" r="2.2" transform="translate(274.8 411.62) rotate(-89.01)"/>
  <line class="cls-2" x1="201.06" y1="82.09" x2="284.86" y2="85.69"/>
  <polyline class="cls-2" points="505.36 64.99 451.26 10.29 378.86 8.59 420.36 77.89"/>
  <polyline class="cls-2" points="451.26 10.29 522.36 7.19 505.36 64.99 600.16 66.69 522.76 7.49"/>
  <circle class="cls-1" cx="478.55" cy="12.31" r="2.2" transform="translate(430.77 488.86) rotate(-89.01)"/>
  <circle class="cls-1" cx="549.96" cy="9.18" r="2.2" transform="translate(504.09 557.18) rotate(-89.01)"/>
  <circle class="cls-1" cx="627.41" cy="68.3" r="2.2" transform="translate(521.09 692.73) rotate(-89.01)"/>
  <circle class="cls-1" cx="508.42" cy="98.74" r="2.2" transform="translate(373.72 603.68) rotate(-89.01)"/>
  <polyline class="cls-2" points="522.76 7.49 642.56 31.99 600.16 66.69 481.16 97.09"/>
  <circle class="cls-1" cx="669.84" cy="33.73" r="2.2" transform="matrix(0.3, -0.95, 0.95, 0.3, 411.4, 661.59)"/>
  <circle class="cls-1" cx="329.52" cy="37.77" r="2.2" transform="translate(258.86 364.88) rotate(-89.01)"/>
</svg>
